<svg width="45" height="45" viewBox="0 0 45 45" fill="none" xmlns="http://www.w3.org/2000/svg">
<g id="smile-circle_svgrepo.com">
<path id="Vector" d="M16.875 30C18.4695 31.1818 20.4086 31.875 22.5 31.875C24.5914 31.875 26.5305 31.1818 28.125 30" stroke="#2D4B4D" stroke-width="3.75" stroke-linecap="round"/>
<path id="Vector_2" d="M30 19.6875C30 21.2407 29.1606 22.5 28.125 22.5C27.0894 22.5 26.25 21.2407 26.25 19.6875C26.25 18.1342 27.0894 16.875 28.125 16.875C29.1606 16.875 30 18.1342 30 19.6875Z" fill="#2D4B4D"/>
<path id="Vector_3" d="M16.875 22.5C17.9105 22.5 18.75 21.2408 18.75 19.6875C18.75 18.1342 17.9105 16.875 16.875 16.875C15.8395 16.875 15 18.1342 15 19.6875C15 21.2408 15.8395 22.5 16.875 22.5Z" fill="#2D4B4D"/>
<path id="Vector_4" d="M13.125 6.25841C15.8829 4.66307 19.0849 3.75 22.5 3.75C32.8552 3.75 41.25 12.1447 41.25 22.5C41.25 32.8552 32.8552 41.25 22.5 41.25C12.1447 41.25 3.75 32.8552 3.75 22.5C3.75 19.0849 4.66307 15.8829 6.25841 13.125" stroke="#2D4B4D" stroke-width="3.75" stroke-linecap="round"/>
</g>
</svg>
