<svg width="51" height="51" viewBox="0 0 51 51" fill="none" xmlns="http://www.w3.org/2000/svg">
<g id="Navigation / Building_01">
<path id="Vector" d="M3 48H7.5M7.5 48H18.75M7.5 48V12.0006C7.5 8.85025 7.5 7.27393 7.99048 6.07069C8.42189 5.01226 9.10981 4.15237 9.95655 3.6131C10.9191 3 12.1802 3 14.7005 3H18.3005C20.8207 3 22.0791 3 23.0417 3.6131C23.8883 4.15237 24.5786 5.01226 25.0099 6.07069C25.5 7.27275 25.5 8.84716 25.5 11.9913V19.8756M18.75 48H43.5M18.75 48V32.1606C18.75 30.6829 18.75 29.9438 18.8917 29.2547C19.0174 28.6438 19.2241 28.0644 19.5037 27.5396C19.8189 26.9476 20.26 26.4518 21.1384 25.4654L26.317 19.6499C28.0151 17.7429 28.8649 16.7887 29.8256 16.4267C30.6725 16.1075 31.5766 16.1075 32.4235 16.4267C33.3851 16.789 34.2361 17.7437 35.9371 19.6539L41.1121 25.4654C41.9914 26.4529 42.4301 26.9473 42.7456 27.5396C43.025 28.0644 43.2316 28.6438 43.3571 29.2547C43.4989 29.9438 43.5 30.6829 43.5 32.1606V48M43.5 48H48" stroke="#2D4B4D" stroke-width="5" stroke-linecap="round" stroke-linejoin="round"/>
</g>
</svg>
