<svg width="1912" height="787" viewBox="0 0 1912 787" fill="none" xmlns="http://www.w3.org/2000/svg">
<path d="M1905.02 846.7C1892 828.235 1870.32 820.186 1867.07 807.762C1863.82 795.339 1854.07 787.839 1849.73 780.264C1845.39 772.688 1857.44 724.869 1852.98 714.377C1848.52 703.885 1826.24 698.279 1825.75 696.783C1825.25 695.287 1866.25 670.705 1865.45 660.97C1865.17 656.527 1864.63 652.102 1863.82 647.714C1863.82 647.714 1875.75 642.221 1879.8 637.487C1847.02 648.963 1810.15 652.638 1800.4 652.448C1818.92 642.221 1832.93 635.233 1837.27 628.51C1841.61 621.787 1862.73 613.776 1865.18 607.034C1856.6 609.374 1847.8 610.966 1838.89 611.787C1838.89 611.787 1864.62 605.045 1871.14 594.061C1832.37 607.318 1815.6 606.049 1806.08 604.041C1796.56 602.034 1788.88 597.678 1781.4 598.928C1773.91 600.178 1775.23 590.065 1770.82 588.815C1766.42 587.565 1769.2 578.834 1772.88 575.558C1774.84 573.478 1777.28 571.828 1780.02 570.727C1782.76 569.626 1785.73 569.103 1788.72 569.195C1796.95 569.195 1845.25 559.46 1860.72 540.995C1843.09 550.218 1822.5 549.972 1822.5 549.972C1822.5 549.972 1841.73 539.992 1848.25 524.519C1854.77 509.046 1853.93 499.804 1835.78 502.058C1817.64 504.312 1815.21 511.792 1804.6 507.304C1793.99 502.816 1785.9 500.069 1777.22 501.054C1768.54 502.039 1757.99 497.57 1753.91 493.82C1751.58 491.779 1749.9 489.193 1749.04 486.339C1749.04 486.339 1790.18 480.355 1799.19 465.128C1788.06 466.624 1769.63 471.113 1769.63 471.113C1769.63 471.113 1797.28 448.386 1802.97 427.441C1793.35 431.626 1775.47 449.22 1775.47 449.22C1775.47 449.22 1773.42 440.054 1766.94 440.243C1760.46 440.432 1758.19 443.784 1758.19 443.784C1758.19 443.784 1748.24 439.542 1745.65 435.186C1743.6 432.3 1740.54 430.142 1736.99 429.069C1736.99 429.069 1752.84 416.343 1750.66 401.874C1748.48 387.405 1737.11 388.901 1731.14 387.765C1725.18 386.628 1714.89 372.803 1711.64 364.679C1708.39 356.554 1707.16 332.995 1706.36 320.268C1705.55 307.541 1707.57 293.129 1702.69 289.966C1697.82 286.804 1701.48 268.263 1698.83 267.884C1696.17 267.505 1693.54 278.925 1692.94 294.265C1692.35 309.606 1681.96 362.576 1664.68 379.242C1667.31 379.81 1674.23 376.629 1674.23 376.629C1674.23 376.629 1661.02 393.086 1652.48 392.897C1665.89 396.268 1680.33 384.488 1680.33 384.488C1680.33 384.488 1680.75 398.332 1678.28 403.427C1675.81 408.521 1635.39 414.089 1629.48 411.097C1623.58 408.104 1616.07 405.112 1613.62 405.415C1611.18 405.718 1616.48 415.907 1625.02 420.774C1633.56 425.641 1650.43 428.823 1650.43 428.823C1650.43 428.823 1640.67 436.114 1645.34 444.542C1650.01 452.97 1653.08 452.591 1653.08 452.591C1653.08 452.591 1632.14 462.515 1628.07 474.105C1623.99 485.695 1630.51 498.062 1638.35 501.054C1635.51 506.736 1600.95 522.398 1588.98 520.523C1577.01 518.648 1574.58 520.902 1574.75 525.011C1574.91 529.121 1587.95 535.125 1604.64 534.197C1611.94 537.378 1608.28 541.298 1603.2 541.109C1615 548.419 1644.87 537.927 1644.87 537.927C1644.87 537.927 1634.3 548.23 1633.91 553.286C1654.23 552.529 1661.14 539.045 1661.14 539.045C1661.14 539.045 1659.93 558.513 1643.86 582.471C1627.8 606.428 1608.89 613.17 1608.89 613.17C1615.07 613.371 1621.26 613.182 1627.41 612.602C1625.99 620.177 1637.18 627.393 1651.21 624.4C1642.67 630.953 1643.68 640.309 1641.44 645.725C1639.19 651.141 1631.89 654.91 1623.35 656.766C1614.82 658.622 1610.85 653.357 1593.67 653.584H1589.21C1589.21 653.584 1595.03 647.714 1599.9 643.604C1604.78 639.494 1604.78 632.998 1599.49 626.749C1594.21 620.499 1586.08 622.26 1580.26 621.635C1578.68 621.545 1577.14 621.129 1575.75 620.418C1574.37 619.707 1573.17 618.718 1572.26 617.526C1572.26 617.526 1603.98 609.95 1608.98 603.795C1613.97 597.64 1631.75 572.111 1622.94 563.741C1614.14 555.37 1608.98 571.486 1596.78 566.998C1584.58 562.51 1583.92 560.881 1569.01 563.987L1576.04 558.135C1576.04 558.135 1560.74 550.275 1544.88 543.912C1529.02 537.549 1521.57 529.31 1521.57 529.31C1521.57 529.31 1528.07 520.693 1533.5 519.33C1537.09 518.445 1540.3 516.573 1542.69 513.963C1545.09 511.353 1546.56 508.131 1546.92 504.728C1548.4 495.486 1553.09 487.134 1548.4 484.881C1543.71 482.627 1529.43 489.256 1520.89 487.892C1512.36 486.528 1488.25 473.006 1482.08 467.647C1475.91 462.287 1463.56 461.776 1463.56 461.776C1463.56 461.776 1464.24 453.67 1461.4 450.545C1458.57 447.421 1471.69 436.948 1476.32 438.444C1480.95 439.94 1518.32 447.421 1533.91 436.076C1516.55 437.819 1491.35 424.6 1491.35 424.6C1491.35 424.6 1526.45 421.342 1534.04 412.744C1541.63 404.146 1552.55 395.397 1545.56 389.412C1538.56 383.428 1527.95 394.526 1521.98 391.306C1516.02 388.086 1500.57 379.337 1490.94 378.22C1520.09 375.587 1549.49 346.895 1550.7 341.536C1551.91 336.176 1550.04 330.93 1554.24 324.056C1558.43 317.181 1557.9 306.102 1557.9 306.102C1557.9 306.102 1534.1 335.532 1504.42 340.589C1474.73 345.645 1452.37 343.771 1437.32 333.108C1422.26 322.446 1427.77 302.598 1427.77 302.598C1436.51 304.441 1445.45 305.381 1454.41 305.401C1446.06 293.622 1437.52 292.485 1437.52 292.485C1437.52 292.485 1451.76 291.178 1447.81 278.547C1456.76 283.224 1486.75 276.653 1494.46 265.29C1488.48 265.763 1483.09 265.952 1483.09 265.952C1484.37 265.177 1485.44 264.139 1486.21 262.921C1486.99 261.702 1487.44 260.335 1487.55 258.926C1487.96 254.078 1466.01 244.249 1466.01 244.249C1466.01 244.249 1467.12 240.461 1464.98 238.435C1463.55 237.217 1461.74 236.437 1459.8 236.2C1459.8 236.2 1461.14 232.545 1455.23 225.803C1449.33 219.061 1442.89 218.606 1442.89 218.606C1442.89 218.606 1442.89 207.755 1443.61 207.66C1444.33 207.565 1446.86 210.842 1450.32 209.554C1453.77 208.266 1453.05 200.747 1451.04 191.771C1449.02 182.794 1437.81 170.522 1434.58 164.727C1431.35 158.931 1426.56 155.466 1426.35 145.788C1426.15 136.111 1425.63 130.524 1424.3 126.698C1422.96 122.873 1419.32 120.524 1419.21 115.089C1419.11 109.654 1416.56 92.3628 1414.34 91.6999C1412.12 91.0371 1413.41 106.472 1410.99 111.339C1408.56 116.206 1409.65 127.531 1409.46 135.77C1409.28 144.008 1408.95 151.962 1406.71 156.602C1404.47 161.242 1384.55 199.744 1384.55 199.744C1384.55 199.744 1397.47 191.373 1400.72 185.635C1397.97 199.081 1396.03 204.895 1396.03 204.895H1402.2C1402.2 204.895 1384 222.943 1375.61 228.928C1367.21 234.912 1374.52 256.389 1371.12 261.748C1367.73 267.108 1347.82 264.987 1347.82 264.987C1354.42 268.451 1361.55 271.004 1368.96 272.562C1353.78 277.183 1318.28 276.066 1307.97 266.88C1328.99 291.822 1353.51 293.205 1353.51 293.205C1353.51 293.205 1328.31 298.186 1310.42 292.826C1322.88 304.303 1347.69 314.549 1363.41 311.67C1359.48 320.647 1321.79 351.441 1321.79 351.441C1321.79 351.441 1336.56 350.191 1344.15 343.202C1344.4 347.479 1344.99 351.733 1345.92 355.929C1345.92 355.929 1356.5 346.687 1363.94 340.456C1371.39 334.226 1395.68 301.121 1395.68 301.121C1395.68 301.121 1378.88 344.68 1363.96 363.391C1349.05 382.102 1309.49 411.551 1309.49 411.551C1309.49 411.551 1319.24 412.915 1325.35 410.055C1333.35 420.528 1356.39 417.043 1356.39 417.043C1356.39 417.043 1345.53 436.379 1342.9 444.618C1340.27 452.856 1314.64 468.954 1314.64 468.954C1314.64 468.954 1329.49 446.852 1324.2 443.5C1318.91 440.148 1306.3 458.083 1284.97 460.545C1263.64 463.007 1241.78 454.75 1241.78 454.75C1241.78 454.75 1259.94 443.008 1260.29 437.705C1260.64 432.402 1237.81 427.1 1232.37 414.752C1226.94 402.404 1220.03 382.31 1220.03 382.31C1220.03 382.31 1238.55 406.021 1247.53 410.623C1256.52 415.225 1267.32 421.475 1272.34 423.729C1277.36 425.982 1301.88 425.225 1301.88 425.225L1275.59 415.869C1275.59 415.869 1305.13 413.748 1305.4 404.146C1305.67 394.544 1281.41 391.666 1264.61 373.845C1247.8 356.024 1226.53 334.907 1226.53 334.907C1226.53 334.907 1240.09 339.036 1243.75 342.653C1247.41 346.27 1260 347.52 1266.38 346.763C1272.75 346.005 1283.04 348.657 1290.63 340.646C1281.97 342.274 1276.95 339.907 1275.74 337.54C1274.52 335.172 1265.02 330.419 1258.79 328.071C1252.55 325.722 1249.04 317.844 1239.53 308.488C1230.03 299.133 1217.85 279.399 1217.85 279.399C1217.85 279.399 1237.64 277.656 1248.09 263.434C1258.54 249.211 1248.21 239.477 1246.59 239.477C1244.96 239.477 1235.89 241.484 1226.68 238.227C1217.46 234.969 1212.28 227.507 1207.96 227.621C1209.58 220.273 1200.78 211.523 1197.12 208.418C1193.46 205.312 1191.83 197.812 1192.65 196.183C1193.48 194.555 1219.39 193.324 1219.39 180.843C1219.39 168.363 1207.61 160.503 1196.62 159.632C1185.64 158.761 1190.12 139.917 1181.03 132.304C1171.94 124.691 1177.78 53.5768 1169.8 51.9481C1161.82 50.3194 1166.67 64.0498 1157.87 77.6476C1149.06 91.2454 1153.75 102.741 1153.38 115.203C1153.01 127.664 1147.03 137.171 1146.76 145.504C1146.49 153.837 1138.53 157.246 1137.13 163.855C1135.74 170.465 1137.13 173.703 1134.69 179.328C1132.24 184.953 1111.91 190.559 1111.79 195.426C1111.67 200.293 1119.24 216.258 1128.99 216.997C1110.85 220.784 1118.97 231.485 1110.97 235.348C1102.97 239.211 1086.57 245.082 1080.11 247.696C1073.65 250.309 1060.88 259.797 1061 265.915C1061.13 272.032 1078.63 276.141 1078.63 276.141L1062.18 290.497C1062.18 290.497 1079.52 287.126 1090.09 282.391C1100.66 277.656 1114.92 280.289 1114.92 280.289C1114.92 280.289 1102.45 299.758 1087.27 308.981C1072.09 318.204 1073.26 326.025 1059.97 328.203C1051.03 329.699 1045.33 327.635 1036.59 333.885C1027.84 340.134 1011.39 355.588 1006.51 355.588C1000.76 355.381 995.045 356.569 989.944 359.031C984.844 361.494 980.534 365.146 977.447 369.621C992.278 363.069 1002.85 362.33 1010.57 368.315L994.314 384.223C1003 380.259 1011.93 376.756 1021.06 373.731C1033.67 369.811 1042.82 363.448 1058.27 365.512C1052.57 378.049 1041.38 395.643 1031.83 403.389C1022.29 411.135 1000.53 423.975 992.607 435.944C1009.68 427.156 1020.05 421.911 1027.58 421.911C1035.11 421.911 1060.92 412.744 1077.99 398.332C1095.07 383.92 1122.32 355.096 1122.32 355.096C1122.32 355.096 1118.21 379.432 1109.1 395.15C1099.98 410.869 1089.6 415.737 1085.32 426.967C1081.04 438.198 1064.58 446.625 1060.12 452.042C1055.66 457.458 1040.6 462.344 1034.9 475.071C1050.35 468.518 1096.9 468.329 1096.9 468.329C1096.9 468.329 1061.93 488.347 1036.94 503.137C1011.94 517.928 983.268 523.174 974.32 522.227C965.372 521.28 937.931 523.724 929.065 529.803C943.28 530.182 951.22 530.56 955.066 535.806C958.913 541.052 964.22 536.734 972.551 540.105C980.882 543.476 993.492 544.404 1016.26 539.348C1039.03 534.291 1070.94 528.875 1070.94 528.875C1070.94 528.875 1033.34 554.139 1013.34 555.635C993.348 557.131 971.872 553.949 965.351 556.942C970.844 565.937 980.409 567.433 988.74 568.305C997.071 569.176 1009.89 576.732 1009.89 576.732L990.571 585.52C990.571 585.52 1002.77 587.963 1025.13 583.834C1047.49 579.706 1059.28 573.172 1059.28 573.172C1059.28 573.172 1057.38 584.402 1048.85 590.216C1040.31 596.03 1033.81 585.974 1021.2 595.576C1008.59 605.178 1001.82 598.076 996.947 601.068C992.072 604.06 981.767 596.826 972.407 601.807C963.048 606.788 957.226 617.279 955.601 624.533C953.976 631.786 957.843 631.275 953.174 638.187C948.504 645.1 943.814 649.418 933.653 652.05C923.491 654.683 920.426 666.633 913.514 667.012C906.603 667.391 894.816 667.959 890.146 669.265C902.756 657.656 904.546 634.457 904.546 634.457C904.546 634.457 885.024 653.717 882.577 660.27C888.748 641.331 879.326 580.368 879.326 580.368C879.326 580.368 870.193 612.355 864.084 636.881C860.433 651.657 855.922 666.242 850.569 680.572C850.569 680.572 836.54 691.935 833.907 691.935C831.274 691.935 830.348 688.658 827.181 689.511C824.013 690.363 821.298 707.654 832.673 718.714C824.218 727.255 811.341 728.183 807.536 726.138C803.73 724.092 788.015 722.88 783.695 720.892C779.375 718.903 758.681 720.02 749.137 723.202C739.592 726.384 727.991 726.63 725.687 723.884C723.383 721.138 706.721 722.634 700.2 721.27C693.679 719.907 703.183 710.286 711.452 705.911C719.721 701.537 720.4 684.075 716.883 680.969C713.365 677.864 691.129 682.712 688.681 678.337C686.233 673.962 707.379 669.228 712.542 669.739C717.705 670.25 743.603 668.148 743.603 668.148C743.603 668.148 730.438 661.027 721.223 660.042C731.508 656.425 736.815 641.199 736.959 635.422C737.103 629.646 760.06 613.378 771.785 585.558C754.711 598.53 719.474 626.976 692.63 623.737C721.655 618.056 744.056 589.648 744.056 589.648C744.056 589.648 707.729 611.106 686.727 603.132C665.724 595.159 662.742 596.637 662.742 596.637C662.742 596.637 667.555 588.001 675.886 586.126C684.217 584.251 686.356 575.463 682.592 571.619C678.828 567.774 669.591 566.657 667.555 564.043C665.519 561.43 685.636 563.57 687.878 560.767C690.121 557.964 701.702 558.703 706.885 560.199C712.069 561.695 724.473 556.411 724.473 556.411C720.699 552.919 716.062 550.319 710.958 548.836C702.319 546.317 703.224 543.685 703.738 542.946C704.252 542.207 711.555 542.189 719.598 539.764C727.641 537.34 735.951 526.754 735.951 526.754C735.951 526.754 719.927 532 704.067 530.541C688.208 529.083 680.638 526.754 678.334 524.292C676.03 521.83 671.134 521.924 671.134 521.924C671.071 518.475 669.897 515.12 667.761 512.285C664.202 507.607 654.843 505.637 655.419 501.906C655.994 498.176 668.419 499.179 673.932 488.422C679.445 477.665 667.761 472.798 662.762 468.688C657.764 464.579 651.469 458.765 651.469 458.765C651.469 458.765 672.307 464.181 683.497 459.143C672.615 455.924 655.172 444.163 649.844 438.463C644.969 433.217 646.182 415.434 646.594 400.832C647.005 386.23 651.88 335.703 650.708 335.703C649.535 335.703 643.179 362.103 641.348 372.576C639.518 383.049 633.429 390.17 631.989 394.658C630.549 399.147 633.429 412.82 628.533 419.278C623.637 425.736 605.371 434.05 605.577 436.323C605.782 438.595 595.004 442.004 595.004 442.004C595.004 442.004 615.944 445.432 622.239 442.004C628.533 438.576 625.489 450.375 622.65 453.746C619.811 457.117 617.363 464.598 616.335 471.719C615.306 478.839 607.613 475.506 603.993 480.506C600.372 485.506 597.081 486.51 597.081 488.555C597.081 490.6 607.839 492.683 608.868 496.414C609.896 500.145 600.866 514.444 592.062 518.326C583.258 522.208 572.417 525.049 571.492 529.803C570.566 534.556 574.618 539.026 574.618 539.026C574.618 539.026 575.297 546.26 580.584 546.393C585.87 546.525 557.812 552.51 548.185 547.889C538.559 543.268 543.845 559.366 549.42 562.604C554.994 565.843 556.187 571.221 562.42 573.721C568.653 576.221 579.637 573.096 579.637 573.096C579.637 573.096 573.466 597.924 568.653 597.053C563.839 596.182 557.956 587.944 553.739 580.198C549.523 572.452 543.31 563.475 538.703 560.483C534.095 557.491 518.646 530.428 517.556 521.565C516.466 512.701 510.521 494.861 510.521 494.861C510.521 494.861 527.862 512.323 537.263 515.315C546.663 518.307 560.157 514.444 560.157 514.444C560.157 514.444 545.923 507.209 537.53 502.475C550.53 507.209 587.125 490.373 587.125 490.373C587.125 490.373 567.892 487.381 555.961 488.479C557.853 484.691 599.159 474.521 601.36 458.784C588.071 457.666 568.694 464.143 568.694 464.143C568.694 464.143 568.283 460.356 560.157 458.916C552.032 457.477 535.843 454.409 529.672 446.549C523.501 438.69 506.777 412.252 510.171 406.135C513.566 400.018 520.066 394.658 518.564 387.916C524.262 395.889 539.032 394.526 545.943 394.658C555.727 394.951 565.444 393.067 574.269 389.166C560.857 386.287 536.193 383.674 536.193 383.674C536.193 383.674 558.409 383.428 568.036 375.814C574.366 370.634 580.045 364.814 584.965 358.467L559.232 364.584C559.232 364.584 561.659 354.982 557.874 353.846C554.089 352.709 538.764 355.228 529.816 342.255C520.868 329.283 512.599 317.635 512.599 317.635L515.047 309.776C515.047 309.776 528.315 315.458 536.728 311.386C545.141 307.314 552.444 298.28 552.444 298.28C552.444 298.28 578.732 292.599 579 279.569C578.732 275.782 560.178 278.831 553.945 278.319C547.712 277.808 536.851 269.342 535.638 265.062C534.424 260.782 535.823 255.423 532.799 253.699C529.775 251.976 521.547 253.453 519.51 251.521C517.474 249.59 509.822 239.23 509.822 239.23C509.822 239.23 519.654 246.143 526.628 244.59C530.841 243.65 534.931 242.291 538.826 240.537C538.826 240.537 531.976 229.61 521.135 225.992C510.295 222.375 512.907 219.818 515.52 219.572C518.132 219.326 524.53 217.944 526.628 212.148C528.726 206.353 530.454 201.202 523.954 195.672C517.453 190.142 515.931 184.726 517.556 181.449C519.181 178.173 517.145 166.582 513.278 162.511C509.41 158.439 508.814 147.549 508.917 142.682C509.02 137.815 505.358 119.956 505.358 119.956C505.358 119.956 499.989 145.883 499.331 152.151C498.673 158.42 499.722 168.117 494.847 174.347C489.971 180.578 486.31 182.832 488.079 192.187C489.848 201.543 485.899 208.664 480.221 214.648C474.544 220.633 472.754 228.132 475.881 231.503C479.007 234.875 487.935 233.871 489.971 236.617C492.008 239.363 491.74 254.324 485.364 258.566C478.987 262.809 466.665 272.543 446.28 273.301C425.895 274.058 419.991 279.91 415.239 276.672C410.488 273.433 407.649 270.668 404.132 274.778C400.614 278.887 388.148 291.254 387.675 296.368C387.202 301.481 399.75 299.985 404.132 296.86C408.513 293.735 407.526 302.352 420.403 299.36C414.581 307.598 403.597 320.325 397.096 320.192C390.596 320.06 388.971 319.7 389.239 323.431C389.506 327.162 395.204 330.419 404.008 328.923C412.812 327.427 435.049 324.056 439.78 317.067C444.511 310.079 445.745 308.469 447.37 308.583C448.995 308.697 447.37 312.371 450.764 315.192C454.159 318.014 467.838 316.707 467.838 316.707C467.838 316.707 438.155 336.782 416.412 342.274C426.43 345.778 439.183 342.161 439.183 342.161C439.183 342.161 417.214 354.887 407.197 354.887C397.179 354.887 396.767 358.675 388.231 355.493C379.694 352.312 357.725 342.237 353.796 342.521C349.867 342.805 356.655 352.388 360.852 355.001C364.291 356.697 367.142 359.25 369.08 362.368C371.006 364.791 373.469 366.811 376.306 368.293C379.143 369.775 382.288 370.686 385.536 370.966C392.18 371.591 414.334 371.477 416.042 373.352C417.749 375.227 399.976 388.503 390.411 388.124C380.846 387.746 367.455 387.575 366.22 390.189C364.986 392.802 376.506 394.488 378.563 397.309C380.62 400.131 389.959 396.552 394.011 397.309C398.063 398.067 403.37 400.662 410.076 396.931C414.854 393.934 420.577 392.482 426.347 392.802C432.231 392.802 446.671 382.519 446.671 382.519C446.671 382.519 437.517 394.488 431.634 398.616C425.751 402.745 415.178 408.71 415.178 408.71C415.178 408.71 437.949 406.817 462.14 388.503C460.72 401.987 458.89 422.195 425.751 444.466C392.612 466.738 320.451 464.674 311.298 463.177C321.254 472.344 330.202 474.976 332.855 481.529C326.383 482.354 319.822 482.411 313.334 481.699C313.334 481.699 329.4 490.316 347.892 488.062C359.284 486.601 370.22 482.97 380.003 477.4C380.003 477.4 362.127 497.437 348.304 499.861C334.48 502.285 306.011 498.933 306.011 498.933C306.011 498.933 319.834 512.19 329.605 514.463C335.704 515.607 341.503 517.833 346.679 521.015C350.525 523.25 388.148 510.713 388.148 510.713L360.996 527.473C360.996 527.473 387.428 528.401 408.575 511.944C429.721 495.486 442.31 483.309 444.552 484.805C446.794 486.301 431.943 506.698 407.155 525.22C382.368 543.741 354.084 558.154 325.635 558.722C335.591 551.241 349.949 545.882 353.755 537.643C339.664 543.003 316.07 532.53 316.07 532.53L328.083 528.382C328.083 528.382 253.145 504.804 247.859 481.226C242.572 457.647 238.088 456.019 238.088 447.534C238.046 442.391 236.191 437.4 232.801 433.311C232.801 433.311 255.84 447.667 266.413 448.159C276.986 448.652 304.509 441.966 304.509 441.966L285.79 435.679C285.79 435.679 324.874 437.932 340.693 427.194L313.684 427.1C313.684 427.1 327.363 420.358 333.616 420.471C339.87 420.585 345.136 415.49 347.563 412.119C349.99 408.748 355.298 400.131 351.081 397.897C346.864 395.662 328.721 403.256 315.576 404.885C302.432 406.514 284.885 401.646 270.754 395.813C256.622 389.98 254.092 387.083 254.092 387.083C262.637 388.62 271.424 388.62 279.969 387.083C293.114 384.469 300.025 373.731 309.385 370.625C318.744 367.519 318.6 365.247 323.064 363.997C327.528 362.747 343.531 350.039 343.531 350.039C343.531 350.039 317.242 363.012 296.508 359.508C275.773 356.005 269.396 358.012 262.361 353.391C255.326 348.77 245.555 344.168 240.268 340.551C232.875 334.954 226.421 328.381 221.117 321.044C214.206 311.935 208.775 301.064 209.742 298.072C210.709 295.08 213.404 299.076 217.97 300.08C222.537 301.083 228.543 296.084 233.686 297.087C238.828 298.091 243.971 304.814 250.903 305.439C257.835 306.064 266.496 301.443 272.05 303.545C277.603 305.647 294.553 307.333 311.75 303.678C299.819 296.557 292.373 297.315 292.373 297.315C292.373 297.315 318.929 289.323 328.145 280.724C314.466 280.346 295.891 287.694 285.729 287.088C275.567 286.482 249.916 273.13 249.916 273.13C249.916 273.13 273.222 265.384 278.241 257.771C283.26 250.158 295.171 228.587 285.811 224.345C276.452 220.103 261.435 235.064 245.699 229.572C229.963 224.08 208.775 210.425 205.361 208.323C201.946 206.221 204.147 201.221 213.897 198.588C223.648 195.956 228.543 192.604 231.999 188.684C235.455 184.763 231.485 179.877 232.102 175.01C232.719 170.143 233.727 163.647 231.176 162.946C228.626 162.246 216.242 162.946 211.881 160.882C207.52 158.818 197.338 155.825 196.618 154.424C195.898 153.023 197.75 150.788 198.86 148.061C199.971 145.334 198.058 132.152 198.058 132.152C198.058 132.152 209.845 138.61 214.514 139.273C219.184 139.936 230.971 132.815 230.971 132.815L212.889 125.448C212.889 125.448 236.504 115.979 235.044 107.949C234.632 105.714 225.807 109.843 217.764 104.408C209.721 98.9723 199.971 95.6959 199.786 88.4046C199.601 81.1133 193.368 79.5983 194.787 69.5988C196.207 59.5993 191.846 59.1069 191.949 52.7435C192.052 46.3802 189.892 41.0585 188.801 36.93C187.711 32.8014 187.403 0 187.403 0C185.51 8.73062 179.01 25.6995 178.743 34.4301C178.475 43.1607 181.725 49.4104 178.743 56.1525C175.76 62.8946 168.581 71.3032 169.116 75.981C169.65 80.6588 163.829 84.2192 163.15 88.594C162.471 92.9688 159.221 98.1958 151.096 103.177C142.971 108.157 135.092 107.93 134.64 110.165C134.187 112.4 135.586 114.54 145.604 118.649C135.553 122.489 124.977 125.038 114.172 126.225C114.172 126.225 129.621 129.482 136.8 128.857C143.979 128.232 162.286 127.607 168.787 123.176C170.679 121.926 172.901 122.929 171.214 126.3C169.527 129.671 158.625 139.898 148.175 144.008C137.725 148.118 136.265 153.477 137.335 156.621C138.404 159.765 143.979 161.355 148.73 159.746C153.482 158.136 156.054 157.625 158.357 158.117C160.016 158.491 161.741 158.539 163.421 158.259C165.101 157.978 166.698 157.375 168.108 156.488C169.589 161.355 170.535 168.59 162.286 172.719C154.038 176.847 141.263 178.078 136.944 180.824C132.624 183.57 87.3281 182.188 81.6507 179.953C92.0798 189.801 107.796 190.672 107.796 190.672C103.359 195.216 97.7789 198.689 91.545 200.785C80.9719 204.403 64.9681 199.289 61.1832 201.903C57.3983 204.516 64.2893 213.512 69.5759 217.622C74.8625 221.731 83.3991 221.125 85.847 222.868C88.2949 224.61 98.58 226.239 98.58 226.239C93.4595 230.766 87.0332 233.843 80.0668 235.102C69.0822 236.844 66.9223 242.677 67.6012 244.95C68.28 247.222 76.6727 251.446 83.0494 252.317C89.4262 253.188 96.1939 249.949 103.106 251.199C110.017 252.449 121.619 251.199 123.676 249.192C125.733 247.184 129.168 242.204 131.739 242.715C134.311 243.226 140.831 253.946 131.616 264.286C122.4 274.626 83.0906 304.057 15.7434 295.118C26.1725 306.348 57.892 307.087 57.892 307.087C57.892 307.087 39.9958 312.522 33.4956 316.821C52.194 323.374 65.6058 316.083 73.1346 317.579C80.6633 319.075 91.2159 317.579 97.8189 320.382C104.422 323.184 114.687 323.942 118.739 320.382C122.791 316.821 130.937 320.382 137.252 320.76C143.567 321.139 152.495 313.071 152.495 313.071C148.101 322.688 142.136 331.63 134.804 339.585C122.812 352.501 80.725 366.535 45.776 366.724C10.8271 366.913 0.0276531 364.281 -0.774589 368.409C-1.57683 372.538 9.38715 380.947 16.2988 385.056C23.2104 389.166 55.115 390.302 62.0266 391.42C68.9382 392.537 64.0836 397.783 51.0626 399.658C38.0416 401.533 32.5493 401.552 31.3357 404.146C30.122 406.741 43.5339 414.809 52.0706 414.638C60.6072 414.468 62.6437 410.699 69.3496 411.816C76.0556 412.934 80.725 408.029 85.415 408.029C90.1051 408.029 92.9232 411.949 98.6212 407.839C104.319 403.73 112.856 404.658 114.275 407.271C115.695 409.885 126.617 410.832 136.018 407.082C126.268 416.267 116.929 432.914 97.2018 441.72C77.4749 450.527 60.1753 447.402 52.0706 454.068C43.9658 460.734 41.7854 462.117 41.7854 465.298C41.7854 468.48 55.6087 470.166 66.984 469.787C78.3594 469.408 106.232 467.173 123.1 451.814C115.987 458.992 109.903 466.98 104.998 475.582C104.998 475.582 130.011 464.92 141.202 454.996C152.392 445.072 157.864 439.656 159.9 440.773C161.937 441.891 163.562 448.349 175.945 445.262C168.643 456.625 164.981 467.173 150.335 475.563C135.689 483.953 124.314 497.096 112.938 503.27C101.563 509.444 81.6301 522.549 54.8064 522.739C27.9827 522.928 18.4175 523.856 10.2717 522.739C2.12582 521.621 -5.58804 524.784 -5.77318 527.776C-5.95831 530.769 -1.65912 532.644 9.05802 540.333C12.4223 542.631 16.2631 544.269 20.3428 545.145C24.4224 546.021 28.654 546.117 32.7756 545.427C32.7756 545.427 16.7307 556.487 0.871034 558.154C-14.9887 559.82 -26.3846 560.218 -33.8928 561.941C-41.401 563.665 -66.0236 559.517 -66.0236 559.517C-59.1458 568.855 -49.0399 575.776 -37.3486 579.156C-18.2388 584.402 13.6658 583.474 40.7157 572.433C22.6139 586.429 -11.5329 602.242 -11.5329 602.242C-7.2152 604.734 -2.35829 606.326 2.69792 606.909C7.75414 607.491 12.8875 607.049 17.7387 605.613C33.8041 600.557 36.8485 594.383 42.1351 594.932C47.4217 595.481 52.7082 597.186 62.0472 592.319C71.3861 587.451 78.7297 588.758 83.1934 586.334C87.3076 583.635 91.1184 580.565 94.5688 577.168C92.8874 584.037 89.4771 590.446 84.6128 595.879C77.1046 603.549 77.1046 609.136 77.1046 609.136C77.1046 609.136 89.4468 603.454 101.48 599.421C113.514 595.387 153.523 565.918 153.523 565.918C144.593 584.765 129.262 600.435 109.832 610.575C77.1252 627.79 37.6508 652.107 23.8275 660.156C10.0043 668.205 -3.819 690.666 -3.819 690.666C-3.819 690.666 76.8989 658.849 101.686 643.509C54.9298 674.379 22.8196 703.393 -8.69416 709.377C-40.2079 715.362 -48.9297 718.373 -58.4949 716.309C-68.0601 714.244 -71.3102 713.127 -72.8941 718.562C-74.478 723.998 -57.8366 735.398 -53.3729 739.697C-48.9091 743.996 -22.2706 738.391 -22.2706 738.391C-22.2706 738.391 -30.8484 748.068 -29.6347 752.803C-28.4211 757.538 -8.48846 761.609 16.3193 752.803C41.1271 743.997 50.0547 735.209 53.5105 735.758C56.9663 736.308 55.1355 746.231 68.5679 745.852C82.0004 745.474 100.884 729.584 104.34 729.774C107.031 729.672 109.665 729.025 112.054 727.88C112.054 727.88 44.0276 805.262 19.6312 823.822C-4.76523 842.382 -40.537 876.641 -40.537 876.641C-54.9362 876.641 -71.1662 877.134 -70.8988 881.887C-70.6314 886.641 1908.81 881.887 1908.81 881.887C1911.44 876.201 1912.47 869.997 1911.81 863.848C1911.14 857.698 1908.81 851.801 1905.02 846.7ZM271.432 618.605L253.145 588.663L306.402 609.628L271.432 618.605Z" fill="#0F623A" fill-opacity="0.1"/>
</svg>
