<svg width="1912" height="787" viewBox="0 0 1912 787" fill="none" xmlns="http://www.w3.org/2000/svg">
<path d="M1905.01 843.504C1891.99 823.451 1870.31 814.71 1867.06 801.218C1863.81 787.726 1854.06 779.582 1849.72 771.355C1845.38 763.128 1857.43 711.197 1852.97 699.803C1848.5 688.409 1826.23 682.321 1825.73 680.696C1825.24 679.072 1866.23 652.376 1865.43 641.804C1865.15 636.979 1864.61 632.173 1863.81 627.408C1863.81 627.408 1875.74 621.443 1879.79 616.302C1847 628.765 1810.14 632.755 1800.39 632.549C1818.9 621.443 1832.91 613.854 1837.25 606.553C1841.59 599.252 1862.72 590.552 1865.16 583.23C1856.58 585.772 1847.78 587.5 1838.88 588.392C1838.88 588.392 1864.61 581.07 1871.13 569.142C1832.36 583.538 1815.59 582.161 1806.07 579.98C1796.54 577.8 1788.87 573.07 1781.38 574.427C1773.89 575.785 1775.21 564.802 1770.81 563.445C1766.41 562.087 1769.18 552.606 1772.87 549.048C1774.83 546.789 1777.26 544.997 1780 543.801C1782.74 542.606 1785.72 542.037 1788.71 542.137C1796.93 542.137 1845.23 531.566 1860.7 511.513C1843.07 521.529 1822.48 521.262 1822.48 521.262C1822.48 521.262 1841.71 510.423 1848.24 493.62C1854.76 476.817 1853.91 466.78 1835.77 469.228C1817.63 471.675 1815.2 479.799 1804.59 474.925C1793.97 470.05 1785.89 467.068 1777.21 468.138C1768.53 469.207 1757.97 464.353 1753.9 460.281C1751.57 458.065 1749.88 455.257 1749.03 452.157C1749.03 452.157 1790.17 445.658 1799.18 429.122C1788.05 430.747 1769.62 435.622 1769.62 435.622C1769.62 435.622 1797.26 410.941 1802.96 388.194C1793.33 392.74 1775.46 411.846 1775.46 411.846C1775.46 411.846 1773.4 401.892 1766.92 402.098C1760.44 402.303 1758.18 405.944 1758.18 405.944C1758.18 405.944 1748.22 401.337 1745.63 396.606C1743.58 393.471 1740.53 391.128 1736.97 389.963C1736.97 389.963 1752.83 376.142 1750.65 360.429C1748.47 344.716 1737.09 346.341 1731.13 345.107C1725.16 343.873 1714.88 328.859 1711.63 320.036C1708.38 311.213 1707.14 285.627 1706.34 271.806C1705.54 257.985 1707.56 242.334 1702.68 238.899C1697.81 235.465 1701.47 215.33 1698.81 214.918C1696.16 214.507 1693.53 226.909 1692.93 243.568C1692.33 260.227 1681.95 317.753 1664.67 335.852C1667.3 336.469 1674.21 333.013 1674.21 333.013C1674.21 333.013 1661.01 350.886 1652.47 350.68C1665.88 354.341 1680.32 341.549 1680.32 341.549C1680.32 341.549 1680.73 356.583 1678.26 362.116C1675.8 367.648 1635.38 373.695 1629.47 370.445C1623.57 367.196 1616.06 363.946 1613.61 364.275C1611.16 364.604 1616.47 375.669 1625.01 380.955C1633.54 386.24 1650.41 389.696 1650.41 389.696C1650.41 389.696 1640.66 397.614 1645.33 406.766C1650 415.918 1653.07 415.507 1653.07 415.507C1653.07 415.507 1632.13 426.284 1628.05 438.871C1623.98 451.458 1630.5 464.888 1638.34 468.138C1635.5 474.308 1600.94 491.317 1588.97 489.281C1577 487.244 1574.57 489.692 1574.73 494.155C1574.9 498.618 1587.94 505.138 1604.62 504.13C1611.93 507.585 1608.26 511.842 1603.18 511.637C1614.99 519.576 1644.86 508.181 1644.86 508.181C1644.86 508.181 1634.29 519.37 1633.89 524.861C1654.22 524.039 1661.13 509.395 1661.13 509.395C1661.13 509.395 1659.92 530.538 1643.85 556.555C1627.79 582.572 1608.88 589.894 1608.88 589.894C1615.06 590.113 1621.24 589.906 1627.39 589.277C1625.97 597.503 1637.16 605.339 1651.19 602.09C1642.66 609.206 1643.67 619.366 1641.42 625.248C1639.18 631.13 1631.88 635.223 1623.34 637.239C1614.81 639.254 1610.84 633.537 1593.66 633.783H1589.2C1589.2 633.783 1595.02 627.408 1599.89 622.945C1604.77 618.482 1604.77 611.427 1599.48 604.64C1594.19 597.853 1586.07 599.766 1580.25 599.087C1578.66 598.989 1577.12 598.538 1575.74 597.765C1574.35 596.993 1573.16 595.919 1572.25 594.624C1572.25 594.624 1603.96 586.397 1608.96 579.713C1613.96 573.029 1631.73 545.305 1622.93 536.214C1614.13 527.124 1608.96 544.626 1596.77 539.752C1584.57 534.877 1583.91 533.109 1569 536.481L1576.03 530.126C1576.03 530.126 1560.73 521.591 1544.87 514.681C1529.01 507.77 1521.56 498.824 1521.56 498.824C1521.56 498.824 1528.06 489.466 1533.49 487.985C1537.08 487.024 1540.28 484.991 1542.68 482.156C1545.08 479.322 1546.55 475.823 1546.9 472.128C1548.38 462.091 1553.07 453.021 1548.38 450.574C1543.69 448.126 1529.42 455.325 1520.88 453.844C1512.35 452.363 1488.24 437.678 1482.07 431.858C1475.89 426.037 1463.55 425.482 1463.55 425.482C1463.55 425.482 1464.23 416.679 1461.39 413.286C1458.55 409.892 1471.68 398.519 1476.31 400.144C1480.93 401.768 1518.31 409.892 1533.9 397.573C1516.54 399.465 1491.34 385.109 1491.34 385.109C1491.34 385.109 1526.44 381.572 1534.03 372.234C1541.62 362.897 1552.54 353.395 1545.55 346.896C1538.55 340.397 1527.94 352.449 1521.97 348.953C1516.01 345.456 1500.56 335.954 1490.93 334.741C1520.08 331.882 1549.47 300.723 1550.69 294.903C1551.9 289.083 1550.03 283.386 1554.23 275.92C1558.42 268.454 1557.89 256.422 1557.89 256.422C1557.89 256.422 1534.09 288.383 1504.41 293.875C1474.72 299.366 1452.36 297.33 1437.31 285.751C1422.25 274.172 1427.76 252.618 1427.76 252.618C1436.5 254.619 1445.43 255.639 1454.4 255.661C1446.05 242.869 1437.51 241.635 1437.51 241.635C1437.51 241.635 1451.75 240.216 1447.8 226.498C1456.74 231.578 1486.74 224.441 1494.45 212.101C1488.46 212.615 1483.07 212.821 1483.07 212.821C1484.36 211.978 1485.43 210.852 1486.2 209.528C1486.97 208.204 1487.43 206.72 1487.54 205.19C1487.95 199.925 1466 189.251 1466 189.251C1466 189.251 1467.11 185.138 1464.97 182.937C1463.53 181.615 1461.72 180.767 1459.79 180.51C1459.79 180.51 1461.13 176.541 1455.22 169.219C1449.32 161.897 1442.88 161.403 1442.88 161.403C1442.88 161.403 1442.88 149.619 1443.6 149.516C1444.32 149.413 1446.85 152.971 1450.31 151.572C1453.76 150.174 1453.04 142.009 1451.03 132.26C1449.01 122.511 1437.8 109.184 1434.57 102.891C1431.34 96.5972 1426.55 92.8335 1426.34 82.3238C1426.14 71.8141 1425.62 65.7469 1424.28 61.5924C1422.95 57.4379 1419.31 54.8876 1419.2 48.9849C1419.1 43.0822 1416.55 24.3046 1414.33 23.5848C1412.11 22.865 1413.4 39.627 1410.98 44.9127C1408.55 50.1983 1409.64 62.4973 1409.45 71.4439C1409.27 80.3905 1408.94 89.0286 1406.7 94.0675C1404.45 99.1064 1384.54 140.919 1384.54 140.919C1384.54 140.919 1397.46 131.828 1400.71 125.596C1397.95 140.199 1396.02 146.513 1396.02 146.513H1402.19C1402.19 146.513 1383.99 166.113 1375.59 172.612C1367.2 179.111 1374.5 202.434 1371.11 208.255C1367.72 214.075 1347.8 211.772 1347.8 211.772C1354.41 215.534 1361.54 218.306 1368.95 219.998C1353.77 225.017 1318.27 223.803 1307.96 213.828C1328.98 240.915 1353.5 242.416 1353.5 242.416C1353.5 242.416 1328.3 247.825 1310.41 242.005C1322.87 254.469 1347.68 265.595 1363.4 262.469C1359.47 272.218 1321.78 305.659 1321.78 305.659C1321.78 305.659 1336.55 304.302 1344.14 296.713C1344.39 301.357 1344.98 305.977 1345.91 310.534C1345.91 310.534 1356.49 300.497 1363.93 293.731C1371.38 286.964 1395.67 251.013 1395.67 251.013C1395.67 251.013 1378.87 298.317 1363.95 318.637C1349.04 338.957 1309.48 370.939 1309.48 370.939C1309.48 370.939 1319.23 372.42 1325.34 369.314C1333.34 380.687 1356.38 376.903 1356.38 376.903C1356.38 376.903 1345.52 397.902 1342.89 406.848C1340.26 415.795 1314.62 433.277 1314.62 433.277C1314.62 433.277 1329.48 409.275 1324.19 405.635C1318.9 401.995 1306.29 421.472 1284.96 424.145C1263.63 426.819 1241.77 417.852 1241.77 417.852C1241.77 417.852 1259.93 405.1 1260.28 399.342C1260.63 393.583 1237.8 387.824 1232.36 374.415C1226.93 361.005 1220.02 339.183 1220.02 339.183C1220.02 339.183 1238.54 364.933 1247.53 369.931C1256.51 374.929 1267.31 381.716 1272.33 384.163C1277.35 386.611 1301.87 385.788 1301.87 385.788L1275.58 375.628C1275.58 375.628 1305.12 373.324 1305.39 362.897C1305.66 352.47 1281.4 349.343 1264.6 329.99C1247.79 310.637 1226.52 287.705 1226.52 287.705C1226.52 287.705 1240.08 292.188 1243.74 296.116C1247.4 300.045 1259.99 301.402 1266.37 300.579C1272.74 299.757 1283.03 302.636 1290.62 293.936C1281.96 295.705 1276.94 293.134 1275.73 290.563C1274.51 287.993 1265.01 282.83 1258.78 280.28C1252.54 277.73 1249.03 269.174 1239.52 259.014C1230.02 248.854 1217.84 227.423 1217.84 227.423C1217.84 227.423 1237.63 225.531 1248.08 210.085C1258.53 194.64 1248.2 184.068 1246.58 184.068C1244.95 184.068 1235.88 186.248 1226.67 182.711C1217.45 179.173 1212.27 171.07 1207.95 171.193C1209.57 163.213 1200.77 153.711 1197.11 150.338C1193.45 146.965 1191.82 138.821 1192.64 137.052C1193.47 135.283 1219.39 133.947 1219.39 120.393C1219.39 106.84 1207.6 98.3043 1196.61 97.3582C1185.63 96.4121 1190.11 75.9481 1181.02 67.6802C1171.93 59.4123 1177.77 -17.8163 1169.79 -19.5851C1161.81 -21.3538 1166.66 -6.44283 1157.86 8.32418C1149.06 23.0912 1153.75 35.5753 1153.38 49.1083C1153.01 62.6413 1147.02 72.9659 1146.75 82.0153C1146.48 91.0647 1138.52 94.7667 1137.12 101.945C1135.73 109.122 1137.12 112.639 1134.68 118.748C1132.23 124.856 1111.91 130.944 1111.78 136.23C1111.66 141.515 1119.23 158.853 1128.98 159.655C1110.84 163.769 1118.96 175.389 1110.96 179.585C1102.96 183.78 1086.56 190.156 1080.1 192.994C1073.65 195.832 1060.87 206.136 1060.99 212.779C1061.12 219.423 1078.62 223.886 1078.62 223.886L1062.17 239.475C1062.17 239.475 1079.51 235.814 1090.08 230.673C1100.65 225.531 1114.91 228.39 1114.91 228.39C1114.91 228.39 1102.44 249.532 1087.26 259.549C1072.08 269.565 1073.25 278.059 1059.97 280.424C1051.02 282.049 1045.32 279.807 1036.58 286.594C1027.84 293.381 1011.38 310.164 1006.5 310.164C1000.75 309.939 995.037 311.228 989.936 313.903C984.836 316.577 980.526 320.543 977.439 325.404C992.27 318.288 1002.84 317.485 1010.56 323.985L994.306 341.261C1003 336.956 1011.92 333.152 1021.05 329.867C1033.66 325.609 1042.81 318.699 1058.26 320.941C1052.56 334.556 1041.37 353.663 1031.83 362.074C1022.28 370.486 1000.52 384.431 992.599 397.429C1009.67 387.886 1020.04 382.189 1027.57 382.189C1035.1 382.189 1060.91 372.234 1077.99 356.583C1095.06 340.932 1122.31 309.629 1122.31 309.629C1122.31 309.629 1118.2 336.057 1109.09 353.128C1099.98 370.198 1089.59 375.484 1085.31 387.68C1081.03 399.876 1064.57 409.029 1060.11 414.911C1055.65 420.793 1040.59 426.099 1034.89 439.92C1050.34 432.804 1096.89 432.598 1096.89 432.598C1096.89 432.598 1061.92 454.337 1036.93 470.4C1011.93 486.463 983.26 492.16 974.312 491.132C965.364 490.103 937.924 492.756 929.058 499.358C943.272 499.77 951.212 500.181 955.059 505.878C958.905 511.575 964.212 506.886 972.543 510.547C980.874 514.208 993.484 515.215 1016.25 509.724C1039.03 504.233 1070.93 498.351 1070.93 498.351C1070.93 498.351 1033.33 525.787 1013.33 527.412C993.34 529.036 971.864 525.581 965.344 528.831C970.836 538.6 980.401 540.225 988.732 541.171C997.063 542.117 1009.88 550.323 1009.88 550.323L990.563 559.866C990.563 559.866 1002.76 562.519 1025.12 558.036C1047.48 553.552 1059.27 546.456 1059.27 546.456C1059.27 546.456 1057.37 558.653 1048.84 564.967C1040.3 571.281 1033.8 560.36 1021.19 570.787C1008.58 581.214 1001.81 573.502 996.939 576.751C992.064 580.001 981.759 572.144 972.399 577.554C963.04 582.963 957.218 594.357 955.593 602.234C953.968 610.111 957.836 609.556 953.166 617.063C948.497 624.569 943.807 629.259 933.645 632.117C923.483 634.976 920.418 647.954 913.507 648.365C906.595 648.777 894.809 649.394 890.139 650.813C902.749 638.205 904.538 613.011 904.538 613.011C904.538 613.011 885.017 633.927 882.569 641.044C888.74 620.477 879.319 554.272 879.319 554.272C879.319 554.272 870.186 589.009 864.077 615.643C860.426 631.69 855.915 647.529 850.562 663.091C850.562 663.091 836.533 675.431 833.9 675.431C831.267 675.431 830.342 671.873 827.174 672.799C824.006 673.724 821.291 692.502 832.666 704.513C824.212 713.789 811.335 714.796 807.529 712.575C803.724 710.354 788.008 709.038 783.689 706.878C779.369 704.719 758.675 705.932 749.131 709.387C739.586 712.842 727.985 713.11 725.681 710.128C723.377 707.145 706.715 708.77 700.194 707.289C693.674 705.809 703.177 695.361 711.446 690.61C719.715 685.859 720.394 666.896 716.877 663.523C713.359 660.15 691.123 665.415 688.675 660.664C686.227 655.913 707.373 650.772 712.536 651.327C717.699 651.882 743.597 649.599 743.597 649.599C743.597 649.599 730.432 641.866 721.217 640.797C731.502 636.868 736.809 620.333 736.953 614.06C737.097 607.787 760.053 590.12 771.778 559.907C754.705 573.995 719.469 604.887 692.624 601.37C721.649 595.2 744.05 564.35 744.05 564.35C744.05 564.35 707.723 587.652 686.721 578.993C665.719 570.335 662.736 571.939 662.736 571.939C662.736 571.939 667.549 562.56 675.88 560.524C684.211 558.488 686.351 548.945 682.586 544.77C678.822 540.595 669.586 539.381 667.549 536.543C665.513 533.705 685.631 536.029 687.873 532.985C690.115 529.941 701.696 530.743 706.88 532.368C712.063 533.993 724.467 528.255 724.467 528.255C720.693 524.462 716.056 521.639 710.952 520.028C702.313 517.293 703.218 514.434 703.732 513.632C704.247 512.83 711.549 512.809 719.592 510.176C727.635 507.544 735.945 496.047 735.945 496.047C735.945 496.047 719.921 501.744 704.061 500.16C688.202 498.577 680.632 496.047 678.328 493.373C676.024 490.7 671.129 490.802 671.129 490.802C671.066 487.056 669.892 483.412 667.755 480.334C664.196 475.254 654.837 473.115 655.413 469.063C655.989 465.012 668.413 466.102 673.926 454.42C679.439 442.738 667.755 437.452 662.757 432.989C657.758 428.526 651.464 422.212 651.464 422.212C651.464 422.212 672.301 428.094 683.491 422.623C672.61 419.127 655.166 406.355 649.839 400.164C644.963 394.467 646.177 375.155 646.588 359.298C647 343.441 651.875 288.568 650.702 288.568C649.53 288.568 643.174 317.239 641.343 328.612C639.512 339.986 633.423 347.719 631.984 352.593C630.544 357.467 633.424 372.317 628.528 379.33C623.632 386.343 605.366 395.372 605.572 397.84C605.777 400.308 594.998 404.01 594.998 404.01C594.998 404.01 615.939 407.733 622.233 404.01C628.528 400.288 625.483 413.101 622.645 416.762C619.806 420.423 617.358 428.547 616.33 436.28C615.301 444.013 607.608 440.393 603.988 445.823C600.367 451.252 597.076 452.342 597.076 454.564C597.076 456.785 607.834 459.047 608.863 463.099C609.891 467.151 600.861 482.679 592.057 486.895C583.253 491.111 572.412 494.196 571.487 499.358C570.561 504.521 574.613 509.374 574.613 509.374C574.613 509.374 575.292 517.231 580.579 517.375C585.865 517.519 557.808 524.018 548.181 519C538.554 513.981 543.84 531.463 549.415 534.98C554.99 538.497 556.183 544.338 562.415 547.053C568.648 549.768 579.633 546.374 579.633 546.374C579.633 546.374 573.462 573.337 568.648 572.391C563.835 571.445 557.952 562.499 553.735 554.087C549.518 545.675 543.306 535.926 538.698 532.677C534.09 529.427 518.642 500.037 517.552 490.412C516.462 480.786 510.517 461.412 510.517 461.412C510.517 461.412 527.857 480.375 537.258 483.625C546.659 486.874 560.153 482.679 560.153 482.679C560.153 482.679 545.918 474.822 537.525 469.68C550.526 474.822 587.12 456.538 587.12 456.538C587.12 456.538 567.887 453.288 555.956 454.481C557.849 450.368 599.154 439.324 601.355 422.233C588.066 421.019 568.689 428.053 568.689 428.053C568.689 428.053 568.278 423.94 560.153 422.376C552.027 420.813 535.839 417.482 529.668 408.946C523.497 400.411 506.773 371.7 510.167 365.057C513.561 358.413 520.061 352.593 518.56 345.271C524.258 353.93 539.027 352.449 545.939 352.593C555.723 352.911 565.439 350.865 574.264 346.629C560.852 343.503 536.188 340.664 536.188 340.664C536.188 340.664 558.404 340.397 568.031 332.129C574.362 326.503 580.04 320.183 584.96 313.29L559.227 319.933C559.227 319.933 561.654 309.505 557.869 308.271C554.084 307.037 538.76 309.773 529.812 295.685C520.864 281.596 512.594 268.948 512.594 268.948L515.042 260.412C515.042 260.412 528.31 266.582 536.723 262.161C545.136 257.739 552.439 247.928 552.439 247.928C552.439 247.928 578.727 241.758 578.995 227.608C578.727 223.495 560.173 226.806 553.94 226.251C547.708 225.695 536.847 216.502 535.633 211.854C534.419 207.206 535.818 201.385 532.794 199.514C529.77 197.642 521.542 199.246 519.506 197.149C517.47 195.051 509.817 183.801 509.817 183.801C509.817 183.801 519.65 191.308 526.623 189.621C530.837 188.6 534.927 187.125 538.821 185.22C538.821 185.22 531.971 173.353 521.131 169.425C510.291 165.496 512.903 162.72 515.515 162.452C518.128 162.185 524.525 160.684 526.623 154.39C528.721 148.097 530.449 142.502 523.949 136.497C517.449 130.491 515.927 124.609 517.552 121.051C519.177 117.493 517.14 104.906 513.273 100.484C509.406 96.0625 508.809 84.2365 508.912 78.9508C509.015 73.6651 505.354 54.2706 505.354 54.2706C505.354 54.2706 499.985 82.4266 499.327 89.2343C498.668 96.0419 499.717 106.572 494.842 113.339C489.967 120.105 486.306 122.553 488.075 132.713C489.844 142.873 485.894 150.606 480.217 157.105C474.54 163.604 472.75 171.749 475.877 175.409C479.003 179.07 487.931 177.98 489.967 180.963C492.004 183.945 491.736 200.193 485.359 204.8C478.983 209.407 466.661 219.978 446.276 220.801C425.891 221.623 419.988 227.978 415.236 224.461C410.484 220.945 407.645 217.942 404.128 222.405C400.61 226.868 388.145 240.298 387.672 245.851C387.199 251.404 399.746 249.779 404.128 246.386C408.509 242.992 407.522 252.35 420.399 249.101C414.578 258.047 403.593 271.868 397.093 271.724C390.593 271.58 388.968 271.189 389.235 275.241C389.503 279.293 395.2 282.83 404.005 281.205C412.809 279.581 435.045 275.92 439.776 268.331C444.507 260.741 445.741 258.993 447.366 259.117C448.991 259.24 447.366 263.23 450.76 266.294C454.155 269.359 467.834 267.94 467.834 267.94C467.834 267.94 438.151 289.741 416.408 295.705C426.426 299.51 439.179 295.582 439.179 295.582C439.179 295.582 417.211 309.403 407.193 309.403C397.175 309.403 396.764 313.516 388.227 310.061C379.691 306.606 357.722 295.664 353.793 295.972C349.864 296.281 356.652 306.688 360.848 309.526C364.287 311.368 367.139 314.141 369.076 317.527C371.003 320.158 373.466 322.351 376.302 323.961C379.139 325.57 382.285 326.56 385.532 326.864C392.177 327.543 414.331 327.419 416.038 329.455C417.745 331.491 399.973 345.909 390.408 345.498C380.843 345.086 367.451 344.901 366.217 347.739C364.983 350.578 376.502 352.408 378.559 355.472C380.616 358.537 389.955 354.65 394.007 355.472C398.06 356.295 403.367 359.113 410.073 355.061C414.85 351.806 420.573 350.229 426.344 350.578C432.227 350.578 446.667 339.41 446.667 339.41C446.667 339.41 437.513 352.408 431.63 356.892C425.747 361.375 415.174 367.854 415.174 367.854C415.174 367.854 437.945 365.797 462.136 345.909C460.716 360.552 458.886 382.497 425.747 406.684C392.609 430.871 320.449 428.629 311.295 427.004C321.251 436.958 330.199 439.817 332.852 446.933C326.38 447.83 319.819 447.892 313.331 447.118C313.331 447.118 329.397 456.476 347.889 454.029C359.281 452.442 370.217 448.499 379.999 442.45C379.999 442.45 362.124 464.21 348.301 466.842C334.477 469.475 306.008 465.834 306.008 465.834C306.008 465.834 319.831 480.231 329.602 482.699C335.701 483.942 341.5 486.359 346.675 489.815C350.522 492.242 388.145 478.627 388.145 478.627L360.992 496.829C360.992 496.829 387.425 497.836 408.571 479.964C429.717 462.091 442.306 448.867 444.548 450.491C446.79 452.116 431.939 474.267 407.152 494.381C382.365 514.495 354.081 530.147 325.632 530.764C335.588 522.64 349.946 516.82 353.752 507.873C339.661 513.693 316.067 502.32 316.067 502.32L328.08 497.816C328.08 497.816 253.143 472.21 247.856 446.604C242.57 420.999 238.086 419.23 238.086 410.016C238.044 404.43 236.189 399.01 232.799 394.57C232.799 394.57 255.838 410.16 266.411 410.694C276.984 411.229 304.507 403.969 304.507 403.969L285.788 397.141C285.788 397.141 324.871 399.588 340.69 387.927L313.681 387.824C313.681 387.824 327.36 380.502 333.613 380.626C339.867 380.749 345.133 375.217 347.56 371.556C349.987 367.895 355.294 358.537 351.077 356.11C346.861 353.683 328.718 361.93 315.573 363.699C302.429 365.468 284.883 360.182 270.751 353.848C256.619 347.513 254.089 344.366 254.089 344.366C262.634 346.036 271.422 346.036 279.966 344.366C293.111 341.528 300.022 329.867 309.382 326.494C318.741 323.121 318.597 320.653 323.061 319.295C327.525 317.938 343.528 304.138 343.528 304.138C343.528 304.138 317.24 318.226 296.505 314.421C275.77 310.616 269.393 312.796 262.358 307.778C255.323 302.76 245.553 297.762 240.266 293.834C232.872 287.755 226.419 280.617 221.115 272.65C214.204 262.757 208.773 250.952 209.74 247.702C210.707 244.452 213.401 248.792 217.968 249.882C222.535 250.972 228.541 245.542 233.684 246.633C238.826 247.723 243.969 255.024 250.901 255.703C257.833 256.381 266.493 251.363 272.047 253.646C277.601 255.929 294.551 257.759 311.747 253.79C299.817 246.057 292.37 246.879 292.37 246.879C292.37 246.879 318.926 238.2 328.142 228.863C314.463 228.451 295.888 236.431 285.726 235.773C275.564 235.115 249.913 220.615 249.913 220.615C249.913 220.615 273.219 212.204 278.239 203.936C283.258 195.668 295.168 172.242 285.808 167.635C276.449 163.028 261.433 179.276 245.697 173.312C229.96 167.347 208.773 152.519 205.358 150.236C201.944 147.953 204.145 142.523 213.895 139.664C223.645 136.805 228.541 133.165 231.997 128.908C235.453 124.65 231.483 119.344 232.1 114.058C232.717 108.773 233.725 101.718 231.174 100.957C228.623 100.196 216.24 100.957 211.879 98.7156C207.518 96.4738 197.336 93.2242 196.616 91.7023C195.896 90.1803 197.747 87.7534 198.858 84.7918C199.969 81.8302 198.056 67.5156 198.056 67.5156C198.056 67.5156 209.843 74.5289 214.512 75.2488C219.182 75.9686 230.968 68.2355 230.968 68.2355L212.887 60.235C212.887 60.235 236.502 49.9515 235.041 41.2312C234.63 38.8043 225.805 43.2879 217.762 37.3852C209.719 31.4825 199.969 27.9244 199.784 20.0062C199.599 12.0879 193.366 10.4426 194.785 -0.41674C196.205 -11.276 191.844 -11.8108 191.947 -18.7213C192.05 -25.6317 189.89 -31.411 188.799 -35.8946C187.709 -40.3782 187.401 -76 187.401 -76C185.508 -66.5187 179.008 -48.0908 178.741 -38.6094C178.473 -29.1281 181.723 -22.341 178.741 -15.0192C175.758 -7.69741 168.579 1.43428 169.114 6.51429C169.649 11.5943 163.827 15.4609 163.148 20.2118C162.47 24.9628 159.22 30.6392 151.094 36.0483C142.969 41.4574 135.091 41.2106 134.638 43.6375C134.186 46.0644 135.584 48.3885 145.602 52.8515C135.552 57.0208 124.976 59.789 114.171 61.0782C114.171 61.0782 129.619 64.6157 136.798 63.937C143.977 63.2583 162.285 62.5796 168.785 57.7669C170.677 56.4095 172.899 57.4996 171.212 61.1605C169.525 64.8214 158.623 75.9275 148.173 80.3905C137.724 84.8535 136.263 90.6739 137.333 94.088C138.403 97.5021 143.977 99.2298 148.729 97.4816C153.481 95.7334 156.052 95.1781 158.356 95.7128C160.014 96.1191 161.739 96.1716 163.419 95.8668C165.099 95.5621 166.696 94.9069 168.106 93.9441C169.587 99.2298 170.533 107.086 162.285 111.57C154.036 116.053 141.262 117.39 136.942 120.373C132.622 123.355 87.3269 121.853 81.6495 119.426C92.0786 130.121 107.794 131.067 107.794 131.067C103.358 136.002 97.7776 139.773 91.5438 142.05C80.9707 145.978 64.9671 140.425 61.1822 143.263C57.3973 146.102 64.2883 155.871 69.5748 160.334C74.8614 164.797 83.398 164.139 85.8458 166.031C88.2937 167.923 98.5788 169.692 98.5788 169.692C93.4582 174.609 87.032 177.95 80.0656 179.317C69.0811 181.209 66.9213 187.544 67.6001 190.012C68.2789 192.48 76.6715 197.066 83.0483 198.012C89.425 198.959 96.1926 195.442 103.104 196.799C110.016 198.156 121.617 196.799 123.674 194.619C125.731 192.439 129.167 187.03 131.738 187.585C134.309 188.14 140.83 199.781 131.614 211.011C122.399 222.24 83.0894 254.201 15.7427 244.494C26.1718 256.69 57.891 257.492 57.891 257.492C57.891 257.492 39.9949 263.395 33.4948 268.063C52.193 275.179 65.6048 267.261 73.1335 268.886C80.6621 270.511 91.2146 268.886 97.8177 271.93C104.421 274.974 114.685 275.796 118.738 271.93C122.79 268.063 130.936 271.93 137.251 272.341C143.566 272.752 152.493 263.991 152.493 263.991C148.1 274.435 142.134 284.145 134.803 292.785C122.81 306.811 80.7238 322.051 45.7751 322.257C10.8264 322.463 0.0271029 319.604 -0.775133 324.087C-1.57737 328.571 9.38652 337.703 16.2981 342.166C23.2097 346.629 55.114 347.863 62.0256 349.076C68.9372 350.29 64.0826 355.987 51.0617 358.023C38.0408 360.059 32.5485 360.079 31.3349 362.897C30.1213 365.715 43.533 374.476 52.0696 374.291C60.6062 374.106 62.6427 370.013 69.3486 371.227C76.0544 372.44 80.7238 367.113 85.4138 367.113C90.1038 367.113 92.922 371.371 98.6199 366.908C104.318 362.445 112.854 363.452 114.274 366.291C115.693 369.129 126.616 370.157 136.016 366.085C126.266 376.06 116.927 394.138 97.2006 403.702C77.4738 413.265 60.1743 409.872 52.0696 417.111C43.965 424.351 41.7845 425.852 41.7845 429.308C41.7845 432.763 55.6077 434.593 66.983 434.182C78.3583 433.771 106.231 431.344 123.098 414.664C115.986 422.459 109.902 431.133 104.997 440.475C104.997 440.475 130.01 428.896 141.2 418.119C152.39 407.342 157.862 401.46 159.898 402.673C161.935 403.887 163.56 410.9 175.943 407.548C168.641 419.888 164.979 431.344 150.333 440.455C135.687 449.566 124.312 463.839 112.937 470.544C101.561 477.249 81.6289 491.481 54.8054 491.687C27.982 491.892 18.4168 492.9 10.271 491.687C2.12526 490.473 -5.58855 493.908 -5.77368 497.158C-5.95881 500.407 -1.65965 502.443 9.0574 510.793C12.4216 513.289 16.2624 515.068 20.3421 516.02C24.4217 516.971 28.6533 517.076 32.7748 516.326C32.7748 516.326 16.7301 528.337 0.870478 530.147C-14.9891 531.957 -26.385 532.389 -33.8931 534.26C-41.4012 536.132 -66.0237 531.628 -66.0237 531.628C-59.1459 541.768 -49.0401 549.285 -37.3489 552.956C-18.2392 558.653 13.6651 557.645 40.7149 545.654C22.6131 560.853 -11.5333 578.027 -11.5333 578.027C-7.2157 580.732 -2.35882 582.462 2.69735 583.094C7.75353 583.727 12.8868 583.246 17.738 581.687C33.8033 576.196 36.8477 569.491 42.1342 570.088C47.4208 570.684 52.7073 572.535 62.0461 567.25C71.385 561.964 78.7285 563.383 83.1923 560.75C87.3064 557.82 91.1171 554.485 94.5676 550.796C92.8861 558.255 89.4759 565.216 84.6116 571.116C77.1035 579.446 77.1035 585.513 77.1035 585.513C77.1035 585.513 89.4456 579.343 101.479 574.962C113.513 570.581 153.522 538.579 153.522 538.579C144.591 559.047 129.26 576.064 109.831 587.076C77.1241 605.771 37.6499 632.179 23.8268 640.92C10.0036 649.661 -3.81952 674.053 -3.81952 674.053C-3.81952 674.053 76.8978 639.501 101.685 622.842C54.9289 656.366 22.8188 687.874 -8.69465 694.373C-40.2081 700.873 -48.9299 704.143 -58.495 701.901C-68.0601 699.659 -71.3102 698.446 -72.8941 704.348C-74.478 710.251 -57.8368 722.632 -53.373 727.301C-48.9093 731.97 -22.271 725.882 -22.271 725.882C-22.271 725.882 -30.8487 736.392 -29.6351 741.533C-28.4214 746.675 -8.48895 751.097 16.3187 741.533C41.1263 731.97 50.0537 722.427 53.5095 723.023C56.9653 723.619 55.1346 734.396 68.5669 733.985C81.9992 733.574 100.883 716.318 104.338 716.524C107.03 716.413 109.663 715.711 112.052 714.467C112.052 714.467 44.0267 798.503 19.6305 818.659C-4.76575 838.815 -40.5373 876.02 -40.5373 876.02C-54.9364 876.02 -71.1662 876.555 -70.8988 881.717C-70.6314 886.879 1908.79 881.717 1908.79 881.717C1911.42 875.542 1912.45 868.805 1911.79 862.126C1911.13 855.448 1908.8 849.044 1905.01 843.504ZM271.43 595.796L253.143 563.28L306.399 586.048L271.43 595.796Z" fill="#E7F0EC"/>
</svg>
