<svg width="1920" height="723" viewBox="0 0 1920 723" fill="none" xmlns="http://www.w3.org/2000/svg">
<path d="M1955.05 919.504C1942.03 899.451 1920.35 890.71 1917.1 877.218C1913.85 863.726 1904.09 855.582 1899.75 847.355C1895.41 839.128 1907.47 787.197 1903 775.803C1898.54 764.409 1876.26 758.321 1875.77 756.696C1875.28 755.072 1916.27 728.376 1915.47 717.804C1915.19 712.979 1914.65 708.173 1913.85 703.408C1913.85 703.408 1925.78 697.443 1929.83 692.302C1897.04 704.765 1860.18 708.755 1850.43 708.549C1868.94 697.443 1882.95 689.854 1887.29 682.553C1891.63 675.252 1912.75 666.552 1915.2 659.23C1906.62 661.772 1897.82 663.5 1888.91 664.392C1888.91 664.392 1914.65 657.07 1921.17 645.142C1882.39 659.539 1865.63 658.161 1856.1 655.98C1846.58 653.8 1838.91 649.07 1831.42 650.427C1823.93 651.785 1825.25 640.802 1820.85 639.445C1816.45 638.087 1819.22 628.606 1822.9 625.048C1824.86 622.789 1827.3 620.997 1830.04 619.801C1832.78 618.606 1835.76 618.037 1838.74 618.137C1846.97 618.137 1895.27 607.566 1910.74 587.513C1893.11 597.529 1872.52 597.262 1872.52 597.262C1872.52 597.262 1891.75 586.423 1898.27 569.62C1904.79 552.817 1903.95 542.78 1885.81 545.228C1867.67 547.675 1865.24 555.799 1854.62 550.925C1844.01 546.05 1835.93 543.068 1827.24 544.138C1818.56 545.207 1808.01 540.353 1803.94 536.281C1801.61 534.065 1799.92 531.257 1799.06 528.157C1799.06 528.157 1840.2 521.658 1849.21 505.122C1838.09 506.747 1819.65 511.622 1819.65 511.622C1819.65 511.622 1847.3 486.941 1853 464.194C1843.37 468.74 1825.5 487.846 1825.5 487.846C1825.5 487.846 1823.44 477.892 1816.96 478.098C1810.48 478.303 1808.22 481.944 1808.22 481.944C1808.22 481.944 1798.26 477.337 1795.67 472.606C1793.62 469.471 1790.57 467.128 1787.01 465.963C1787.01 465.963 1802.87 452.142 1800.69 436.429C1798.51 420.716 1787.13 422.341 1781.17 421.107C1775.2 419.873 1764.92 404.859 1761.67 396.036C1758.42 387.213 1757.18 361.627 1756.38 347.806C1755.58 333.985 1757.59 318.334 1752.72 314.899C1747.84 311.465 1751.51 291.33 1748.85 290.918C1746.2 290.507 1743.57 302.909 1742.97 319.568C1742.37 336.227 1731.98 393.753 1714.71 411.852C1717.34 412.469 1724.25 409.013 1724.25 409.013C1724.25 409.013 1711.04 426.886 1702.51 426.68C1715.92 430.341 1730.36 417.549 1730.36 417.549C1730.36 417.549 1730.77 432.583 1728.3 438.116C1725.83 443.648 1685.41 449.695 1679.51 446.445C1673.61 443.196 1666.1 439.946 1663.65 440.275C1661.2 440.604 1666.51 451.669 1675.05 456.955C1683.58 462.24 1700.45 465.696 1700.45 465.696C1700.45 465.696 1690.7 473.614 1695.37 482.766C1700.04 491.918 1703.1 491.507 1703.1 491.507C1703.1 491.507 1682.16 502.284 1678.09 514.871C1674.02 527.458 1680.54 540.888 1688.38 544.138C1685.54 550.308 1650.98 567.317 1639.01 565.281C1627.04 563.244 1624.61 565.692 1624.77 570.155C1624.94 574.618 1637.98 581.138 1654.66 580.13C1661.96 583.585 1658.3 587.842 1653.22 587.637C1665.03 595.576 1694.9 584.182 1694.9 584.182C1694.9 584.182 1684.32 595.37 1683.93 600.861C1704.26 600.039 1711.17 585.395 1711.17 585.395C1711.17 585.395 1709.95 606.538 1693.89 632.555C1677.82 658.572 1658.92 665.894 1658.92 665.894C1665.1 666.113 1671.28 665.906 1677.43 665.277C1676.01 673.503 1687.2 681.339 1701.23 678.09C1692.7 685.206 1693.7 695.366 1691.46 701.248C1689.22 707.13 1681.92 711.223 1673.38 713.239C1664.84 715.254 1660.87 709.537 1643.7 709.783H1639.23C1639.23 709.783 1645.05 703.408 1649.93 698.945C1654.81 694.482 1654.81 687.427 1649.52 680.64C1644.23 673.853 1636.11 675.766 1630.29 675.087C1628.7 674.989 1627.16 674.538 1625.78 673.765C1624.39 672.993 1623.2 671.919 1622.28 670.624C1622.28 670.624 1654 662.397 1659 655.713C1664 649.029 1681.77 621.305 1672.97 612.214C1664.16 603.124 1659 620.626 1646.8 615.752C1634.61 610.877 1633.95 609.109 1619.03 612.481L1626.07 606.126C1626.07 606.126 1610.76 597.591 1594.9 590.681C1579.05 583.77 1571.6 574.824 1571.6 574.824C1571.6 574.824 1578.1 565.466 1583.53 563.985C1587.12 563.024 1590.32 560.991 1592.72 558.156C1595.12 555.322 1596.59 551.823 1596.94 548.128C1598.42 538.091 1603.11 529.021 1598.42 526.574C1593.73 524.126 1579.46 531.325 1570.92 529.844C1562.38 528.363 1538.28 513.678 1532.1 507.858C1525.93 502.037 1513.59 501.482 1513.59 501.482C1513.59 501.482 1514.27 492.679 1511.43 489.286C1508.59 485.892 1521.72 474.519 1526.34 476.144C1530.97 477.768 1568.35 485.892 1583.94 473.573C1566.58 475.465 1541.38 461.109 1541.38 461.109C1541.38 461.109 1576.47 457.572 1584.06 448.234C1591.65 438.897 1602.58 429.395 1595.58 422.896C1588.59 416.397 1577.98 428.449 1572.01 424.953C1566.04 421.456 1550.6 411.954 1540.97 410.741C1570.12 407.882 1599.51 376.723 1600.73 370.903C1601.94 365.083 1600.07 359.386 1604.26 351.92C1608.46 344.454 1607.93 332.422 1607.93 332.422C1607.93 332.422 1584.13 364.383 1554.44 369.875C1524.76 375.366 1502.4 373.33 1487.34 361.751C1472.29 350.172 1477.8 328.617 1477.8 328.617C1486.54 330.619 1495.47 331.639 1504.44 331.661C1496.09 318.869 1487.55 317.635 1487.55 317.635C1487.55 317.635 1501.78 316.216 1497.83 302.498C1506.78 307.578 1536.77 300.441 1544.49 288.101C1538.5 288.615 1533.11 288.821 1533.11 288.821C1534.39 287.978 1535.46 286.852 1536.24 285.528C1537.01 284.204 1537.47 282.72 1537.58 281.19C1537.99 275.925 1516.04 265.251 1516.04 265.251C1516.04 265.251 1517.15 261.138 1515.01 258.937C1513.57 257.615 1511.76 256.767 1509.83 256.51C1509.83 256.51 1511.16 252.541 1505.26 245.219C1499.36 237.897 1492.92 237.403 1492.92 237.403C1492.92 237.403 1492.92 225.619 1493.64 225.516C1494.36 225.413 1496.89 228.971 1500.34 227.572C1503.8 226.174 1503.08 218.009 1501.06 208.26C1499.05 198.511 1487.84 185.184 1484.61 178.891C1481.38 172.597 1476.59 168.833 1476.38 158.324C1476.17 147.814 1475.66 141.747 1474.32 137.592C1472.99 133.438 1469.34 130.888 1469.24 124.985C1469.14 119.082 1466.59 100.305 1464.37 99.5848C1462.15 98.865 1463.44 115.627 1461.01 120.913C1458.59 126.198 1459.68 138.497 1459.49 147.444C1459.31 156.391 1458.98 165.029 1456.74 170.067C1454.49 175.106 1434.58 216.919 1434.58 216.919C1434.58 216.919 1447.5 207.828 1450.75 201.596C1447.99 216.199 1446.06 222.513 1446.06 222.513H1452.23C1452.23 222.513 1434.03 242.113 1425.63 248.612C1417.24 255.111 1424.54 278.434 1421.15 284.255C1417.75 290.075 1397.84 287.772 1397.84 287.772C1404.45 291.534 1411.58 294.306 1418.99 295.998C1403.81 301.017 1368.3 299.803 1358 289.828C1379.02 316.915 1403.54 318.416 1403.54 318.416C1403.54 318.416 1378.34 323.825 1360.45 318.005C1372.91 330.469 1397.72 341.595 1413.43 338.469C1409.51 348.218 1371.82 381.659 1371.82 381.659C1371.82 381.659 1386.59 380.302 1394.18 372.713C1394.43 377.357 1395.02 381.977 1395.95 386.534C1395.95 386.534 1406.52 376.497 1413.97 369.731C1421.42 362.964 1445.71 327.013 1445.71 327.013C1445.71 327.013 1428.9 374.317 1413.99 394.637C1399.08 414.957 1359.52 446.939 1359.52 446.939C1359.52 446.939 1369.27 448.42 1375.38 445.314C1383.38 456.687 1406.42 452.903 1406.42 452.903C1406.42 452.903 1395.56 473.902 1392.93 482.849C1390.29 491.795 1364.66 509.277 1364.66 509.277C1364.66 509.277 1379.51 485.275 1374.23 481.635C1368.94 477.995 1356.33 497.472 1335 500.145C1313.67 502.819 1291.8 493.852 1291.8 493.852C1291.8 493.852 1309.97 481.1 1310.32 475.342C1310.67 469.583 1287.83 463.824 1282.4 450.415C1276.97 437.005 1270.06 415.183 1270.06 415.183C1270.06 415.183 1288.57 440.933 1297.56 445.931C1306.55 450.929 1317.35 457.716 1322.37 460.163C1327.39 462.611 1351.91 461.788 1351.91 461.788L1325.62 451.628C1325.62 451.628 1355.16 449.324 1355.43 438.897C1355.69 428.47 1331.44 425.344 1314.64 405.99C1297.83 386.637 1276.56 363.705 1276.56 363.705C1276.56 363.705 1290.12 368.188 1293.78 372.116C1297.44 376.045 1310.03 377.402 1316.41 376.579C1322.78 375.757 1333.07 378.636 1340.66 369.936C1332 371.705 1326.98 369.134 1325.76 366.563C1324.55 363.993 1315.05 358.83 1308.82 356.28C1302.58 353.73 1299.06 345.174 1289.56 335.014C1280.06 324.854 1267.88 303.423 1267.88 303.423C1267.88 303.423 1287.67 301.531 1298.12 286.085C1308.57 270.639 1298.24 260.068 1296.62 260.068C1294.99 260.068 1285.92 262.248 1276.71 258.711C1267.49 255.173 1262.31 247.07 1257.99 247.193C1259.61 239.213 1250.81 229.711 1247.15 226.338C1243.48 222.965 1241.86 214.821 1242.68 213.052C1243.5 211.283 1269.42 209.947 1269.42 196.393C1269.42 182.84 1257.64 174.304 1246.65 173.358C1235.67 172.412 1240.15 151.948 1231.06 143.68C1221.97 135.412 1227.81 58.1837 1219.83 56.4149C1211.85 54.6462 1216.7 69.5572 1207.9 84.3242C1199.09 99.0912 1203.78 111.575 1203.41 125.108C1203.04 138.641 1197.06 148.966 1196.79 158.015C1196.52 167.065 1188.56 170.767 1187.16 177.945C1185.76 185.122 1187.16 188.639 1184.72 194.748C1182.27 200.856 1161.94 206.944 1161.82 212.23C1161.7 217.515 1169.27 234.853 1179.02 235.655C1160.87 239.769 1169 251.389 1161 255.585C1153 259.78 1136.6 266.156 1130.14 268.994C1123.68 271.832 1110.91 282.136 1111.03 288.779C1111.16 295.423 1128.66 299.886 1128.66 299.886L1112.21 315.475C1112.21 315.475 1129.55 311.814 1140.12 306.673C1150.69 301.531 1164.95 304.39 1164.95 304.39C1164.95 304.39 1152.48 325.532 1137.3 335.549C1122.12 345.565 1123.29 354.059 1110 356.424C1101.06 358.049 1095.36 355.807 1086.62 362.594C1077.87 369.381 1061.42 386.164 1056.54 386.164C1050.79 385.939 1045.07 387.228 1039.97 389.903C1034.87 392.577 1030.56 396.543 1027.48 401.404C1042.31 394.288 1052.88 393.485 1060.6 399.985L1044.34 417.261C1053.03 412.956 1061.96 409.152 1071.09 405.867C1083.7 401.609 1092.85 394.699 1108.3 396.941C1102.6 410.556 1091.41 429.663 1081.86 438.074C1072.32 446.486 1050.56 460.431 1042.64 473.429C1059.71 463.886 1070.08 458.189 1077.61 458.189C1085.14 458.189 1110.95 448.234 1128.02 432.583C1145.1 416.932 1172.35 385.629 1172.35 385.629C1172.35 385.629 1168.24 412.057 1159.13 429.128C1150.01 446.198 1139.63 451.484 1135.35 463.68C1131.07 475.876 1114.61 485.029 1110.15 490.911C1105.68 496.793 1090.63 502.099 1084.93 515.92C1100.38 508.804 1146.93 508.598 1146.93 508.598C1146.93 508.598 1111.96 530.337 1086.97 546.4C1061.97 562.463 1033.3 568.16 1024.35 567.132C1015.4 566.103 987.962 568.756 979.096 575.358C993.31 575.77 1001.25 576.181 1005.1 581.878C1008.94 587.575 1014.25 582.886 1022.58 586.547C1030.91 590.208 1043.52 591.215 1066.29 585.724C1089.06 580.233 1120.97 574.351 1120.97 574.351C1120.97 574.351 1083.37 601.787 1063.37 603.412C1043.38 605.036 1021.9 601.581 1015.38 604.831C1020.87 614.6 1030.44 616.225 1038.77 617.171C1047.1 618.117 1059.92 626.323 1059.92 626.323L1040.6 635.866C1040.6 635.866 1052.8 638.519 1075.16 634.036C1097.52 629.552 1109.31 622.456 1109.31 622.456C1109.31 622.456 1107.41 634.653 1098.88 640.967C1090.34 647.281 1083.84 636.36 1071.23 646.787C1058.62 657.214 1051.85 649.502 1046.98 652.751C1042.1 656.001 1031.8 648.144 1022.44 653.554C1013.08 658.963 1007.26 670.357 1005.63 678.234C1004.01 686.111 1007.87 685.556 1003.2 693.062C998.535 700.569 993.845 705.259 983.683 708.117C973.522 710.976 970.457 723.954 963.545 724.365C956.633 724.777 944.847 725.394 940.177 726.813C952.787 714.205 954.576 689.011 954.576 689.011C954.576 689.011 935.055 709.927 932.607 717.044C938.778 696.477 929.357 630.272 929.357 630.272C929.357 630.272 920.224 665.009 914.115 691.643C910.464 707.69 905.953 723.529 900.6 739.091C900.6 739.091 886.571 751.431 883.938 751.431C881.305 751.431 880.38 747.873 877.212 748.799C874.044 749.724 871.329 768.502 882.704 780.513C874.25 789.789 861.373 790.796 857.567 788.575C853.762 786.354 838.046 785.038 833.727 782.878C829.407 780.719 808.713 781.932 799.169 785.387C789.624 788.842 778.023 789.11 775.719 786.128C773.415 783.145 756.753 784.77 750.232 783.289C743.712 781.809 753.215 771.361 761.484 766.61C769.753 761.859 770.432 742.896 766.915 739.523C763.397 736.15 741.161 741.415 738.713 736.664C736.265 731.913 757.411 726.772 762.574 727.327C767.738 727.882 793.635 725.599 793.635 725.599C793.635 725.599 780.47 717.866 771.255 716.797C781.54 712.868 786.847 696.333 786.991 690.06C787.135 683.787 810.092 666.12 821.817 635.907C804.743 649.995 769.507 680.887 742.663 677.37C771.687 671.2 794.088 640.35 794.088 640.35C794.088 640.35 757.761 663.652 736.759 654.993C715.757 646.335 712.774 647.939 712.774 647.939C712.774 647.939 717.587 638.56 725.918 636.524C734.249 634.488 736.389 624.945 732.624 620.77C728.86 616.595 719.624 615.381 717.588 612.543C715.551 609.705 735.669 612.029 737.911 608.985C740.153 605.941 751.734 606.743 756.918 608.368C762.101 609.993 774.505 604.255 774.505 604.255C770.731 600.462 766.094 597.639 760.991 596.028C752.351 593.293 753.256 590.434 753.77 589.632C754.285 588.83 761.587 588.809 769.63 586.176C777.673 583.544 785.983 572.047 785.983 572.047C785.983 572.047 769.959 577.744 754.1 576.16C738.24 574.577 730.67 572.047 728.366 569.373C726.062 566.7 721.167 566.802 721.167 566.802C721.104 563.056 719.93 559.412 717.793 556.334C714.235 551.254 704.875 549.115 705.451 545.063C706.027 541.012 718.452 542.102 723.964 530.42C729.477 518.738 717.793 513.452 712.795 508.989C707.796 504.526 701.502 498.212 701.502 498.212C701.502 498.212 722.339 504.094 733.529 498.623C722.648 495.127 705.204 482.355 699.877 476.164C695.001 470.467 696.215 451.155 696.627 435.298C697.038 419.441 701.913 364.568 700.741 364.568C699.568 364.568 693.212 393.239 691.381 404.612C689.55 415.986 683.462 423.719 682.022 428.593C680.582 433.467 683.462 448.317 678.566 455.33C673.67 462.343 655.404 471.372 655.61 473.84C655.815 476.308 645.037 480.01 645.037 480.01C645.037 480.01 665.977 483.733 672.271 480.01C678.566 476.288 675.522 489.101 672.683 492.762C669.844 496.423 667.396 504.547 666.368 512.28C665.339 520.013 657.646 516.393 654.026 521.823C650.405 527.252 647.114 528.342 647.114 530.564C647.114 532.785 657.872 535.047 658.901 539.099C659.929 543.151 650.899 558.679 642.095 562.895C633.291 567.111 622.451 570.196 621.525 575.358C620.599 580.521 624.652 585.374 624.652 585.374C624.652 585.374 625.33 593.231 630.617 593.375C635.903 593.519 607.846 600.018 598.219 595C588.592 589.981 593.879 607.463 599.453 610.98C605.028 614.497 606.221 620.338 612.453 623.053C618.686 625.768 629.671 622.374 629.671 622.374C629.671 622.374 623.5 649.337 618.686 648.391C613.873 647.445 607.99 638.499 603.773 630.087C599.556 621.675 593.344 611.926 588.736 608.677C584.128 605.427 568.68 576.037 567.59 566.412C566.5 556.786 560.555 537.412 560.555 537.412C560.555 537.412 577.896 556.375 587.296 559.625C596.697 562.874 610.191 558.679 610.191 558.679C610.191 558.679 595.956 550.822 587.564 545.68C600.564 550.822 637.158 532.538 637.158 532.538C637.158 532.538 617.925 529.288 605.994 530.481C607.887 526.368 649.192 515.324 651.393 498.233C638.104 497.019 618.727 504.053 618.727 504.053C618.727 504.053 618.316 499.94 610.191 498.376C602.066 496.813 585.877 493.482 579.706 484.946C573.535 476.411 556.811 447.7 560.205 441.057C563.599 434.413 570.099 428.593 568.598 421.271C574.296 429.93 589.065 428.449 595.977 428.593C605.761 428.911 615.477 426.865 624.302 422.629C610.89 419.503 586.227 416.664 586.227 416.664C586.227 416.664 608.442 416.397 618.069 408.129C624.4 402.503 630.078 396.183 634.998 389.29L609.265 395.933C609.265 395.933 611.692 385.505 607.907 384.271C604.123 383.037 588.798 385.773 579.85 371.685C570.902 357.596 562.633 344.948 562.633 344.948L565.08 336.412C565.08 336.412 578.348 342.582 586.761 338.161C595.174 333.739 602.477 323.928 602.477 323.928C602.477 323.928 628.766 317.758 629.033 303.608C628.766 299.495 610.211 302.806 603.978 302.251C597.746 301.695 586.885 292.502 585.671 287.854C584.457 283.206 585.856 277.385 582.832 275.514C579.809 273.642 571.581 275.246 569.544 273.149C567.508 271.051 559.856 259.801 559.856 259.801C559.856 259.801 569.688 267.308 576.661 265.621C580.875 264.6 584.965 263.125 588.859 261.22C588.859 261.22 582.01 249.353 571.169 245.424C560.329 241.496 562.941 238.72 565.553 238.452C568.166 238.185 574.563 236.684 576.661 230.39C578.759 224.097 580.487 218.502 573.987 212.497C567.487 206.491 565.965 200.609 567.59 197.051C569.215 193.493 567.178 180.906 563.311 176.484C559.444 172.062 558.848 160.237 558.95 154.951C559.053 149.665 555.392 130.271 555.392 130.271C555.392 130.271 550.023 158.427 549.365 165.234C548.707 172.042 549.756 182.572 544.88 189.339C540.005 196.105 536.344 198.553 538.113 208.713C539.882 218.873 535.932 226.606 530.255 233.105C524.578 239.604 522.788 247.749 525.915 251.409C529.041 255.07 537.969 253.98 540.005 256.963C542.042 259.945 541.774 276.193 535.398 280.8C529.021 285.406 516.699 295.978 496.314 296.801C475.929 297.623 470.026 303.978 465.274 300.461C460.522 296.945 457.684 293.942 454.166 298.405C450.649 302.868 438.183 316.298 437.71 321.851C437.237 327.404 449.785 325.779 454.166 322.386C458.547 318.992 457.56 328.35 470.437 325.101C464.616 334.047 453.631 347.868 447.131 347.724C440.631 347.58 439.006 347.189 439.273 351.241C439.541 355.293 445.239 358.83 454.043 357.205C462.847 355.581 485.083 351.92 489.814 344.331C494.545 336.741 495.78 334.993 497.405 335.117C499.03 335.24 497.405 339.23 500.799 342.294C504.193 345.359 517.872 343.94 517.872 343.94C517.872 343.94 488.189 365.741 466.446 371.705C476.464 375.51 489.218 371.582 489.218 371.582C489.218 371.582 467.249 385.403 457.231 385.403C447.213 385.403 446.802 389.516 438.265 386.061C429.729 382.606 407.76 371.664 403.831 371.972C399.902 372.281 406.69 382.688 410.886 385.526C414.325 387.368 417.177 390.141 419.114 393.527C421.041 396.158 423.504 398.351 426.341 399.961C429.177 401.57 432.323 402.56 435.571 402.864C442.215 403.543 464.369 403.419 466.076 405.455C467.783 407.491 450.011 421.909 440.446 421.497C430.881 421.086 417.489 420.901 416.255 423.739C415.021 426.578 426.54 428.408 428.597 431.472C430.654 434.537 439.993 430.65 444.046 431.472C448.098 432.295 453.405 435.113 460.111 431.061C464.888 427.806 470.611 426.229 476.382 426.578C482.265 426.578 496.705 415.41 496.705 415.41C496.705 415.41 487.551 428.408 481.668 432.892C475.785 437.375 465.212 443.854 465.212 443.854C465.212 443.854 487.983 441.797 512.174 421.909C510.755 436.552 508.924 458.497 475.785 482.684C442.647 506.871 370.487 504.629 361.333 503.004C371.289 512.958 380.237 515.817 382.89 522.933C376.418 523.83 369.858 523.892 363.369 523.118C363.369 523.118 379.435 532.476 397.927 530.029C409.319 528.442 420.255 524.499 430.037 518.45C430.037 518.45 412.162 540.21 398.339 542.842C384.515 545.475 356.046 541.834 356.046 541.834C356.046 541.834 369.87 556.231 379.64 558.699C385.739 559.942 391.538 562.359 396.714 565.815C400.56 568.242 438.183 554.627 438.183 554.627L411.03 572.829C411.03 572.829 437.463 573.836 458.609 555.964C479.755 538.091 492.344 524.867 494.586 526.491C496.829 528.116 481.977 550.267 457.19 570.381C432.403 590.495 404.119 606.147 375.67 606.764C385.626 598.64 399.984 592.82 403.79 583.873C389.699 589.693 366.105 578.32 366.105 578.32L378.118 573.816C378.118 573.816 303.181 548.21 297.895 522.604C292.608 496.999 288.124 495.23 288.124 486.016C288.082 480.43 286.227 475.01 282.837 470.57C282.837 470.57 305.876 486.16 316.449 486.694C327.022 487.229 354.545 479.969 354.545 479.969L335.826 473.141C335.826 473.141 374.909 475.588 390.728 463.927L363.719 463.824C363.719 463.824 377.398 456.502 383.652 456.626C389.905 456.749 395.171 451.217 397.598 447.556C400.025 443.895 405.332 434.537 401.116 432.11C396.899 429.683 378.756 437.93 365.612 439.699C352.467 441.468 334.921 436.182 320.789 429.848C306.657 423.513 304.127 420.366 304.127 420.366C312.672 422.036 321.46 422.036 330.005 420.366C343.149 417.528 350.06 405.867 359.42 402.494C368.779 399.121 368.635 396.653 373.099 395.295C377.563 393.938 393.566 380.138 393.566 380.138C393.566 380.138 367.278 394.226 346.543 390.421C325.808 386.616 319.431 388.796 312.396 383.778C305.362 378.76 295.591 373.762 290.304 369.834C282.91 363.755 276.457 356.617 271.153 348.65C264.242 338.757 258.811 326.952 259.778 323.702C260.745 320.452 263.44 324.792 268.006 325.882C272.573 326.972 278.579 321.542 283.722 322.633C288.864 323.723 294.007 331.024 300.939 331.703C307.871 332.381 316.531 327.363 322.085 329.646C327.639 331.929 344.589 333.759 361.785 329.79C349.855 322.057 342.408 322.879 342.408 322.879C342.408 322.879 368.964 314.2 378.18 304.863C364.501 304.451 345.926 312.431 335.764 311.773C325.603 311.115 299.952 296.615 299.952 296.615C299.952 296.615 323.258 288.204 328.277 279.936C333.296 271.668 345.206 248.242 335.846 243.635C326.487 239.028 311.471 255.276 295.735 249.312C279.998 243.347 258.811 228.519 255.397 226.236C251.982 223.953 254.183 218.523 263.933 215.664C273.683 212.805 278.579 209.165 282.035 204.908C285.491 200.65 281.521 195.344 282.138 190.058C282.755 184.773 283.763 177.718 281.212 176.957C278.661 176.196 266.278 176.957 261.917 174.716C257.556 172.474 247.374 169.224 246.654 167.702C245.934 166.18 247.786 163.753 248.896 160.792C250.007 157.83 248.094 143.516 248.094 143.516C248.094 143.516 259.881 150.529 264.55 151.249C269.22 151.969 281.006 144.235 281.006 144.235L262.925 136.235C262.925 136.235 286.54 125.952 285.079 117.231C284.668 114.804 275.843 119.288 267.8 113.385C259.757 107.482 250.007 103.924 249.822 96.0062C249.637 88.0879 243.404 86.4426 244.824 75.5833C246.243 64.724 241.882 64.1892 241.985 57.2787C242.088 50.3683 239.928 44.589 238.838 40.1054C237.747 35.6218 237.439 0 237.439 0C235.546 9.48133 229.046 27.9092 228.779 37.3906C228.511 46.8719 231.761 53.659 228.779 60.9808C225.796 68.3026 218.617 77.4343 219.152 82.5143C219.687 87.5943 213.865 91.4609 213.187 96.2118C212.508 100.963 209.258 106.639 201.132 112.048C193.007 117.457 185.129 117.211 184.676 119.637C184.224 122.064 185.623 124.388 195.64 128.851C185.59 133.021 175.014 135.789 164.209 137.078C164.209 137.078 179.657 140.616 186.836 139.937C194.015 139.258 212.323 138.58 218.823 133.767C220.715 132.41 222.937 133.5 221.25 137.16C219.563 140.821 208.661 151.927 198.212 156.391C187.762 160.854 186.301 166.674 187.371 170.088C188.441 173.502 194.015 175.23 198.767 173.482C203.519 171.733 206.09 171.178 208.394 171.713C210.052 172.119 211.777 172.172 213.457 171.867C215.137 171.562 216.734 170.907 218.144 169.944C219.625 175.23 220.571 183.086 212.323 187.57C204.074 192.053 191.3 193.39 186.98 196.373C182.66 199.355 137.365 197.853 131.688 195.426C142.117 206.121 157.832 207.067 157.832 207.067C153.396 212.002 147.816 215.773 141.582 218.05C131.009 221.978 115.005 216.425 111.22 219.263C107.435 222.102 114.326 231.871 119.613 236.334C124.899 240.797 133.436 240.139 135.884 242.031C138.332 243.923 148.617 245.692 148.617 245.692C143.496 250.609 137.07 253.95 130.104 255.317C119.119 257.209 116.959 263.544 117.638 266.012C118.317 268.48 126.71 273.066 133.086 274.012C139.463 274.959 146.231 271.442 153.142 272.799C160.054 274.156 171.655 272.799 173.712 270.619C175.769 268.439 179.205 263.03 181.776 263.585C184.347 264.14 190.868 275.781 181.653 287.011C172.437 298.24 133.128 330.201 65.7808 320.494C76.2099 332.69 107.929 333.492 107.929 333.492C107.929 333.492 90.033 339.395 83.5329 344.063C102.231 351.179 115.643 343.261 123.172 344.886C130.7 346.511 141.253 344.886 147.856 347.93C154.459 350.974 164.723 351.796 168.776 347.93C172.828 344.063 180.974 347.93 187.289 348.341C193.604 348.752 202.531 339.991 202.531 339.991C198.138 350.435 192.172 360.145 184.841 368.785C172.849 382.811 130.762 398.051 95.8133 398.257C60.8645 398.463 50.0652 395.604 49.263 400.087C48.4607 404.571 59.4246 413.703 66.3362 418.166C73.2478 422.629 105.152 423.863 112.064 425.076C118.975 426.29 114.121 431.987 101.1 434.023C88.0789 436.059 82.5866 436.079 81.373 438.897C80.1594 441.715 93.5711 450.476 102.108 450.291C110.644 450.106 112.681 446.013 119.387 447.227C126.093 448.44 130.762 443.113 135.452 443.113C140.142 443.113 142.96 447.371 148.658 442.908C154.356 438.445 162.893 439.452 164.312 442.291C165.731 445.129 176.654 446.157 186.055 442.085C176.304 452.06 166.965 470.138 147.239 479.702C127.512 489.265 110.212 485.872 102.108 493.111C94.0031 500.351 91.8226 501.852 91.8226 505.308C91.8226 508.763 105.646 510.593 117.021 510.182C128.396 509.771 156.269 507.344 173.136 490.664C166.024 498.459 159.94 507.133 155.035 516.475C155.035 516.475 180.048 504.896 191.238 494.119C202.428 483.342 207.9 477.46 209.937 478.673C211.973 479.887 213.598 486.9 225.981 483.548C218.679 495.888 215.017 507.344 200.371 516.455C185.725 525.566 174.35 539.839 162.975 546.544C151.6 553.249 131.667 567.481 104.844 567.687C78.0201 567.893 68.4549 568.9 60.3092 567.687C52.1634 566.473 44.4496 569.908 44.2644 573.158C44.0793 576.407 48.3785 578.443 59.0955 586.793C62.4597 589.289 66.3006 591.068 70.3802 592.02C74.4598 592.971 78.6914 593.076 82.8129 592.326C82.8129 592.326 66.7682 604.337 50.9086 606.147C35.049 607.957 23.6531 608.389 16.145 610.26C8.63691 612.132 -15.9856 607.628 -15.9856 607.628C-9.10781 617.768 0.997999 625.285 12.6892 628.956C31.7989 634.653 63.7032 633.645 90.753 621.654C72.6513 636.853 38.5048 654.027 38.5048 654.027C42.8224 656.732 47.6793 658.462 52.7355 659.094C57.7916 659.727 62.925 659.246 67.7761 657.688C83.8414 652.196 86.8858 645.491 92.1723 646.088C97.4589 646.684 102.745 648.535 112.084 643.25C121.423 637.964 128.767 639.383 133.23 636.75C137.344 633.82 141.155 630.485 144.606 626.796C142.924 634.255 139.514 641.216 134.65 647.116C127.142 655.446 127.142 661.513 127.142 661.513C127.142 661.513 139.484 655.343 151.517 650.962C163.551 646.581 203.56 614.579 203.56 614.579C194.629 635.047 179.298 652.064 159.869 663.076C127.162 681.771 87.688 708.179 73.8649 716.92C60.0417 725.661 46.2186 750.053 46.2186 750.053C46.2186 750.053 126.936 715.501 151.723 698.842C104.967 732.366 72.857 763.874 41.3435 770.373C9.82998 776.873 1.10824 780.143 -8.45689 777.901C-18.022 775.659 -21.2721 774.446 -22.856 780.348C-24.4399 786.251 -7.79864 798.632 -3.33492 803.301C1.12881 807.97 27.7672 801.882 27.7672 801.882C27.7672 801.882 19.1894 812.391 20.403 817.533C21.6167 822.675 41.5492 827.097 66.3568 817.533C91.1644 807.97 100.092 798.427 103.548 799.023C107.003 799.62 105.173 810.396 118.605 809.985C132.037 809.574 150.921 792.318 154.377 792.524C157.068 792.413 159.701 791.711 162.09 790.467C162.09 790.467 94.0648 874.503 69.6686 894.659C45.2724 914.815 9.50086 952.02 9.50086 952.02C-4.89825 952.02 -21.1281 952.555 -20.8607 957.717C-20.5933 962.879 1958.83 957.717 1958.83 957.717C1961.46 951.542 1962.49 944.805 1961.83 938.126C1961.17 931.448 1958.83 925.044 1955.05 919.504ZM321.468 671.796L303.181 639.28L356.437 662.048L321.468 671.796Z" fill="#2B2726" fill-opacity="0.1"/>
</svg>
