<svg width="80" height="80" viewBox="0 0 80 80" fill="none" xmlns="http://www.w3.org/2000/svg">
<g id="hands-medical_svgrepo.com" clip-path="url(#clip0_1621_56)">
<g id="Layer 2">
<g id="Medical">
<g id="Group">
<path id="Vector" d="M72 52.8333C71.0741 52.0865 70.0043 51.5384 68.8574 51.223C67.7105 50.9076 66.5109 50.8317 65.3333 50.9999L48.8333 53.9999C48.842 52.9722 48.6393 51.9537 48.238 51.0076C47.8366 50.0614 47.245 49.2079 46.5 48.4999L34.6667 36.6666H8.5C7.67647 36.6515 6.87402 36.9274 6.23384 37.4457C5.59365 37.9639 5.15675 38.6913 5 39.4999C4.92748 39.9777 4.95971 40.4655 5.09443 40.9295C5.22915 41.3936 5.46316 41.8228 5.78023 42.1874C6.0973 42.552 6.48986 42.8434 6.93071 43.0412C7.37156 43.2391 7.85015 43.3387 8.33333 43.3333H32L41.8333 53.1666C42.0985 53.4318 42.2475 53.7915 42.2475 54.1666C42.2475 54.5417 42.0985 54.9014 41.8333 55.1666C41.5681 55.4318 41.2084 55.5808 40.8333 55.5808C40.4583 55.5808 40.0985 55.4318 39.8333 55.1666L34.1667 49.4999C33.5974 48.897 32.8325 48.5159 32.0084 48.4243C31.1843 48.3327 30.3544 48.5367 29.6667 48.9999C29.265 49.2697 28.9305 49.6279 28.6888 50.0471C28.4471 50.4663 28.3047 50.9353 28.2725 51.4181C28.2404 51.9009 28.3192 52.3846 28.5031 52.8322C28.687 53.2798 28.971 53.6792 29.3333 53.9999L35.1667 59.8333C35.8937 60.5992 36.7743 61.203 37.7508 61.6051C38.7273 62.0072 39.7778 62.1986 40.8333 62.1666C41.8537 62.1621 42.8667 61.9933 43.8333 61.6666L66.5 57.6666C66.7332 57.6242 66.9727 57.632 67.2026 57.6894C67.4325 57.7469 67.6476 57.8528 67.8333 57.9999C67.9969 58.146 68.1264 58.3262 68.2128 58.5278C68.2992 58.7293 68.3403 58.9474 68.3333 59.1666C68.3412 59.5565 68.2121 59.9368 67.9684 60.2414C67.7248 60.5459 67.3821 60.7554 67 60.8333L36 66.4999L17.8333 51.6666H8.5C7.67647 51.6515 6.87402 51.9274 6.23384 52.4457C5.59365 52.9639 5.15675 53.6913 5 54.4999C4.92748 54.9777 4.95971 55.4655 5.09443 55.9295C5.22915 56.3936 5.46316 56.8228 5.78023 57.1874C6.0973 57.552 6.48986 57.8434 6.93071 58.0412C7.37156 58.2391 7.85015 58.3387 8.33333 58.3333H15.5L32.8333 72.4999C33.222 72.8277 33.6746 73.071 34.1624 73.2145C34.6502 73.3579 35.1624 73.3984 35.6667 73.3333L67.8333 67.3333C69.4468 67.1452 70.9648 66.4704 72.1854 65.3986C73.4061 64.3268 74.2715 62.9089 74.6667 61.3333C75.0929 59.8104 75.0678 58.1965 74.5944 56.6876C74.121 55.1788 73.2197 53.8398 72 52.8333Z" fill="black"/>
<path id="Vector_2" d="M43.3333 29.9998H50V36.6665C50 37.5506 50.3512 38.3984 50.9763 39.0235C51.6014 39.6486 52.4493 39.9998 53.3333 39.9998H60C60.8841 39.9998 61.7319 39.6486 62.357 39.0235C62.9821 38.3984 63.3333 37.5506 63.3333 36.6665V29.9998H70C70.8841 29.9998 71.7319 29.6486 72.357 29.0235C72.9821 28.3984 73.3333 27.5506 73.3333 26.6665V19.9998C73.3333 19.1158 72.9821 18.2679 72.357 17.6428C71.7319 17.0177 70.8841 16.6665 70 16.6665H63.3333V9.99984C63.3333 9.11578 62.9821 8.26794 62.357 7.64281C61.7319 7.01769 60.8841 6.6665 60 6.6665H53.3333C52.4493 6.6665 51.6014 7.01769 50.9763 7.64281C50.3512 8.26794 50 9.11578 50 9.99984V16.6665H43.3333C42.4493 16.6665 41.6014 17.0177 40.9763 17.6428C40.3512 18.2679 40 19.1158 40 19.9998V26.6665C40 27.5506 40.3512 28.3984 40.9763 29.0235C41.6014 29.6486 42.4493 29.9998 43.3333 29.9998Z" fill="black"/>
</g>
</g>
</g>
</g>
<defs>
<clipPath id="clip0_1621_56">
<rect width="80" height="80" fill="white"/>
</clipPath>
</defs>
</svg>
