<svg width="80" height="80" viewBox="0 0 80 80" fill="none" xmlns="http://www.w3.org/2000/svg">
<g id="parking_svgrepo.com">
<path id="Vector" d="M10.2777 73.9683C7.93294 73.9683 6.03198 72.0673 6.03198 69.7225V10.278C6.03198 7.93318 7.93294 6.03223 10.2777 6.03223H69.7236C72.0668 6.03223 73.9678 7.93318 73.9678 10.278V69.7225C73.9678 72.0673 72.0668 73.9683 69.7236 73.9683H10.2777Z" fill="black" stroke="white" stroke-width="0.600238"/>
<path id="Vector_2" d="M57.6703 56.2672C55.7611 56.2672 54.2149 54.7177 54.2149 52.8118C54.2149 50.901 55.761 49.3547 57.6703 49.3547C59.5763 49.3547 61.1257 50.9009 61.1257 52.8118C61.1257 54.7178 59.5761 56.2672 57.6703 56.2672ZM32.4588 56.2672C30.5513 56.2672 29.0034 54.7177 29.0034 52.8118C29.0034 50.901 30.5513 49.3547 32.4588 49.3547C34.368 49.3547 35.9142 50.9009 35.9142 52.8118C35.9142 54.7178 34.3681 56.2672 32.4588 56.2672ZM32.8598 38.2266L32.9638 38.215C36.9637 37.7992 41.0347 37.5879 45.0642 37.5879C49.0955 37.5879 53.1681 37.7992 57.1696 38.2166L57.2735 38.2281L59.6481 46.492H30.4737L32.8598 38.2266ZM61.7412 46.4921L58.8369 36.3734C54.3206 35.8421 49.7232 35.5698 45.0655 35.5698C40.4056 35.5698 35.81 35.8421 31.2942 36.3734L28.3883 46.4921C26.6458 46.4921 25.2415 47.9046 25.2415 49.6471V61.4077H28.3651L28.3635 66.4308C29.1275 66.7063 29.9329 66.8598 30.7941 66.8598C31.6406 66.8598 32.4706 66.7146 33.2231 66.444V61.4062L56.9059 61.4011V66.4308C57.6715 66.7063 58.4752 66.8598 59.3365 66.8598C60.183 66.8598 61.0114 66.7146 61.7655 66.444L61.7671 61.4011H64.9023V49.6471C64.9023 47.9046 63.4854 46.4921 61.7412 46.4921Z" fill="white"/>
<path id="Vector_3" d="M21.832 25.1535H23.7379C26.2807 25.1535 28.3062 24.2396 28.3062 21.3407C28.3062 18.5201 26.2806 17.6063 23.7379 17.6063H21.832V25.1535ZM14.444 12.3643H23.2613C31.7214 12.3643 35.6934 15.2245 35.6934 21.4594C35.6934 27.0603 31.6028 30.3963 24.6913 30.3963H21.832V40.0879H14.444V12.3643Z" fill="white"/>
</g>
</svg>
