<svg width="26" height="26" viewBox="0 0 26 26" fill="none" xmlns="http://www.w3.org/2000/svg">
<path id="Vector" d="M1 10.3333H25M6.33333 1V3.66667M19.6667 1V3.66667M5.26667 25H20.7333C22.2268 25 22.9736 25 23.544 24.7093C24.0457 24.4537 24.4537 24.0457 24.7093 23.544C25 22.9736 25 22.2268 25 20.7333V7.93333C25 6.43985 25 5.69312 24.7093 5.12269C24.4537 4.62092 24.0457 4.21297 23.544 3.95732C22.9736 3.66667 22.2268 3.66667 20.7333 3.66667H5.26667C3.7732 3.66667 3.02645 3.66667 2.45603 3.95732C1.95425 4.21297 1.54631 4.62092 1.29065 5.12269C1 5.69312 1 6.43985 1 7.93333V20.7333C1 22.2268 1 22.9736 1.29065 23.544C1.54631 24.0457 1.95425 24.4537 2.45603 24.7093C3.02645 25 3.77319 25 5.26667 25Z" stroke="#004F51" stroke-width="2" stroke-linecap="round" stroke-linejoin="round"/>
</svg>
