<svg width="80" height="80" viewBox="0 0 80 80" fill="none" xmlns="http://www.w3.org/2000/svg">
<circle cx="40" cy="40" r="40" fill="#004F51"/>
<path fill-rule="evenodd" clip-rule="evenodd" d="M25.5 11C24.1193 11 23 12.1193 23 13.5V16H20.5C16.3579 16 13 19.3579 13 23.5V58.5C13 62.6423 16.3579 66 20.5 66H40.7525C39.2877 64.5647 38.0742 62.874 37.184 61H20.5C19.1193 61 18 59.8807 18 58.5V36H58V36.7248C59.806 37.2623 61.49 38.0835 63 39.1367V23.5C63 19.3579 59.6422 16 55.5 16H53V13.5C53 12.1193 51.8807 11 50.5 11C49.1192 11 48 12.1193 48 13.5V16H28V13.5C28 12.1193 26.8807 11 25.5 11ZM48 23.5V21H28V23.5C28 24.8807 26.8807 26 25.5 26C24.1193 26 23 24.8807 23 23.5V21H20.5C19.1193 21 18 22.1193 18 23.5V31H58V23.5C58 22.1193 56.8807 21 55.5 21H53V23.5C53 24.8807 51.8807 26 50.5 26C49.1192 26 48 24.8807 48 23.5Z" fill="white"/>
<path d="M46.2322 52.7678C47.2084 51.7916 48.7914 51.7916 49.7677 52.7678L51.3707 54.3706L56.1182 49.6228C57.0947 48.6466 58.6774 48.6466 59.6539 49.6228C60.6302 50.5993 60.6302 52.1821 59.6539 53.1586L53.3032 59.5091C53.0872 59.7251 52.8417 59.8933 52.5794 60.0136C51.6219 60.5736 50.3719 60.4431 49.5507 59.6218L46.2322 56.3033C45.2559 55.3271 45.2559 53.7441 46.2322 52.7678Z" fill="white"/>
<path fill-rule="evenodd" clip-rule="evenodd" d="M68 53.5C68 61.7843 61.2843 68.5 53 68.5C44.7158 68.5 38 61.7843 38 53.5C38 45.2158 44.7158 38.5 53 38.5C61.2843 38.5 68 45.2158 68 53.5ZM42.9548 53.5C42.9548 59.0478 47.4522 63.5453 53 63.5453C58.5478 63.5453 63.0453 59.0478 63.0453 53.5C63.0453 47.9522 58.5478 43.4548 53 43.4548C47.4522 43.4548 42.9548 47.9522 42.9548 53.5Z" fill="white"/>
</svg>
