<svg width="55" height="58" viewBox="0 0 55 58" fill="none" xmlns="http://www.w3.org/2000/svg">
<path fill-rule="evenodd" clip-rule="evenodd" d="M12.5 0C11.1193 0 10 1.1193 10 2.5V5H7.5C3.35787 5 0 8.35787 0 12.5V47.5C0 51.6423 3.35787 55 7.5 55H27.7525C26.2877 53.5647 25.0742 51.874 24.184 50H7.5C6.1193 50 5 48.8807 5 47.5V25H45V25.7248C46.806 26.2623 48.49 27.0835 50 28.1367V12.5C50 8.35787 46.6422 5 42.5 5H40V2.5C40 1.1193 38.8807 0 37.5 0C36.1192 0 35 1.1193 35 2.5V5H15V2.5C15 1.1193 13.8807 0 12.5 0ZM35 12.5V10H15V12.5C15 13.8807 13.8807 15 12.5 15C11.1193 15 10 13.8807 10 12.5V10H7.5C6.1193 10 5 11.1193 5 12.5V20H45V12.5C45 11.1193 43.8807 10 42.5 10H40V12.5C40 13.8807 38.8807 15 37.5 15C36.1192 15 35 13.8807 35 12.5Z" fill="white"/>
<path d="M33.2322 41.7678C34.2084 40.7916 35.7914 40.7916 36.7677 41.7678L38.3707 43.3706L43.1182 38.6228C44.0947 37.6466 45.6774 37.6466 46.6539 38.6228C47.6302 39.5993 47.6302 41.1821 46.6539 42.1586L40.3032 48.5091C40.0872 48.7251 39.8417 48.8933 39.5794 49.0136C38.6219 49.5736 37.3719 49.4431 36.5507 48.6218L33.2322 45.3033C32.2559 44.3271 32.2559 42.7441 33.2322 41.7678Z" fill="white"/>
<path fill-rule="evenodd" clip-rule="evenodd" d="M55 42.5C55 50.7843 48.2843 57.5 40 57.5C31.7158 57.5 25 50.7843 25 42.5C25 34.2158 31.7158 27.5 40 27.5C48.2843 27.5 55 34.2158 55 42.5ZM29.9548 42.5C29.9548 48.0478 34.4522 52.5453 40 52.5453C45.5478 52.5453 50.0453 48.0478 50.0453 42.5C50.0453 36.9522 45.5478 32.4548 40 32.4548C34.4522 32.4548 29.9548 36.9522 29.9548 42.5Z" fill="white"/>
</svg>
