<svg width="80" height="80" viewBox="0 0 80 80" fill="none" xmlns="http://www.w3.org/2000/svg">
<circle cx="40" cy="40" r="40" fill="#004F51"/>
<path d="M36.6871 37.792C36.2644 37.2947 35.6726 37.0449 34.9093 37.0449C34.1335 37.0449 33.5368 37.2947 33.1191 37.792C32.7038 38.2917 32.495 38.9007 32.495 39.6193V40.8993C32.495 41.6083 32.7063 42.2103 33.129 42.7028C33.5517 43.1953 34.1559 43.4404 34.9441 43.4404C35.7074 43.4404 36.2942 43.1977 36.7045 42.7099C37.1148 42.2222 37.3211 41.6202 37.3211 40.8993V39.6193C37.3211 38.9007 37.1098 38.2917 36.6871 37.792ZM36.6871 37.792C36.2644 37.2947 35.6726 37.0449 34.9093 37.0449C34.1335 37.0449 33.5368 37.2947 33.1191 37.792C32.7038 38.2917 32.495 38.9007 32.495 39.6193V40.8993C32.495 41.6083 32.7063 42.2103 33.129 42.7028C33.5517 43.1953 34.1559 43.4404 34.9441 43.4404C35.7074 43.4404 36.2942 43.1977 36.7045 42.7099C37.1148 42.2222 37.3211 41.6202 37.3211 40.8993V39.6193C37.3211 38.9007 37.1098 38.2917 36.6871 37.792ZM57.4264 21.28V7.89908H49.7185V14.4967L40.7599 6.66663L10.6666 32.4411L15.2417 37.3756L19.8813 33.3666V66.6666H61.4047V33.614L65.9698 37.6231L70.6666 32.8122L57.4264 21.28ZM29.561 40.8993V39.6193C29.561 38.2036 30.0384 37.014 30.9932 36.0575C31.948 35.0987 33.2533 34.6205 34.9093 34.6205C36.5752 34.6205 37.8856 35.0963 38.8403 36.048C39.7951 37.0021 40.2725 38.1917 40.2725 39.6193V40.8993C40.2725 42.3173 39.7951 43.4998 38.8403 44.4468C37.8856 45.3937 36.5852 45.8672 34.9441 45.8672C33.2757 45.8672 31.9629 45.3937 31.0006 44.4468C30.0409 43.4998 29.561 42.3173 29.561 40.8993ZM33.6412 56.1503L45.9839 37.2448L48.1545 38.4415L35.8119 57.3471L33.6412 56.1503ZM52.4262 54.5229C52.4262 55.9505 51.9488 57.1377 50.994 58.0847C50.0392 59.0316 48.7388 59.5051 47.0953 59.5051C45.4294 59.5051 44.1141 59.0292 43.1543 58.0775C42.1945 57.1258 41.7147 55.941 41.7147 54.5229V53.2262C41.7147 51.8201 42.1945 50.6376 43.1543 49.6788C44.1141 48.7223 45.4169 48.2417 47.0605 48.2417C48.7289 48.2417 50.0392 48.7199 50.994 49.6716C51.9488 50.6233 52.4262 51.8082 52.4262 53.2262V54.5229ZM47.0605 50.6685C46.2847 50.6685 45.6905 50.916 45.2727 51.4156C44.8575 51.9129 44.6486 52.5172 44.6486 53.2262V54.5229C44.6486 55.2319 44.865 55.8339 45.3001 56.3335C45.7327 56.8308 46.332 57.0806 47.0953 57.0806C47.9059 57.0806 48.5076 56.8403 48.9004 56.3573C49.2958 55.8767 49.4922 55.2652 49.4922 54.5229V53.2262C49.4922 52.5172 49.2809 51.9129 48.8582 51.4156C48.4355 50.916 47.8362 50.6685 47.0605 50.6685ZM36.7045 42.7099C37.1148 42.2222 37.3211 41.6202 37.3211 40.8993V39.6193C37.3211 38.9007 37.1098 38.2917 36.6871 37.792C36.2644 37.2947 35.6726 37.0449 34.9093 37.0449C34.1335 37.0449 33.5368 37.2947 33.1191 37.792C32.7038 38.2917 32.495 38.9007 32.495 39.6193V40.8993C32.495 41.6083 32.7063 42.2103 33.129 42.7028C33.5517 43.1953 34.1559 43.4404 34.9441 43.4404C35.7074 43.4404 36.2942 43.1977 36.7045 42.7099ZM36.6871 37.792C36.2644 37.2947 35.6726 37.0449 34.9093 37.0449C34.1335 37.0449 33.5368 37.2947 33.1191 37.792C32.7038 38.2917 32.495 38.9007 32.495 39.6193V40.8993C32.495 41.6083 32.7063 42.2103 33.129 42.7028C33.5517 43.1953 34.1559 43.4404 34.9441 43.4404C35.7074 43.4404 36.2942 43.1977 36.7045 42.7099C37.1148 42.2222 37.3211 41.6202 37.3211 40.8993V39.6193C37.3211 38.9007 37.1098 38.2917 36.6871 37.792ZM36.6871 37.792C36.2644 37.2947 35.6726 37.0449 34.9093 37.0449C34.1335 37.0449 33.5368 37.2947 33.1191 37.792C32.7038 38.2917 32.495 38.9007 32.495 39.6193V40.8993C32.495 41.6083 32.7063 42.2103 33.129 42.7028C33.5517 43.1953 34.1559 43.4404 34.9441 43.4404C35.7074 43.4404 36.2942 43.1977 36.7045 42.7099C37.1148 42.2222 37.3211 41.6202 37.3211 40.8993V39.6193C37.3211 38.9007 37.1098 38.2917 36.6871 37.792Z" fill="white"/>
</svg>
