<svg width="80" height="80" viewBox="0 0 80 80" fill="none" xmlns="http://www.w3.org/2000/svg">
<g id="Group 10610">
<circle id="Ellipse 98" cx="40" cy="40" r="40" fill="#004F51"/>
<g id="Group 10607">
<g id="Group 10606">
<g id="Group">
<g id="Group_2">
<path id="Vector" d="M18.5355 47.9151L16.1375 45.5169C13.788 43.1674 12.3038 40.0534 11.9587 36.7486C11.9024 36.2092 11.419 35.8177 10.88 35.874C10.3406 35.9305 9.94903 36.4133 10.0054 36.9528C10.3973 40.7039 12.082 44.2387 14.7489 46.9056L17.1469 49.3036C17.3386 49.4953 17.59 49.5913 17.8413 49.5913C18.0925 49.5913 18.3439 49.4955 18.5356 49.3036C18.919 48.9202 18.919 48.2985 18.5355 47.9151Z" fill="white"/>
</g>
</g>
<g id="Group_3">
<g id="Group_4">
<path id="Vector_2" d="M50.2774 32.9264C49.8936 32.543 49.272 32.5431 48.8886 32.9267L44.7134 37.1035C44.3301 37.487 44.3302 38.1087 44.7137 38.4921C44.9055 38.6838 45.1568 38.7796 45.408 38.7796C45.6593 38.7796 45.9106 38.6836 46.1025 38.4918L50.2776 34.315C50.6611 33.9314 50.6609 33.3097 50.2774 32.9264Z" fill="white"/>
</g>
</g>
<g id="Group_5">
<g id="Group_6">
<path id="Vector_3" d="M53.2173 37.0101C52.8335 36.6264 52.2117 36.6266 51.8286 37.0102L45.0175 43.8228C44.6341 44.2062 44.6341 44.828 45.0177 45.2114C45.2095 45.4031 45.4606 45.4989 45.7119 45.4989C45.9632 45.4989 46.2146 45.403 46.4063 45.2112L53.2174 38.3986C53.6009 38.0152 53.6009 37.3934 53.2173 37.0101Z" fill="white"/>
</g>
</g>
<g id="Group_7">
<g id="Group_8">
<path id="Vector_4" d="M69.12 29.3783C68.5808 29.3214 68.0975 29.7135 68.0414 30.2529C67.6959 33.5578 66.2119 36.6718 63.8623 39.0213L51.9022 50.9813C51.6187 51.2647 51.242 51.4208 50.8411 51.4208C50.4402 51.4208 50.0635 51.2647 49.7799 50.9811C49.4965 50.6977 49.3404 50.3209 49.3404 49.92C49.3404 49.5191 49.4965 49.1422 49.7799 48.8589C49.7818 48.857 49.7832 48.8551 49.7849 48.8534L57.4633 41.1749C57.8468 40.7915 57.8468 40.1697 57.4633 39.7862C57.0797 39.4028 56.4581 39.4028 56.0746 39.7862L47.0436 48.8172C46.8773 48.341 46.6044 47.8942 46.2245 47.5143L41.6523 42.9422L44.0075 40.587C44.391 40.2035 44.391 39.5817 44.0075 39.1983C43.6241 38.815 43.0024 38.8146 42.6187 39.1983L40.2636 41.5534L32.7443 34.0342C32.7252 34.0151 32.6857 33.9756 32.7173 33.8988C32.749 33.8222 32.8051 33.8221 32.8319 33.8221L37.0494 33.8154C39.0673 33.8122 40.7064 32.168 40.7031 30.15C40.6999 28.1345 39.0586 26.4963 37.0437 26.4963C37.0425 26.4963 37.0412 26.4963 37.0401 26.4963L20.61 26.5118C20.0675 26.5123 19.6284 26.9524 19.6289 27.4947C19.6294 28.0366 20.0689 28.4758 20.6108 28.4758C20.611 28.4758 20.6115 28.4758 20.6117 28.4758L37.0419 28.4603C37.0425 28.4603 37.043 28.4603 37.0434 28.4603C37.9769 28.4603 38.7375 29.2194 38.7391 30.1532C38.7405 31.0881 37.981 31.85 37.0462 31.8515L32.8289 31.8581C31.9821 31.8594 31.2258 32.366 30.9023 33.1487C30.5788 33.9314 30.7568 34.824 31.3556 35.423L44.8357 48.9031C45.4193 49.4866 45.4206 50.4347 44.8405 51.0203L44.8353 51.0254C44.8344 51.0264 44.8338 51.0273 44.8329 51.0281C44.5496 51.31 44.1741 51.4654 43.7743 51.4654C43.3734 51.4654 42.9967 51.3093 42.7132 51.0258L31.1105 39.4231C30.727 39.0394 30.1052 39.0396 29.7218 39.4231C29.3384 39.8065 29.3384 40.4283 29.7218 40.8117L43.5353 54.6253C44.1205 55.2104 44.1205 56.1627 43.5353 56.7478C43.2518 57.0313 42.875 57.1874 42.4741 57.1874C42.0732 57.1874 41.6964 57.0313 41.413 56.7478L28.1708 43.5055C27.7874 43.1221 27.1656 43.1221 26.7821 43.5055C26.3987 43.889 26.3987 44.5107 26.7821 44.8942L37.2871 55.3991C37.8718 55.9843 37.8717 56.9363 37.2866 57.5211C36.7014 58.1063 35.7492 58.1063 35.1641 57.5211L23.9248 46.2818C23.5414 45.8984 22.9196 45.8984 22.5361 46.2818C22.1526 46.6652 22.1526 47.287 22.5361 47.6705L30.2202 55.3547C30.8052 55.9399 30.8051 56.892 30.2201 57.477C29.9366 57.7604 29.5597 57.9165 29.1588 57.9165C28.7579 57.9165 28.3809 57.7604 28.0975 57.477L21.0002 50.3794C20.6168 49.9959 19.995 49.9959 19.6116 50.3794C19.2281 50.7628 19.2281 51.3846 19.6116 51.7681L26.7089 58.8654C27.3633 59.5199 28.2334 59.8802 29.1588 59.8802C30.0842 59.8802 30.9544 59.5199 31.6087 58.8654C31.9887 58.4855 32.2618 58.0386 32.428 57.5623L33.7754 58.9097C34.4509 59.5852 35.3382 59.9228 36.2253 59.9228C37.1126 59.9228 37.9998 59.5849 38.6753 58.9097C39.0552 58.5298 39.3283 58.0827 39.4945 57.6065L40.0242 58.1361C40.6786 58.7905 41.5487 59.1509 42.4741 59.1509C43.3997 59.1509 44.2698 58.7905 44.9242 58.136C46.275 56.7851 46.275 54.587 44.9242 53.2362L44.9224 53.2344C45.4069 53.0649 45.8508 52.7876 46.2245 52.4139C46.2279 52.4105 46.2309 52.407 46.2343 52.4036L47.5705 51.0674C47.7401 51.5518 48.0175 51.9961 48.3912 52.3697C49.0455 53.0242 49.9157 53.3845 50.8411 53.3845C51.7666 53.3845 52.6367 53.0242 53.2911 52.3697L65.2512 40.4098C67.918 37.7429 69.6026 34.2082 69.9946 30.4569C70.0509 29.9176 69.6594 29.4347 69.12 29.3783Z" fill="white"/>
</g>
</g>
<g id="Group_9">
<g id="Group_10">
<path id="Vector_5" d="M62.7165 31.4088C62.5212 30.903 61.9529 30.6511 61.4468 30.8464C59.9294 31.432 58.2937 31.5499 56.7158 31.1879C56.1872 31.0665 55.6603 31.3966 55.539 31.9251C55.4177 32.4537 55.7477 32.9807 56.2762 33.1019C57.0201 33.2728 57.7739 33.3578 58.5264 33.3578C59.7576 33.3578 60.9845 33.1301 62.154 32.6785C62.66 32.4832 62.9117 31.9148 62.7165 31.4088Z" fill="white"/>
</g>
</g>
</g>
<g id="Group_11">
<g id="Group_12">
<path id="Vector_6" d="M59.3897 20.0156L42.9267 20C42.9255 20 42.9245 20 42.9234 20C40.9266 20 39.2999 21.6237 39.2967 23.6206L39.2966 23.6866C39.2951 24.6553 39.6708 25.5666 40.3548 26.2527C41.0386 26.9391 41.9488 27.3178 42.9176 27.3192L47.4668 27.3263L38.4524 36.3407C38.0689 36.7242 38.0689 37.346 38.4524 37.7294C38.6441 37.9211 38.8955 38.0171 39.1467 38.0171C39.398 38.0171 39.6493 37.9212 39.841 37.7294L49.5434 28.0271C50.3973 29.5491 51.6226 30.8117 53.147 31.722C53.3047 31.8162 53.4783 31.8611 53.6496 31.8611C53.9838 31.8611 54.3097 31.6904 54.4936 31.3825C54.7715 30.917 54.6196 30.314 54.154 30.0359C52.5864 29.0998 51.4093 27.7021 50.7501 25.9943C50.7494 25.9924 50.7482 25.991 50.7476 25.9891C50.6045 25.625 50.2507 25.3665 49.8356 25.3659L42.9206 25.355C42.4764 25.3543 42.0593 25.1806 41.7456 24.8661C41.432 24.5514 41.2598 24.1337 41.2605 23.69L41.2607 23.624C41.2621 22.7083 42.0078 21.9638 42.9234 21.9638C42.9239 21.9638 42.9245 21.9638 42.9249 21.9638L59.3879 21.9794C59.3882 21.9794 59.3886 21.9794 59.3889 21.9794C59.9307 21.9794 60.3703 21.5403 60.3708 20.9983C60.3712 20.4561 59.932 20.0162 59.3897 20.0156Z" fill="white"/>
</g>
</g>
</g>
</g>
</svg>
