<svg width="80" height="80" viewBox="0 0 80 80" fill="none" xmlns="http://www.w3.org/2000/svg">
<g id="Group 10599">
<circle id="Ellipse 95" cx="40" cy="40" r="40" fill="#004F51"/>
<path id="Vector" d="M40 34.7462C43.4035 34.7462 46.6676 33.4075 49.0742 31.0245C51.4809 28.6416 52.8329 25.4097 52.8329 22.0398C52.8329 18.6698 51.4809 15.4379 49.0742 13.055C46.6676 10.6721 43.4035 9.33337 40 9.33337C36.5965 9.33337 33.3324 10.6721 30.9258 13.055C28.5191 15.4379 27.1671 18.6698 27.1671 22.0398C27.1671 25.4097 28.5191 28.6416 30.9258 31.0245C33.3324 33.4075 36.5965 34.7462 40 34.7462ZM40 40.3288C22.9378 40.3288 12 49.6516 12 54.1907V62.6667H68V54.1907C68 48.7014 57.6451 40.3288 40 40.3288Z" fill="white"/>
</g>
</svg>
