<svg width="45" height="45" viewBox="0 0 45 45" fill="none" xmlns="http://www.w3.org/2000/svg">
<path d="M44.2012 20.5116L24.4903 0.824063C23.9405 0.274922 23.2197 0 22.4995 0C21.7793 0 21.0585 0.274922 20.5087 0.824063L0.797751 20.5116C-0.301838 21.6127 -0.246929 23.3353 0.85266 24.4336C1.95507 25.5375 3.56643 25.6999 4.66954 24.5981L5.63116 23.637V42.1875C5.63116 43.7421 6.89054 45 8.44701 45H19.7104V33.75H25.3421V45H36.6055C38.162 45 39.4213 43.7421 39.4213 42.1875V23.6918L40.2626 24.532C41.3622 25.6303 43.0425 25.5319 44.1456 24.4329C45.2459 23.3353 45.3037 21.6098 44.2012 20.5116Z" fill="white"/>
</svg>
