<svg width="45" height="45" viewBox="0 0 45 45" fill="none" xmlns="http://www.w3.org/2000/svg">
<g clip-path="url(#clip0_442_1055)">
<path d="M8.42083 0.982422C8.17269 0.982447 7.93472 1.08103 7.75926 1.25649C7.5838 1.43196 7.48521 1.66993 7.48519 1.91807V5.17822L1.32672 9.57686C1.20558 9.66358 1.10689 9.77797 1.03887 9.91051C0.970854 10.0431 0.935464 10.1899 0.935648 10.3389V14.0815C0.935673 14.3296 1.03426 14.5676 1.20972 14.7431C1.38518 14.9185 1.62315 15.0171 1.8713 15.0171H22.4556C22.7037 15.0171 22.9417 14.9185 23.1171 14.7431C23.2926 14.5676 23.3912 14.3296 23.3912 14.0815V10.3389C23.3914 10.1899 23.356 10.0431 23.288 9.91051C23.22 9.77797 23.1213 9.66358 23.0001 9.57686L16.8417 5.18005V1.91807C16.8416 1.66993 16.7431 1.43196 16.5676 1.25649C16.3921 1.08103 16.1542 0.982447 15.906 0.982422H8.42083ZM9.35648 2.85372H14.9704V5.66066C14.9702 5.80964 15.0056 5.95651 15.0736 6.08906C15.1416 6.2216 15.2403 6.33599 15.3614 6.4227L21.5199 10.8195V13.1458H2.80694V10.8195L8.96541 6.4227C9.08655 6.33599 9.18524 6.2216 9.25325 6.08906C9.32128 5.95651 9.35667 5.80964 9.35648 5.66066V2.85372ZM5.14606 20.631C4.53393 20.631 4.02123 21.0222 3.82848 21.5667H0.935648C0.687506 21.5667 0.449535 21.6653 0.274072 21.8408C0.0986097 22.0162 2.48104e-05 22.2542 0 22.5023L0 43.0866C2.48104e-05 43.3347 0.0986097 43.5727 0.274072 43.7482C0.449535 43.9236 0.687506 44.0222 0.935648 44.0222H44.065C44.3131 44.0222 44.5511 43.9236 44.7266 43.7482C44.902 43.5727 45.0006 43.3347 45.0007 43.0866V22.5023C45.0006 22.2542 44.902 22.0162 44.7266 21.8408C44.5511 21.6653 44.3131 21.5667 44.065 21.5667H20.4984C20.3056 21.0222 19.7929 20.631 19.1808 20.631H5.14606ZM1.8713 23.438H5.14606H19.1808H22.5451V42.1509H1.8713V23.438ZM24.4164 23.438H43.1294V29.0519H24.4164V23.438ZM4.67824 25.3093C4.4301 25.3093 4.19213 25.4079 4.01666 25.5833C3.8412 25.7588 3.74262 25.9968 3.74259 26.2449V39.344C3.74262 39.5921 3.8412 39.8301 4.01666 40.0056C4.19213 40.181 4.4301 40.2796 4.67824 40.2796H19.6486C19.8968 40.2796 20.1347 40.181 20.3102 40.0056C20.4856 39.8301 20.5842 39.5921 20.5843 39.344V26.2449C20.5842 25.9968 20.4856 25.7588 20.3102 25.5833C20.1347 25.4079 19.8968 25.3093 19.6486 25.3093H4.67824ZM28.0694 25.3093C27.9455 25.3075 27.8224 25.3304 27.7073 25.3767C27.5923 25.4229 27.4875 25.4915 27.3992 25.5786C27.3109 25.6656 27.2408 25.7694 27.193 25.8838C27.1451 25.9982 27.1205 26.1209 27.1205 26.2449C27.1205 26.3689 27.1451 26.4917 27.193 26.6061C27.2408 26.7205 27.3109 26.8242 27.3992 26.9113C27.4875 26.9983 27.5923 27.067 27.7073 27.1132C27.8224 27.1594 27.9455 27.1823 28.0694 27.1806H39.2972C39.4212 27.1823 39.5443 27.1594 39.6594 27.1132C39.7744 27.067 39.8791 26.9983 39.9674 26.9113C40.0557 26.8242 40.1258 26.7205 40.1737 26.6061C40.2216 26.4917 40.2462 26.3689 40.2462 26.2449C40.2462 26.1209 40.2216 25.9982 40.1737 25.8838C40.1258 25.7694 40.0557 25.6656 39.9674 25.5786C39.8791 25.4915 39.7744 25.4229 39.6594 25.3767C39.5443 25.3304 39.4212 25.3075 39.2972 25.3093H28.0694ZM5.61389 27.1806H18.713V38.4083H5.61389V27.1806ZM24.4164 30.9232H43.1294V42.1509H24.4164V30.9232ZM28.0548 33.7173C27.807 33.7212 27.5708 33.8232 27.3982 34.001C27.2255 34.1789 27.1304 34.4179 27.1338 34.6658V39.344C27.132 39.468 27.1549 39.5911 27.2012 39.7061C27.2474 39.8212 27.3161 39.9259 27.4031 40.0142C27.4902 40.1025 27.5939 40.1726 27.7083 40.2205C27.8227 40.2683 27.9454 40.293 28.0694 40.293C28.1934 40.293 28.3162 40.2683 28.4306 40.2205C28.545 40.1726 28.6487 40.1025 28.7358 40.0142C28.8228 39.9259 28.8915 39.8212 28.9377 39.7061C28.9839 39.5911 29.0068 39.468 29.0051 39.344V34.6658C29.0068 34.5406 28.9834 34.4163 28.9362 34.3004C28.889 34.1844 28.8191 34.0791 28.7305 33.9906C28.6419 33.9022 28.5364 33.8324 28.4204 33.7855C28.3043 33.7385 28.18 33.7154 28.0548 33.7173Z" fill="white"/>
</g>
<defs>
<clipPath id="clip0_442_1055">
<rect width="45" height="45" fill="white"/>
</clipPath>
</defs>
</svg>
