<svg width="56" height="122" viewBox="0 0 56 122" fill="none" xmlns="http://www.w3.org/2000/svg">
<path id="Vector 9" d="M55.3386 2C55.3386 1.17157 54.667 0.5 53.8386 0.5C53.0101 0.5 52.3386 1.17157 52.3386 2H55.3386ZM45.879 46.6763L44.4289 46.2925L45.879 46.6763ZM1.50292 119.947C1.5546 120.773 2.26675 121.402 3.09357 121.35L16.5673 120.508C17.3941 120.456 18.0225 119.744 17.9708 118.917C17.9191 118.091 17.207 117.462 16.3801 117.514L4.40351 118.262L3.65497 106.286C3.6033 105.459 2.89114 104.831 2.06433 104.882C1.23751 104.934 0.609138 105.646 0.660814 106.473L1.50292 119.947ZM52.3386 2C52.3386 16.8652 48.2765 31.7574 44.4289 46.2925L47.3291 47.0602C51.1511 32.6214 55.3386 17.3308 55.3386 2H52.3386ZM44.4289 46.2925C36.3786 76.7048 22.32 95.6899 1.87524 118.861L4.12476 120.845C24.6842 97.5448 39.1021 78.1398 47.3291 47.0602L44.4289 46.2925Z" fill="#2D4B4D"/>
</svg>
