<svg width="60" height="60" viewBox="0 0 60 60" fill="none" xmlns="http://www.w3.org/2000/svg">
<path d="M54.2675 11.1875L48.8125 5.73245C48.3437 5.26378 47.7079 5.00049 47.045 5.00049C46.3821 5.00049 45.7463 5.26378 45.2775 5.73245L23.46 27.5525C23.1847 27.8251 22.9782 28.1593 22.8575 28.5275L20.13 36.71C20.0049 37.0856 19.9708 37.4856 20.0305 37.877C20.0902 38.2683 20.242 38.64 20.4734 38.9612C20.7048 39.2825 21.0092 39.5441 21.3616 39.7247C21.7139 39.9053 22.1041 39.9997 22.5 40C22.7687 39.9999 23.0355 39.956 23.29 39.87L31.4725 37.1425C31.8407 37.0218 32.1749 36.8153 32.4475 36.54L54.2675 14.7225C54.7362 14.2536 54.9995 13.6179 54.9995 12.955C54.9995 12.292 54.7362 11.6563 54.2675 11.1875ZM29.33 32.5875L26.4525 33.5475L27.4125 30.67L47.045 11.035L48.965 12.955L29.33 32.5875ZM5 15C5 14.3369 5.26339 13.701 5.73223 13.2322C6.20107 12.7633 6.83696 12.5 7.5 12.5H27.5C28.163 12.5 28.7989 12.7633 29.2678 13.2322C29.7366 13.701 30 14.3369 30 15C30 15.663 29.7366 16.2989 29.2678 16.7677C28.7989 17.2366 28.163 17.5 27.5 17.5H10V50H42.5V32.5C42.5 31.8369 42.7634 31.201 43.2322 30.7322C43.7011 30.2633 44.337 30 45 30C45.663 30 46.2989 30.2633 46.7678 30.7322C47.2366 31.201 47.5 31.8369 47.5 32.5V52.5C47.5 53.163 47.2366 53.7989 46.7678 54.2677C46.2989 54.7366 45.663 55 45 55H7.5C6.83696 55 6.20107 54.7366 5.73223 54.2677C5.26339 53.7989 5 53.163 5 52.5V15Z" fill="white"/>
</svg>
