<svg width="60" height="60" viewBox="0 0 60 60" fill="none" xmlns="http://www.w3.org/2000/svg">
<g id="archive-minimalistic_svgrepo.com">
<path id="Vector" fill-rule="evenodd" clip-rule="evenodd" d="M29.8565 3.125H30.1435C35.9145 3.12498 40.437 3.12495 43.9658 3.59938C47.5775 4.08498 50.4278 5.09833 52.6648 7.33535C54.9018 9.57238 55.915 12.4224 56.4008 16.0343C56.875 19.563 56.875 24.0856 56.875 29.8565V30H56.8477C56.875 31.4473 56.875 33.0748 56.875 34.916V35.084C56.875 38.5132 56.875 41.2018 56.6985 43.3628C56.5187 45.563 56.1465 47.3807 55.3083 49.026C53.93 51.731 51.731 53.93 49.026 55.3083C47.3807 56.1465 45.563 56.5187 43.3628 56.6985C41.2018 56.875 38.5132 56.875 35.084 56.875H24.916C21.4868 56.875 18.7982 56.875 16.6374 56.6985C14.437 56.5187 12.6192 56.1465 10.9739 55.3083C8.26905 53.93 6.06995 51.731 4.69178 49.026C3.85345 47.3807 3.4813 45.563 3.30153 43.3628C3.12498 41.2018 3.125 38.5132 3.125 35.084V34.916C3.125 33.0748 3.125 31.4473 3.1523 30H3.125V29.8565C3.12498 24.0856 3.12495 19.563 3.59938 16.0343C4.08498 12.4224 5.09833 9.57238 7.33535 7.33535C9.57238 5.09833 12.4224 4.08498 16.0343 3.59938C19.563 3.12495 24.0856 3.12498 29.8565 3.125ZM7.20493 17.4675C8.29453 16.3493 9.56565 15.4093 10.9739 14.6918C12.6192 13.8534 14.437 13.4813 16.6374 13.3015C18.7982 13.125 21.4868 13.125 24.9161 13.125H35.084C38.5132 13.125 41.2018 13.125 43.3628 13.3015C45.563 13.4813 47.3807 13.8534 49.026 14.6918C50.4342 15.4093 51.7055 16.3494 52.795 17.4675C52.7615 17.1471 52.7248 16.8361 52.684 16.534C52.2545 13.3379 51.4372 11.4111 50.013 9.987C48.5887 8.56285 46.662 7.74563 43.466 7.31593C40.216 6.87898 35.9455 6.875 30 6.875C24.0544 6.875 19.7839 6.87898 16.534 7.31593C13.3379 7.74563 11.4111 8.56285 9.987 9.987C8.56285 11.4111 7.74563 13.3379 7.31593 16.534C7.2753 16.8361 7.23843 17.1471 7.20493 17.4675ZM16.9427 17.0391C14.9742 17.1999 13.7049 17.509 12.6764 18.0331C10.6771 19.0517 9.0517 20.6771 8.03305 22.6764C7.50898 23.7049 7.1999 24.9742 7.03908 26.9427C6.87645 28.933 6.875 31.4688 6.875 35C6.875 38.5312 6.87645 41.067 7.03908 43.0573C7.1999 45.0257 7.50898 46.295 8.03305 47.3238C9.0517 49.3228 10.6771 50.9482 12.6764 51.967C13.7049 52.491 14.9742 52.8 16.9427 52.961C18.9331 53.1235 21.4687 53.125 25 53.125H35C38.5312 53.125 41.067 53.1235 43.0573 52.961C45.0257 52.8 46.295 52.491 47.3238 51.967C49.3228 50.9482 50.9482 49.3228 51.967 47.3238C52.491 46.295 52.8 45.0257 52.961 43.0573C53.1235 41.067 53.125 38.5312 53.125 35C53.125 31.4688 53.1235 28.933 52.961 26.9427C52.8 24.9742 52.491 23.7049 51.967 22.6764C50.9482 20.6771 49.3228 19.0517 47.3238 18.0331C46.295 17.509 45.0257 17.1999 43.0573 17.0391C41.067 16.8764 38.5312 16.875 35 16.875H25C21.4687 16.875 18.9331 16.8764 16.9427 17.0391ZM37.4987 28.6012C38.2713 29.291 38.3382 30.4763 37.6488 31.2488L28.72 41.2487C28.3643 41.6473 27.8555 41.875 27.3215 41.875C26.7873 41.875 26.2785 41.6473 25.9227 41.2487L22.3514 37.2487C21.6617 36.4762 21.7288 35.291 22.5012 34.6012C23.2737 33.9117 24.459 33.9788 25.1488 34.7513L27.3215 37.1847L34.8512 28.7512C35.541 27.9788 36.7262 27.9118 37.4987 28.6012Z" fill="white"/>
</g>
</svg>
