<svg width="60" height="58" viewBox="0 0 60 58" fill="none" xmlns="http://www.w3.org/2000/svg">
<path id="Vector" d="M30 27.4991C33.6466 27.4991 37.1439 26.0505 39.7224 23.4719C42.3009 20.8934 43.7495 17.3962 43.7495 13.7495C43.7495 10.1029 42.3009 6.60569 39.7224 4.02715C37.1439 1.44861 33.6466 0 30 0C26.3534 0 22.8561 1.44861 20.2776 4.02715C17.6991 6.60569 16.2505 10.1029 16.2505 13.7495C16.2505 17.3962 17.6991 20.8934 20.2776 23.4719C22.8561 26.0505 26.3534 27.4991 30 27.4991ZM30 33.54C11.7191 33.54 0 43.6282 0 48.54V57.7118H60V48.54C60 42.6 48.9055 33.54 30 33.54Z" fill="white"/>
</svg>
