<svg width="55" height="55" viewBox="0 0 55 55" fill="none" xmlns="http://www.w3.org/2000/svg">
<path fill-rule="evenodd" clip-rule="evenodd" d="M12.5772 12.5775C10.6272 14.5275 9.08032 16.8426 8.02497 19.3904C6.96962 21.9382 6.42644 24.669 6.42644 27.4268C6.42644 30.1845 6.96962 32.9153 8.02497 35.4631C9.08032 38.0109 10.6272 40.326 12.5772 42.276C14.5272 44.226 16.8423 45.7729 19.3901 46.8282C21.9379 47.8836 24.6687 48.4268 27.4264 48.4268C30.1842 48.4268 32.915 47.8836 35.4628 46.8282C38.0106 45.7729 40.3257 44.226 42.2757 42.276C46.2139 38.3377 48.4264 32.9963 48.4264 27.4268C48.4264 21.8572 46.2139 16.5158 42.2757 12.5775C38.3374 8.63925 32.996 6.42676 27.4264 6.42676C21.8569 6.42676 16.5155 8.63925 12.5772 12.5775ZM8.33456 46.5186C3.27108 41.4552 0.426442 34.5876 0.426442 27.4268C0.426442 20.2659 3.27108 13.3984 8.33456 8.33488C13.398 3.27139 20.2656 0.426759 27.4264 0.42676C34.5873 0.426762 41.4548 3.27139 46.5183 8.33488C51.5818 13.3984 54.4264 20.2659 54.4264 27.4268C54.4264 34.5876 51.5818 41.4552 46.5183 46.5186C41.4548 51.5821 34.5873 54.4268 27.4264 54.4268C20.2656 54.4268 13.398 51.5821 8.33456 46.5186ZM38.1794 16.9665C38.742 17.5291 39.0581 18.2922 39.0581 19.0878C39.0581 19.8835 38.742 20.6466 38.1794 21.2092L31.9618 27.4268L38.1794 33.6443C38.742 34.207 39.0581 34.97 39.0581 35.7657C39.0581 36.5613 38.742 37.3244 38.1794 37.887C37.6168 38.4496 36.8537 38.7657 36.0581 38.7657C35.2624 38.7657 34.4994 38.4496 33.9368 37.887L27.7192 31.6694L21.2089 38.1797C20.6462 38.7423 19.8832 39.0584 19.0875 39.0584C18.2919 39.0584 17.5288 38.7423 16.9662 38.1797C16.4036 37.6171 16.0875 36.8541 16.0875 36.0584C16.0875 35.2628 16.4036 34.4997 16.9662 33.9371L23.4765 27.4268L16.9662 20.9164C16.4036 20.3538 16.0875 19.5908 16.0875 18.7951C16.0875 17.9995 16.4036 17.2364 16.9662 16.6738C17.5288 16.1112 18.2919 15.7951 19.0875 15.7951C19.8832 15.7951 20.6462 16.1112 21.2089 16.6738L27.7192 23.1841L33.9368 16.9665C34.4994 16.4039 35.2624 16.0878 36.0581 16.0879C36.8537 16.0878 37.6168 16.4039 38.1794 16.9665Z" fill="#96442F"/>
</svg>
