<svg width="60" height="60" viewBox="0 0 60 60" fill="none" xmlns="http://www.w3.org/2000/svg">
<g id="archive-up-minimlistic_svgrepo.com">
<path id="Vector" d="M51.337 8.66117C47.676 5 41.7833 5 29.9983 5C18.2131 5 12.3206 5 8.65943 8.66117C6.76571 10.5549 5.85151 13.0456 5.41016 16.6399C6.73683 15.1633 8.33091 13.9332 10.1209 13.0211C12.0746 12.0257 14.1666 11.622 16.4829 11.4328C18.7207 11.2499 21.4743 11.2499 24.8412 11.25H35.1553C38.5223 11.2499 41.2758 11.2499 43.5135 11.4328C45.83 11.622 47.922 12.0257 49.8755 13.0211C51.6655 13.9332 53.2598 15.1633 54.5863 16.6399C54.145 13.0456 53.2308 10.5549 51.337 8.66117Z" fill="white"/>
<path id="Vector_2" fill-rule="evenodd" clip-rule="evenodd" d="M5 35C5 27.9993 5 24.499 6.36243 21.8251C7.56083 19.4731 9.4731 17.5608 11.8251 16.3624C14.499 15 17.9993 15 25 15H35C42.0008 15 45.501 15 48.175 16.3624C50.527 17.5608 52.4393 19.4731 53.6375 21.8251C55 24.499 55 27.9993 55 35C55 42.0007 55 45.501 53.6375 48.175C52.4393 50.527 50.527 52.4393 48.175 53.6375C45.501 55 42.0008 55 35 55H25C17.9993 55 14.499 55 11.8251 53.6375C9.4731 52.4393 7.56083 50.527 6.36243 48.175C5 45.501 5 42.0007 5 35ZM31.3258 26.1742C30.9743 25.8225 30.4972 25.625 30 25.625C29.5028 25.625 29.0257 25.8225 28.6742 26.1742L22.4242 32.4242C21.6919 33.1565 21.6919 34.3435 22.4242 35.0758C23.1564 35.808 24.3436 35.808 25.0758 35.0758L28.125 32.0268V42.5C28.125 43.5355 28.9645 44.375 30 44.375C31.0355 44.375 31.875 43.5355 31.875 42.5V32.0268L34.9242 35.0758C35.6565 35.808 36.8435 35.808 37.5758 35.0758C38.308 34.3435 38.308 33.1565 37.5758 32.4242L31.3258 26.1742Z" fill="white"/>
</g>
</svg>
