<svg width="60" height="60" viewBox="0 0 60 60" fill="none" xmlns="http://www.w3.org/2000/svg">
<g id="dialog-2_svgrepo.com">
<path id="Vector" fill-rule="evenodd" clip-rule="evenodd" d="M26.009 56.1992L26.6968 55.0375C27.7988 53.1757 28.3498 52.2447 29.2275 51.7255C30.1055 51.2062 31.2502 51.1695 33.5402 51.0962C35.6875 51.0277 37.1308 50.8402 38.3645 50.3292C40.9625 49.253 43.0265 47.189 44.1025 44.5912C44.9098 42.6427 44.9097 40.1727 44.9097 35.2325V33.112C44.9097 26.1707 44.9097 22.7001 43.3472 20.1506C42.473 18.7239 41.2735 17.5245 39.847 16.6503C37.2975 15.0879 33.8267 15.0879 26.8855 15.0879H20.5241C13.5828 15.0879 10.1122 15.0879 7.56267 16.6503C6.13605 17.5245 4.9366 18.7239 4.06238 20.1506C2.5 22.7001 2.5 26.1707 2.5 33.112V35.2325C2.5 40.1727 2.5 42.6427 3.30705 44.5912C4.38315 47.189 6.44715 49.253 9.04505 50.3292C10.279 50.8402 11.722 51.0277 13.8692 51.0962C16.1592 51.1695 17.3042 51.2062 18.1819 51.7255C19.0597 52.2447 19.6108 53.1757 20.7129 55.0375L21.4005 56.1992C22.425 57.9302 24.9845 57.9302 26.009 56.1992ZM32.982 36.2927C34.4457 36.2927 35.6325 35.106 35.6325 33.642C35.6325 32.1782 34.4457 30.9915 32.982 30.9915C31.518 30.9915 30.3312 32.1782 30.3312 33.642C30.3312 35.106 31.518 36.2927 32.982 36.2927ZM26.3555 33.642C26.3555 35.106 25.1687 36.2927 23.7048 36.2927C22.2409 36.2927 21.0542 35.106 21.0542 33.642C21.0542 32.1782 22.2409 30.9915 23.7048 30.9915C25.1687 30.9915 26.3555 32.1782 26.3555 33.642ZM14.4277 36.2927C15.8916 36.2927 17.0783 35.106 17.0783 33.642C17.0783 32.1782 15.8916 30.9915 14.4277 30.9915C12.9638 30.9915 11.7771 32.1782 11.7771 33.642C11.7771 35.106 12.9638 36.2927 14.4277 36.2927Z" fill="white"/>
<path id="Vector_2" opacity="0.5" d="M38.715 2.5C41.8823 2.49998 44.4008 2.49997 46.4208 2.69203C48.4918 2.88895 50.243 3.30173 51.803 4.25768C53.408 5.2412 54.7573 6.59058 55.7408 8.19553C56.6968 9.75548 57.1095 11.5066 57.3065 13.5778C57.4985 15.5977 57.4985 18.1164 57.4985 21.2836V23.4467C57.4985 25.7008 57.4985 27.4938 57.3993 28.9475C57.2978 30.435 57.086 31.712 56.5905 32.908C55.38 35.8307 53.058 38.1528 50.1353 39.3633C50.0623 39.3935 49.9888 39.4228 49.915 39.451C49.5623 39.5858 49.2598 39.7015 48.9945 39.7875H44.8693C44.9098 38.54 44.9098 37.0543 44.9098 35.2325V33.112C44.9098 26.1707 44.9098 22.7002 43.3473 20.1506C42.473 18.724 41.2735 17.5245 39.847 16.6503C37.2975 15.0879 33.8268 15.0879 26.8855 15.0879H20.5241C18.0606 15.0879 16.0342 15.0879 14.3311 15.1577V11.0318C14.4128 10.7484 14.5249 10.4235 14.6564 10.0423C14.8801 9.39378 15.1627 8.78048 15.5212 8.19553C16.5047 6.59058 17.8541 5.2412 19.459 4.25768C21.019 3.30173 22.7701 2.88895 24.8413 2.69203C26.8613 2.49997 29.3798 2.49998 32.547 2.5H38.715Z" fill="#0A878F"/>
</g>
</svg>
