<svg width="34" height="39" viewBox="0 0 34 39" fill="none" xmlns="http://www.w3.org/2000/svg">
<path id="Vector" d="M2.8125 14.9535V36.1373H30.9375V14.9535L16.875 3.23666L2.8125 14.9535ZM0.50625 13.2154L15.975 0.325723C16.2277 0.115254 16.5461 0 16.875 0C17.2039 0 17.5223 0.115254 17.775 0.325723L33.2437 13.2154C33.4021 13.3473 33.5296 13.5124 33.6171 13.6991C33.7045 13.8857 33.7499 14.0893 33.75 14.2954V37.5435C33.75 37.9165 33.6018 38.2742 33.3381 38.5379C33.0744 38.8016 32.7167 38.9498 32.3438 38.9498H1.40625C1.03329 38.9498 0.675604 38.8016 0.411881 38.5379C0.148158 38.2742 0 37.9165 0 37.5435V14.2954C7.72878e-05 14.0893 0.0454646 13.8857 0.132948 13.6991C0.220432 13.5124 0.347874 13.3473 0.50625 13.2154Z" fill="white"/>
</svg>
