<svg width="45" height="45" viewBox="0 0 45 45" fill="none" xmlns="http://www.w3.org/2000/svg">
<g id="balcony-window_svgrepo.com">
<path id="Vector" d="M40.3875 26.0811H4.59375V42.1873H40.3875V26.0811Z" stroke="white" stroke-width="4.775" stroke-miterlimit="10"/>
<path id="Vector_2" d="M43.9688 26.0811H1.03125" stroke="white" stroke-width="4.775" stroke-miterlimit="10"/>
<path id="Vector_3" d="M13.5562 26.0811V42.1873" stroke="white" stroke-width="4.775" stroke-miterlimit="10"/>
<path id="Vector_4" d="M22.5 26.0811V42.1873" stroke="white" stroke-width="4.775" stroke-miterlimit="10"/>
<path id="Vector_5" d="M31.4438 26.0811V42.1873" stroke="white" stroke-width="4.775" stroke-miterlimit="10"/>
<path id="Vector_6" d="M11.7563 22.5V13.5563C11.7563 10.7068 12.8883 7.97412 14.9031 5.95927C16.918 3.94443 19.6507 2.8125 22.5001 2.8125C23.911 2.8125 25.3081 3.0904 26.6116 3.63032C27.915 4.17024 29.0994 4.96162 30.0971 5.95927C31.0947 6.95692 31.8861 8.1413 32.426 9.44479C32.966 10.7483 33.2438 12.1454 33.2438 13.5563V22.5" stroke="white" stroke-width="4.775" stroke-miterlimit="10"/>
<path id="Vector_7" d="M11.7563 15.3374H35.0251" stroke="white" stroke-width="4.775" stroke-miterlimit="10"/>
<path id="Vector_8" d="M22.5 2.8125V22.5" stroke="white" stroke-width="4.775" stroke-miterlimit="10"/>
</g>
</svg>
