<svg width="43" height="43" viewBox="0 0 43 43" fill="none" xmlns="http://www.w3.org/2000/svg">
<path id="Vector" d="M39.375 23.3079H5.625V7.48764C5.62337 6.89186 5.73993 6.30167 5.96793 5.75124C6.19593 5.20081 6.53085 4.70107 6.95329 4.28095L6.98845 4.24579C7.65049 3.58472 8.50049 3.14416 9.42233 2.9843C10.3442 2.82444 11.2929 2.95308 12.1388 3.35265C11.3399 4.68102 11.0078 6.2383 11.1954 7.77704C11.3829 9.31578 12.0794 10.7477 13.174 11.8453L14.1365 12.8077L12.3649 14.5794L14.3535 16.5681L16.1251 14.7964L25.9415 4.98021L27.7131 3.2086L25.7244 1.2199L23.9527 2.99151L22.9903 2.02902C21.8379 0.879873 20.3188 0.1715 18.6978 0.0273367C17.0768 -0.116826 15.4566 0.312362 14.1195 1.24011C12.7096 0.349702 11.0388 -0.0346932 9.38149 0.15007C7.72421 0.334834 6.17904 1.07777 4.99983 2.25683L4.96468 2.29199C4.28022 2.97269 3.73758 3.7824 3.36816 4.67424C2.99874 5.56607 2.80987 6.52232 2.8125 7.48764V23.3079H0V26.1204H2.8125V28.8187C2.81244 29.0454 2.849 29.2706 2.92078 29.4857L5.53711 37.3343C5.67673 37.7545 5.94521 38.12 6.3044 38.379C6.66359 38.6379 7.09524 38.7771 7.53803 38.7767H8.67182L7.64648 42.2923H10.5761L11.6016 38.7767H29.8916L30.9463 42.2923H33.8818L32.8271 38.7767H34.6491C35.092 38.7771 35.5237 38.638 35.883 38.3791C36.2422 38.1201 36.5107 37.7546 36.6504 37.3343L39.2665 29.4857C39.3383 29.2706 39.375 29.0454 39.375 28.8187V26.1204H42.1875V23.3079H39.375ZM15.1629 4.01772C15.9377 3.24456 16.9876 2.81035 18.0822 2.81035C19.1768 2.81035 20.2267 3.24456 21.0016 4.01772L21.9639 4.98021L16.1254 10.8187L15.1629 9.85638C14.3898 9.08152 13.9556 8.03163 13.9556 6.93705C13.9556 5.84247 14.3898 4.79258 15.1629 4.01772ZM36.5625 28.7044L34.1427 35.9642H8.0448L5.625 28.7044V26.1204H36.5625V28.7044Z" fill="white"/>
</svg>
