<svg width="45" height="45" viewBox="0 0 45 45" fill="none" xmlns="http://www.w3.org/2000/svg">
<g id="Group">
<path id="Vector" d="M43.5938 29.7C43.5938 28.2262 43.5938 2.781 43.5938 1.8C43.5938 0.80595 42.9641 0 42.1875 0C41.4109 0 40.7812 0.80595 40.7812 1.8V3.6H4.21875V1.8C4.21875 0.80595 3.5891 0 2.8125 0C2.0359 0 1.40625 0.80595 1.40625 1.8V29.7C0.629648 29.7 0 30.5059 0 31.5V43.2C0 44.194 0.629648 45 1.40625 45H4.92188C5.36449 45 5.78127 44.7333 6.04688 44.28L7.73438 41.4H37.2656L38.9531 44.28C39.2186 44.7333 39.6355 45 40.0781 45H43.5938C44.3703 45 45 44.194 45 43.2V31.5C45 30.5059 44.3703 29.7 43.5938 29.7ZM40.7812 21.6686C39.269 20.546 38.0745 20.7 36.5625 20.7V17.1C36.5625 14.1225 34.67 11.7 32.3438 11.7H25.3125C24.2329 11.7 23.247 12.2225 22.5 13.0794C21.753 12.2225 20.7671 11.7 19.6875 11.7H12.6562C10.33 11.7 8.4375 14.1225 8.4375 17.1V20.7C6.85644 20.7 5.72282 20.5521 4.21875 21.6686V7.2H40.7812V21.6686ZM11.25 20.7V17.1C11.25 16.1075 11.8809 15.3 12.6562 15.3H19.6875C20.4629 15.3 21.0938 16.1075 21.0938 17.1V20.7H11.25ZM23.9062 17.1C23.9062 16.1075 24.5371 15.3 25.3125 15.3H32.3438C33.1191 15.3 33.75 16.1075 33.75 17.1V20.7H23.9062V17.1ZM4.21875 27.9C4.21875 25.9149 5.48042 24.3 7.03125 24.3H37.9688C39.5196 24.3 40.7812 25.9149 40.7812 27.9V29.7H4.21875V27.9ZM42.1875 41.4H40.7812L39.0938 38.52C38.8282 38.0667 38.4114 37.8 37.9688 37.8H7.03125C6.58863 37.8 6.17185 38.0667 5.90625 38.52L4.21875 41.4H2.8125V33.3H42.1875V41.4Z" fill="white"/>
</g>
</svg>
