<svg width="45" height="45" viewBox="0 0 45 45" fill="none" xmlns="http://www.w3.org/2000/svg">
<g id="hairdryer-on-2_svgrepo.com" clip-path="url(#clip0_1299_189)">
<path id="Vector" d="M12.6 1.7998C5.65313 1.7998 0 7.45293 0 14.3998C0 17.8732 1.40273 21.0338 3.68438 23.3154C3.70195 23.326 3.72305 23.3365 3.74063 23.3436C3.76523 23.3682 3.77227 23.4068 3.79688 23.4279C3.85664 23.5018 3.96563 23.6424 4.1625 24.0467C4.43672 24.6092 4.77422 25.5268 4.95 26.8592C5.01328 27.3373 4.92188 29.0846 4.69688 30.9373C4.47188 32.79 4.14492 34.8537 3.825 36.3936C3.53672 37.7752 3.56484 39.0373 4.13438 40.1061C4.70391 41.1748 5.77617 41.9342 7.2 42.3561C7.23867 42.3596 7.27383 42.3596 7.3125 42.3561L11.7563 43.1154C11.7668 43.1154 11.7738 43.1154 11.7844 43.1154C12.0445 43.1471 12.825 43.2068 13.6688 43.1154C14.0906 43.0697 14.5301 43.01 14.9625 42.8061C15.3949 42.6021 15.866 42.2225 16.0594 41.6529C16.2738 41.0166 16.1543 40.3416 15.9469 39.8811C15.7395 39.4205 15.518 39.1147 15.3281 38.7561C14.9484 38.0389 14.5898 37.1178 15.1313 34.7904C15.5988 32.783 16.1086 31.1975 16.7063 29.2498C17.2055 27.6221 17.8945 26.7537 18.4219 26.2686C18.9492 25.7834 19.2094 25.7342 19.2094 25.7342C19.2973 25.7096 19.3852 25.6709 19.4625 25.6217L34.425 21.9092C34.8223 21.8072 35.1 21.4486 35.1 21.0373V7.7623C35.1 7.35098 34.8223 6.99238 34.425 6.89043L16.4531 2.41855L16.3969 2.39043V2.41855C15.198 2.03887 13.9289 1.7998 12.6 1.7998ZM12.6 3.5998C13.7531 3.5998 14.8746 3.79668 15.9188 4.13418C15.9363 4.13418 15.9574 4.13418 15.975 4.13418L33.3 8.46543V20.3342L15.975 24.6654C15.9574 24.6654 15.9363 24.6654 15.9188 24.6654C14.8746 25.0029 13.7531 25.1998 12.6 25.1998C9.65039 25.1998 6.98203 24.0186 5.03438 22.1061C5.00625 22.085 4.97813 22.0674 4.95 22.0498C4.93242 22.0322 4.91133 22.0111 4.89375 21.9936C4.87617 21.9725 4.85859 21.9549 4.8375 21.9373C2.94961 19.9932 1.8 17.3283 1.8 14.3998C1.8 8.42676 6.62695 3.5998 12.6 3.5998ZM12.6 8.0998C9.13008 8.0998 6.3 10.9299 6.3 14.3998C6.3 17.8697 9.13008 20.6998 12.6 20.6998C16.0699 20.6998 18.9 17.8697 18.9 14.3998C18.9 10.9299 16.0699 8.0998 12.6 8.0998ZM36.7031 8.97168C36.2285 9.0666 35.9016 9.50606 35.9508 9.99121C36.0035 10.4729 36.4148 10.835 36.9 10.8279C38.9883 10.8279 39.3223 11.1408 40.0219 11.5873C40.7215 12.0338 41.7902 12.6279 44.1 12.6279C44.4621 12.6771 44.8207 12.5119 45.0176 12.2061C45.2145 11.8967 45.2145 11.5029 45.0176 11.1936C44.8207 10.8877 44.4621 10.7225 44.1 10.7717C42.0469 10.7717 41.7375 10.4658 41.0344 10.0123C40.3313 9.55879 39.2414 8.97168 36.9 8.97168C36.8332 8.96465 36.7699 8.96465 36.7031 8.97168ZM12.6 9.89981C15.0961 9.89981 17.1 11.9037 17.1 14.3998C17.1 16.8959 15.0961 18.8998 12.6 18.8998C10.1039 18.8998 8.1 16.8959 8.1 14.3998C8.1 11.9037 10.1039 9.89981 12.6 9.89981ZM36.7031 13.4717C36.2285 13.5666 35.9016 14.0061 35.9508 14.4912C36.0035 14.9729 36.4148 15.335 36.9 15.3279C38.9883 15.3279 39.3223 15.6408 40.0219 16.0873C40.7215 16.5338 41.7902 17.1279 44.1 17.1279C44.4621 17.1771 44.8207 17.0119 45.0176 16.7061C45.2145 16.3967 45.2145 16.0029 45.0176 15.6936C44.8207 15.3877 44.4621 15.2225 44.1 15.2717C42.0469 15.2717 41.7375 14.9658 41.0344 14.5123C40.3313 14.0588 39.2414 13.4717 36.9 13.4717C36.8332 13.4646 36.7699 13.4646 36.7031 13.4717ZM36.7031 17.9717C36.2285 18.0666 35.9016 18.5061 35.9508 18.9912C36.0035 19.4729 36.4148 19.835 36.9 19.8279C38.9883 19.8279 39.3223 20.1408 40.0219 20.5873C40.7215 21.0338 41.7902 21.6279 44.1 21.6279C44.4621 21.6771 44.8207 21.5119 45.0176 21.2061C45.2145 20.8967 45.2145 20.5029 45.0176 20.1936C44.8207 19.8877 44.4621 19.7225 44.1 19.7717C42.0469 19.7717 41.7375 19.4658 41.0344 19.0123C40.3313 18.5588 39.2414 17.9717 36.9 17.9717C36.8332 17.9646 36.7699 17.9646 36.7031 17.9717ZM6.525 25.4248C8.33203 26.4268 10.3922 26.9998 12.6 26.9998C13.7742 26.9998 14.8992 26.7994 15.975 26.4936C15.6164 27.0982 15.2648 27.8436 14.9906 28.7436C14.3965 30.6842 13.8727 32.2908 13.3875 34.3686C12.7758 36.9982 13.2012 38.6119 13.725 39.5998C13.9887 40.0955 14.2242 40.4119 14.3156 40.6123C14.407 40.8127 14.4281 40.8162 14.3438 41.0623C14.3438 41.0588 14.3543 41.1045 14.2031 41.1748C14.052 41.2451 13.7707 41.3119 13.4719 41.3436C12.8848 41.4068 12.2309 41.3365 12.0375 41.3154H12.0094L7.70625 40.6123C7.69219 40.6088 7.69219 40.5877 7.67813 40.5842C6.5707 40.2467 6.00117 39.8143 5.70938 39.2623C5.41406 38.7033 5.35781 37.9088 5.59688 36.7592C5.93438 35.149 6.26484 33.0396 6.49688 31.1342C6.72891 29.2287 6.88359 27.6502 6.75 26.6342C6.69375 26.1947 6.60938 25.7975 6.525 25.4248Z" fill="white"/>
</g>
<defs>
<clipPath id="clip0_1299_189">
<rect width="45" height="45" fill="white"/>
</clipPath>
</defs>
</svg>
