<svg width="45" height="45" viewBox="0 0 45 45" fill="none" xmlns="http://www.w3.org/2000/svg">
<g id="kettle_svgrepo.com" clip-path="url(#clip0_1331_56)">
<g id="Group">
<g id="Group_2">
<path id="Vector" d="M37.6931 7.29578C37.3669 7.01884 36.8779 7.05901 36.6011 7.38508C36.3241 7.71133 36.3641 8.20027 36.6904 8.47713C40.0136 11.2982 41.9059 15.3938 41.8822 19.7137C41.8627 23.2163 40.6036 26.5586 38.3231 29.1957C39.0788 27.2733 39.4538 25.2443 39.4385 23.1554C39.4144 19.9661 38.4971 16.9968 36.8556 14.7941C35.2613 12.6548 33.0805 11.3899 30.6545 11.1785L30.2968 5.32035C31.6968 5.61953 33.0415 6.12411 34.3053 6.82574C34.4244 6.89184 34.5534 6.9233 34.6806 6.9233C34.9529 6.9233 35.2171 6.77943 35.3586 6.52454C35.5664 6.15039 35.4316 5.67877 35.0574 5.47099C33.5327 4.62443 31.9011 4.03758 30.1992 3.72135L30.1121 2.29514C30.0923 1.97144 29.8731 1.69441 29.5627 1.60063C22.4943 -0.533542 15.0221 -0.533542 7.95371 1.60063C7.64328 1.69432 7.42408 1.97153 7.4043 2.29514L7.39701 2.4152L1.95462 5.55994C1.77383 5.66435 1.64287 5.83732 1.59137 6.03956C1.53987 6.2418 1.57203 6.45643 1.68084 6.63449L6.64317 14.7623L6.0724 24.1108C6.04639 24.5379 6.3715 24.9053 6.79856 24.9314C7.22544 24.9566 7.59309 24.6323 7.61911 24.2052L8.90636 3.12105C8.92921 3.05742 8.94362 2.99106 8.94943 2.92356C15.3895 1.08945 22.1595 1.09227 28.5985 2.93226L30.8012 39.0136H6.71515L7.40782 27.6674C7.43383 27.2404 7.10872 26.8729 6.68166 26.8469C6.2546 26.8202 5.88713 27.146 5.86111 27.573L5.16273 39.0137H3.96645C3.64125 39.0137 3.35059 39.2168 3.23889 39.5221L1.61475 43.9589C1.52774 44.1965 1.56228 44.4617 1.7073 44.6691C1.85223 44.8765 2.08936 45.0001 2.34231 45.0001H27.1618C27.5898 45.0001 27.9366 44.6532 27.9366 44.2253C27.9366 43.7973 27.5898 43.4504 27.1618 43.4504H3.45097L4.50768 40.5633H33.0086L34.0653 43.4504H30.2608C29.8328 43.4504 29.4859 43.7973 29.4859 44.2253C29.4859 44.6532 29.8328 45.0001 30.2608 45.0001H35.1742C35.4272 45.0001 35.6642 44.8766 35.8092 44.6691C35.9541 44.4617 35.9886 44.1966 35.9017 43.9589L34.2776 39.5221C34.1658 39.2167 33.8752 39.0137 33.55 39.0137H32.3537L30.75 12.7449C33.1216 13.0252 34.6884 14.4794 35.613 15.72C37.0589 17.6604 37.867 20.3051 37.8888 23.1669C37.904 25.2512 37.4903 27.2687 36.659 29.1622C36.3713 29.8151 36.5867 30.5475 37.1827 30.9433C37.4319 31.1088 37.7096 31.1896 37.9841 31.1896C38.3635 31.1896 38.7366 31.035 39.02 30.7352C41.8421 27.7439 43.4088 23.8328 43.4317 19.7222C43.4581 14.9432 41.3663 10.414 37.6931 7.29578ZM6.80814 12.0589L3.41713 6.50459L7.28363 4.27031L6.80814 12.0589Z" fill="white"/>
</g>
</g>
<g id="Group_3">
<g id="Group_4">
<path id="Vector_2" d="M18.7591 7.60156C17.2556 7.60156 16.0322 8.82483 16.0322 10.3285V31.27C16.0322 32.7736 17.2556 33.997 18.7591 33.997C20.2627 33.997 21.486 32.7736 21.486 31.27V10.3285C21.486 8.82483 20.2627 7.60156 18.7591 7.60156ZM17.5817 10.3285C17.5817 9.67922 18.1099 9.15108 18.759 9.15108C19.4082 9.15108 19.9363 9.67922 19.9363 10.3284V11.9364H17.5817V10.3285ZM19.9364 31.2699C19.9364 31.9191 19.4083 32.4473 18.7591 32.4473C18.11 32.4473 17.5817 31.9191 17.5817 31.2699V27.8969H19.9364V31.2699ZM19.9364 26.3473H17.5817V23.0933H19.9364V26.3473ZM19.9364 21.5437H17.5817V18.2897H19.9364V21.5437ZM19.9364 16.7401H17.5817V13.4861H19.9364V16.7401Z" fill="white"/>
</g>
</g>
</g>
<defs>
<clipPath id="clip0_1331_56">
<rect width="45" height="45" fill="white"/>
</clipPath>
</defs>
</svg>
