<svg width="45" height="43" viewBox="0 0 45 43" fill="none" xmlns="http://www.w3.org/2000/svg">
<path id="Vector" d="M28.7364 16.3645C27.0849 17.9997 24.8419 18.921 22.5 18.921C20.1581 18.921 17.9151 17.9997 16.2636 16.3645C14.6126 14.7298 13.6878 12.5158 13.6878 10.2105C13.6878 7.90515 14.6126 5.69119 16.2636 4.05649C17.9151 2.42128 20.1581 1.5 22.5 1.5C24.8419 1.5 27.0849 2.42128 28.7364 4.05649C30.3874 5.69119 31.3122 7.90515 31.3122 10.2105C31.3122 12.5158 30.3874 14.7298 28.7364 16.3645ZM1.5 36.0461C1.5 35.6689 1.77215 34.86 2.72803 33.7411C3.64001 32.6737 5.03202 31.4955 6.8759 30.3976C10.5562 28.2062 15.9162 26.407 22.5 26.407C29.3586 26.407 34.718 28.035 38.3149 30.1201C40.1163 31.1644 41.4451 32.3052 42.3074 33.3822C43.1837 34.4768 43.5 35.4021 43.5 36.0461V41.3571H1.5V36.0461Z" stroke="white" stroke-width="3"/>
</svg>
