<svg width="45" height="45" viewBox="0 0 45 45" fill="none" xmlns="http://www.w3.org/2000/svg">
<g id="grocery-store-hygiene_svgrepo.com">
<g id="hygiene_product">
<g id="Group">
<path id="Vector" d="M40.9498 11.6998H39.5998V9.4498C39.5998 8.6848 39.0148 8.0998 38.2498 8.0998H36.8998V5.3998H39.1498C39.4198 5.3998 39.5998 5.2198 39.5998 4.9498V2.2498C39.5998 1.9798 39.4198 1.7998 39.1498 1.7998H20.2498C19.9798 1.7998 19.7998 1.9798 19.7998 2.2498V4.9498C19.7998 5.2198 19.9798 5.3998 20.2498 5.3998H20.6998V6.7498C20.6998 7.0198 20.8798 7.1998 21.1498 7.1998H23.8498C24.1198 7.1998 24.2998 7.0198 24.2998 6.7498V5.3998H32.3998V8.0998H31.0498C30.2848 8.0998 29.6998 8.6848 29.6998 9.4498V11.6998H28.3498C27.0898 11.6998 26.0998 12.6898 26.0998 13.9498V21.1498C25.7398 20.8798 25.2448 20.6998 24.7498 20.6998V19.3498C24.7498 19.0798 24.5698 18.8998 24.2998 18.8998H23.3998V15.7498C23.3998 14.4898 22.4098 13.4998 21.1498 13.4998H18.4498C17.1898 13.4998 16.1998 14.4898 16.1998 15.7498V18.8998H15.2998C15.0298 18.8998 14.8498 19.0798 14.8498 19.3498V20.6998C13.5898 20.6998 12.5998 21.6898 12.5998 22.9498V34.1998H5.8498C4.3648 34.1998 3.1498 35.4148 3.1498 36.8998C3.1498 37.5748 3.4198 38.2048 3.8248 38.6998H2.2498C1.9798 38.6998 1.7998 38.8798 1.7998 39.1498C1.7998 40.4098 2.7898 41.3998 4.0498 41.3998V42.7498C4.0498 43.0198 4.2298 43.1998 4.4998 43.1998H17.9998H24.7498C25.4698 43.1998 26.1448 42.8398 26.5498 42.2998C26.9548 42.8398 27.6298 43.1998 28.3498 43.1998H40.9498C42.2098 43.1998 43.1998 42.2098 43.1998 40.9498V13.9498C43.1998 12.6898 42.2098 11.6998 40.9498 11.6998ZM20.6998 2.6998H38.6998V4.4998H36.4498H32.8498H23.8498H21.1498H20.6998V2.6998ZM23.3998 6.2998H21.5998V5.3998H23.3998V6.2998ZM33.2998 5.3998H35.9998V8.0998H33.2998V5.3998ZM30.5998 9.4498C30.5998 9.1798 30.7798 8.9998 31.0498 8.9998H32.8498H36.4498H38.2498C38.5198 8.9998 38.6998 9.1798 38.6998 9.4498V11.6998H30.5998V9.4498ZM18.4498 14.3998H21.1498C21.9148 14.3998 22.4998 14.9848 22.4998 15.7498V16.6498H22.0048C21.7798 15.6148 20.8798 14.8498 19.7998 14.8498C18.7198 14.8498 17.8198 15.6148 17.5948 16.6498H17.0998V15.7498C17.0998 14.9848 17.6848 14.3998 18.4498 14.3998ZM21.0598 16.6498H18.5398C18.7198 16.1098 19.2148 15.7498 19.7998 15.7498C20.3848 15.7498 20.8798 16.1098 21.0598 16.6498ZM17.0998 17.5498H22.4998V18.8998H17.0998V17.5498ZM15.7498 19.7998H16.6498H22.9498H23.8498V20.6998H15.7498V19.7998ZM4.0498 36.8998C4.0498 35.9098 4.8598 35.0998 5.8498 35.0998H16.6498C17.6398 35.0998 18.4498 35.9098 18.4498 36.8998C18.4498 37.8898 17.6398 38.6998 16.6498 38.6998H15.2998H5.8498C4.8598 38.6998 4.0498 37.8898 4.0498 36.8998ZM20.2498 38.6998H18.6748C19.1248 38.2048 19.3498 37.5748 19.3498 36.8998C19.3498 35.4148 18.1348 34.1998 16.6498 34.1998H15.7498V29.2498C15.7498 26.9998 17.5498 25.1998 19.7998 25.1998C20.8798 25.1998 21.9148 25.6048 22.6798 26.3698C23.4448 27.1348 23.8498 28.1698 23.8498 29.2498V38.6998H20.2498ZM2.7898 39.5998H5.8498H15.2998H16.6498H19.7098C19.5298 40.1398 19.0348 40.4998 18.4498 40.4998H17.9998H4.4998H4.0498C3.4648 40.4998 2.9698 40.1398 2.7898 39.5998ZM4.9498 41.3998H17.5498V42.2998H4.9498V41.3998ZM24.7498 42.2998H18.4498V41.3998C19.5298 41.3998 20.4298 40.6348 20.6548 39.5998H24.2998C24.5698 39.5998 24.7498 39.4198 24.7498 39.1498V29.2498C24.7498 27.9448 24.2548 26.6848 23.3098 25.7398C22.3648 24.7948 21.1048 24.2998 19.7998 24.2998C17.0548 24.2998 14.8498 26.5048 14.8498 29.2498V34.1998H13.4998V22.9498C13.4998 22.1848 14.0848 21.5998 14.8498 21.5998H15.2998H24.2998H24.7498C25.5148 21.5998 26.0998 22.1848 26.0998 22.9498V40.9498C26.0998 41.7148 25.5148 42.2998 24.7498 42.2998ZM42.2998 40.9498C42.2998 41.7148 41.7148 42.2998 40.9498 42.2998H28.3498C27.5848 42.2998 26.9998 41.7148 26.9998 40.9498V22.9498V13.9498C26.9998 13.1848 27.5848 12.5998 28.3498 12.5998H30.1498H39.1498H40.9498C41.7148 12.5998 42.2998 13.1848 42.2998 13.9498V40.9498Z" fill="white"/>
<path id="Vector_2" d="M34.6498 16.1997C31.4098 16.1997 28.7998 18.8097 28.7998 22.0497V38.2497C28.7998 38.5197 28.9798 38.6997 29.2498 38.6997H40.0498C40.3198 38.6997 40.4998 38.5197 40.4998 38.2497V22.0497C40.4998 18.8097 37.8898 16.1997 34.6498 16.1997ZM39.5998 37.7997H29.6998V22.0497C29.6998 19.3047 31.9048 17.0997 34.6498 17.0997C37.3948 17.0997 39.5998 19.3047 39.5998 22.0497V37.7997Z" fill="white"/>
</g>
</g>
</g>
</svg>
