<svg width="49" height="36" viewBox="0 0 49 36" fill="none" xmlns="http://www.w3.org/2000/svg">
<g id="Group 10604">
<path id="Vector" d="M10 31.25H38.9999C43.4182 31.25 47 27.6682 47 23.2499V17.75C47 15.2647 44.9853 13.25 42.5 13.25C40.0147 13.25 38 15.2647 38 17.75V20.45C38 21.444 37.1941 22.25 36.2 22.25H12.8C11.8059 22.25 11 21.444 11 20.45V17.75C11 15.2647 8.98528 13.25 6.5 13.25C4.01472 13.25 2 15.2647 2 17.75V23.2499C2 27.6682 5.58173 31.25 10 31.25Z" stroke="white" stroke-width="3.75"/>
<path id="Vector_2" d="M42.5 13.25C42.5 11.1591 42.5 10.1136 42.327 9.24419C41.6169 5.67398 38.826 2.8831 35.2559 2.17293C34.3865 2 33.3409 2 31.25 2H17.75C15.6591 2 14.6136 2 13.7442 2.17293C10.174 2.8831 7.3831 5.67398 6.67293 9.24419C6.5 10.1136 6.5 11.1591 6.5 13.25" stroke="white" stroke-width="3.75"/>
<path id="Vector_3" d="M42.5 33.5V31.25M6.5 33.5V31.25" stroke="white" stroke-width="3.75" stroke-linecap="round"/>
</g>
</svg>
