<svg width="45" height="45" viewBox="0 0 45 45" fill="none" xmlns="http://www.w3.org/2000/svg">
<g id="Page-1">
<g id="Icon-Set">
<path id="tv-television" fill-rule="evenodd" clip-rule="evenodd" d="M42.1875 39.373C42.1875 40.9261 40.9275 42.1865 39.375 42.1865H5.625C4.0725 42.1865 2.8125 40.9261 2.8125 39.373V16.8651C2.8125 15.3121 4.0725 14.0516 5.625 14.0516H39.375C40.9275 14.0516 42.1875 15.3121 42.1875 16.8651V39.373ZM39.375 11.2381H26.3616L38.6972 2.74849C39.3483 2.29974 39.5339 1.37402 39.112 0.681904C38.6915 -0.0102137 37.8211 -0.208515 37.1686 0.240236C37.1686 0.240236 23.6545 9.57398 22.5127 10.2633L7.83141 0.240236C7.18031 -0.208515 6.30845 -0.0102137 5.88799 0.681904C5.46611 1.37402 5.65171 2.29974 6.3028 2.74849L18.6384 11.2381H5.625C2.51859 11.2381 0 13.7576 0 16.8651V39.373C0 42.4805 2.51859 45 5.625 45H39.375C42.4814 45 45 42.4805 45 39.373V16.8651C45 13.7576 42.4814 11.2381 39.375 11.2381ZM37.9688 32.3393H32.3438C31.5661 32.3393 30.9375 32.9681 30.9375 33.746C30.9375 34.524 31.5661 35.1528 32.3438 35.1528H37.9688C38.7464 35.1528 39.375 34.524 39.375 33.746C39.375 32.9681 38.7464 32.3393 37.9688 32.3393ZM25.3125 35.1528C25.3125 35.9307 24.6839 36.5595 23.9062 36.5595H9.84375C9.06609 36.5595 8.4375 35.9307 8.4375 35.1528V21.0854C8.4375 20.3088 9.06609 19.6786 9.84375 19.6786H23.9062C24.6839 19.6786 25.3125 20.3088 25.3125 21.0854V35.1528ZM25.3125 16.8651H8.4375C6.885 16.8651 5.625 18.1256 5.625 19.6786V36.5595C5.625 38.1126 6.885 39.373 8.4375 39.373H25.3125C26.865 39.373 28.125 38.1126 28.125 36.5595V19.6786C28.125 18.1256 26.865 16.8651 25.3125 16.8651ZM37.9688 36.5595H32.3438C31.5661 36.5595 30.9375 37.1884 30.9375 37.9663C30.9375 38.7442 31.5661 39.373 32.3438 39.373H37.9688C38.7464 39.373 39.375 38.7442 39.375 37.9663C39.375 37.1884 38.7464 36.5595 37.9688 36.5595ZM33.75 19.6786H36.5625V22.4921H33.75V19.6786ZM35.1562 16.8651C32.8261 16.8651 30.9375 18.7544 30.9375 21.0854C30.9375 23.4163 32.8261 25.3056 35.1562 25.3056C37.4864 25.3056 39.375 23.4163 39.375 21.0854C39.375 18.7544 37.4864 16.8651 35.1562 16.8651Z" fill="white"/>
</g>
</g>
</svg>
