<svg width="799" height="513" viewBox="0 0 799 513" fill="none" xmlns="http://www.w3.org/2000/svg">
<path d="M390.398 154.215C391.44 152.859 395.847 146.639 396.923 145.119C404.386 142.03 409.641 134.669 409.641 126.087C409.641 114.725 400.423 105.5 389.067 105.5C377.71 105.5 368.492 114.725 368.492 126.087C368.492 134.669 373.75 142.031 381.213 145.121C382.289 146.623 386.687 152.766 387.718 154.168L387.719 154.168C387.855 154.353 387.976 154.492 388.069 154.589C388.115 154.638 388.155 154.676 388.186 154.705C388.205 154.723 388.248 154.762 388.29 154.79L388.294 154.793C388.408 154.867 388.612 154.986 388.885 155.025C389.171 155.066 389.491 155.013 389.817 154.81L389.824 154.805L389.83 154.801C389.927 154.737 390.145 154.548 390.398 154.215ZM390.398 154.215C390.398 154.215 390.398 154.216 390.398 154.216L390.001 153.911M390.398 154.215C390.399 154.214 390.399 154.214 390.399 154.214L390.001 153.911M390.001 153.911C391.063 152.53 395.69 145.997 396.599 144.711L389.553 154.385C389.591 154.36 389.771 154.215 390.001 153.911ZM383.264 143.15L383.265 143.15L383.267 143.154L383.277 143.167L383.314 143.22L383.459 143.421L383.987 144.159C384.432 144.781 385.044 145.635 385.712 146.566C386.862 148.17 388.176 150 389.084 151.257C389.993 150.006 391.298 148.178 392.44 146.574C393.102 145.643 393.709 144.788 394.15 144.166C394.37 143.855 394.549 143.602 394.673 143.427L394.816 143.225L394.853 143.173L394.863 143.16L394.864 143.157L394.865 143.156L394.866 143.155L394.866 143.155L383.264 143.15ZM383.264 143.15L383.264 143.149L383.264 143.149L383.246 143.124L383.233 143.106L383.219 143.089L383.218 143.089L383.212 143.08L383.191 143.052L383.17 143.032L383.17 143.031L383.154 143.012L383.136 142.994L383.122 142.98L382.768 143.333L383.122 142.98L383.106 142.963L383.095 142.953L383.084 142.943L383.079 142.938L383.073 142.932L383.053 142.913L383.032 142.895L383.014 142.881L383.014 142.881L383.008 142.877L382.997 142.868L382.992 142.864L382.979 142.854L382.967 142.844L382.954 142.834L382.935 142.822L382.648 143.231L382.935 142.822L382.917 142.809L382.917 142.809L382.899 142.796L382.899 142.796L382.881 142.784L382.858 142.768L382.834 142.754L382.823 142.748L382.813 142.743L382.79 142.729L382.766 142.717L382.759 142.714L382.743 142.705L382.726 142.697L382.702 142.687L382.702 142.687L382.696 142.684L382.679 142.676L382.671 142.673L382.662 142.669L382.635 142.658L382.63 142.656C376.004 140.074 371.307 133.626 371.307 126.087C371.307 116.279 379.265 108.316 389.067 108.316C398.868 108.316 406.826 116.279 406.826 126.087C406.826 133.625 402.129 140.073 395.504 142.656L383.264 143.15Z" fill="#C2AD8B" stroke="#C2AD8B"/>
<path d="M389.124 114.489L389.114 114.488H389.103H389.059H389.03H389.02L389.009 114.489L388.965 114.491L388.948 114.491L388.931 114.493L388.915 114.495C388.915 114.495 388.915 114.495 388.915 114.495C388.758 114.512 388.608 114.556 388.467 114.622L388.467 114.622L388.462 114.624L388.428 114.64L388.407 114.65L388.387 114.662L388.349 114.685C388.348 114.685 388.348 114.685 388.348 114.685C388.269 114.732 388.189 114.789 388.114 114.859L388.114 114.859L388.109 114.863L388.078 114.893L388.068 114.903L388.058 114.914L388.027 114.947L388.027 114.947L388.019 114.955C387.97 115.01 387.923 115.071 387.881 115.137C387.769 115.311 386.083 117.929 384.42 121.344C382.76 124.754 381.076 129.047 381.076 132.505C381.076 134.118 381.801 135.593 382.915 136.758L382.915 136.758C384.485 138.399 386.876 139.458 389.067 139.458C391.257 139.458 393.649 138.399 395.219 136.758L395.219 136.758C396.332 135.593 397.057 134.118 397.057 132.505C397.057 129.047 395.373 124.754 393.713 121.344C392.05 117.929 390.365 115.31 390.252 115.136C390.21 115.071 390.163 115.01 390.115 114.955L390.106 114.946L390.097 114.936L390.067 114.907L390.067 114.907L390.035 114.874L390.027 114.866L390.02 114.859C389.944 114.789 389.864 114.732 389.785 114.685C389.785 114.685 389.785 114.685 389.784 114.685L389.746 114.662L389.726 114.65L389.705 114.64L389.671 114.624L389.671 114.624L389.666 114.622C389.523 114.555 389.373 114.512 389.219 114.495L389.219 114.495L389.203 114.493L389.185 114.491L389.168 114.491L389.124 114.489ZM383.9 132.505C383.9 130.11 384.855 127.17 386.053 124.44C387.061 122.143 388.222 120.038 389.067 118.602C389.912 120.038 391.072 122.143 392.08 124.44C393.278 127.17 394.233 130.11 394.233 132.505C394.233 133.322 393.834 134.107 393.184 134.788C392.124 135.895 390.504 136.617 389.067 136.617C387.629 136.617 386.01 135.895 384.949 134.788C384.3 134.107 383.9 133.322 383.9 132.505Z" fill="#C2AD8B" stroke="#C2AD8B"/>
<path d="M374.088 158.29C378.375 157.879 383.658 157.633 389.366 157.633C395.075 157.633 400.357 157.879 404.645 158.29C408.913 158.7 412.248 159.278 414.026 159.965C414.716 160.229 415.249 160.545 415.592 160.883L374.088 158.29ZM374.088 158.29C369.819 158.7 366.485 159.278 364.707 159.965M374.088 158.29L364.707 159.965M364.707 159.965C364.016 160.229 363.483 160.545 363.141 160.883C362.694 161.322 362.5 161.826 362.5 162.328C362.5 162.828 362.694 163.333 363.141 163.773C363.483 164.111 364.016 164.426 364.707 164.691C366.485 165.378 369.819 165.956 374.088 166.366C378.375 166.777 383.658 167.023 389.366 167.023C395.075 167.023 400.357 166.777 404.645 166.366C408.913 165.956 412.247 165.378 414.025 164.692C414.716 164.427 415.249 164.111 415.592 163.773C416.038 163.334 416.233 162.828 416.233 162.328C416.233 161.826 416.038 161.322 415.592 160.883L364.707 159.965ZM411.643 162.209C411.802 162.248 411.953 162.288 412.097 162.328C411.954 162.368 411.802 162.407 411.643 162.447C407.507 163.471 399.1 164.174 389.366 164.174C379.633 164.174 371.226 163.471 367.09 162.447C366.931 162.407 366.779 162.368 366.635 162.328C366.779 162.288 366.931 162.248 367.09 162.209C371.226 161.183 379.633 160.482 389.366 160.482C399.1 160.482 407.507 161.183 411.643 162.209Z" fill="#C2AD8B" stroke="#C2AD8B"/>
<path d="M371.978 152.922C361.811 124.611 329.747 69.7657 282.828 76.8721C224.179 85.7552 237.668 147.867 192 148.186" stroke="#2D4B4D" stroke-opacity="0.52" stroke-width="2" stroke-dasharray="6 6"/>
<path d="M548.03 55.0015C549.114 53.5111 550.709 51.2776 552.1 49.323C552.887 48.2157 553.609 47.1988 554.134 46.4588C554.396 46.0888 554.609 45.788 554.756 45.5797L554.926 45.3395L554.971 45.277L554.982 45.261L554.984 45.2578L554.985 45.257L554.985 45.256L554.986 45.2557C554.986 45.2557 554.986 45.2557 555.394 45.5444L548.03 55.0015ZM548.03 55.0015C546.948 53.5039 545.342 51.2676 543.941 49.3136C543.147 48.2066 542.419 47.1904 541.889 46.451L541.261 45.5728L541.089 45.3329L541.044 45.2704L541.033 45.2545L541.03 45.2504L541.029 45.2496L541.029 45.2494L541.029 45.2492L541.008 45.2193L540.995 45.2013L540.98 45.1845L540.978 45.1818L540.968 45.1689L540.947 45.1405L540.924 45.1178L540.921 45.1134L540.905 45.0941L540.887 45.0765L540.87 45.0592L540.87 45.0592L540.851 45.0398L540.84 45.0294L540.829 45.0196L540.821 45.0121L540.812 45.003L540.792 44.9834L540.771 44.9661L540.749 44.9488L540.749 44.9488L540.744 44.9446L540.73 44.9337L540.724 44.9295L540.708 44.9164L540.696 44.9064L540.682 44.8973L540.661 44.8821L540.374 45.2917L540.661 44.8821L540.639 44.867L540.639 44.867L540.618 44.8519L540.618 44.8519L540.596 44.8368L540.573 44.8208L540.549 44.8074L540.534 44.7994L540.521 44.7917L540.498 44.7778L540.474 44.7665L540.462 44.7613L540.459 44.7596L540.443 44.7505L540.426 44.7427L540.398 44.7297L540.398 44.7297L540.391 44.7268L540.372 44.7181L540.363 44.7143L540.355 44.7108L540.322 44.6978L540.318 44.6962C532.4 41.6105 526.787 33.9049 526.787 24.8965C526.787 13.1755 536.296 3.66004 548.009 3.66004C559.722 3.66004 569.232 13.1755 569.232 24.8965C569.232 33.9044 563.619 41.6097 555.701 44.6957L548.03 55.0015ZM548.852 58.9851L548.859 58.981L548.865 58.9767C548.969 58.9074 549.221 58.6912 549.518 58.3007C550.76 56.684 556.042 49.2296 557.294 47.4597C566.151 43.8054 572.39 35.0753 572.39 24.8965C572.39 11.4315 561.466 0.5 548.009 0.5C534.552 0.5 523.628 11.4315 523.628 24.8965C523.628 35.076 529.87 43.8064 538.728 47.4624C539.98 49.2111 545.251 56.5722 546.482 58.2458L546.482 58.2466C546.642 58.4625 546.783 58.6248 546.891 58.7377C546.945 58.7942 546.99 58.8388 547.026 58.872C547.05 58.8936 547.095 58.9351 547.138 58.9638L547.142 58.9664C547.273 59.0519 547.502 59.1849 547.806 59.2283C548.124 59.2736 548.482 59.2157 548.852 58.9851Z" fill="#004F51" stroke="#2D4B4D"/>
<path d="M548.075 11.1933L548.064 11.1929H548.054H548.002H547.967H547.957L547.946 11.1933L547.894 11.1955L547.877 11.1962L547.859 11.1982L547.841 11.2003C547.841 11.2003 547.84 11.2003 547.84 11.2003C547.664 11.2198 547.497 11.2683 547.337 11.3425L547.337 11.3425L547.333 11.3447L547.291 11.3644L547.271 11.3743L547.251 11.386L547.205 11.4136C547.205 11.4138 547.204 11.414 547.204 11.4141C547.115 11.4666 547.025 11.5309 546.941 11.6089L546.941 11.6089L546.937 11.6128L546.9 11.6478L546.89 11.658L546.88 11.6687L546.843 11.7081L546.843 11.708L546.835 11.717C546.78 11.7782 546.727 11.8473 546.68 11.9204C546.549 12.1224 544.545 15.2352 542.568 19.2957C540.593 23.3507 538.6 28.4412 538.6 32.5311C538.6 34.4207 539.449 36.1527 540.76 37.525L540.76 37.5252C542.611 39.4596 545.432 40.7077 548.011 40.7077C550.589 40.7077 553.41 39.4596 555.261 37.5252L555.261 37.525C556.572 36.1527 557.421 34.4207 557.421 32.5311C557.421 28.4412 555.428 23.3507 553.453 19.2957C551.476 15.2357 549.472 12.1231 549.341 11.9204C549.294 11.8473 549.241 11.7782 549.186 11.717L549.178 11.7072L549.168 11.6978L549.134 11.6628L549.134 11.6628L549.095 11.6234L549.087 11.616L549.08 11.6089C548.996 11.5309 548.906 11.4666 548.817 11.4141C548.817 11.414 548.816 11.4138 548.816 11.4136L548.77 11.386L548.75 11.3743L548.73 11.3644L548.688 11.3447L548.688 11.3447L548.684 11.3425C548.523 11.2677 548.354 11.2197 548.181 11.2004L548.181 11.2004L548.162 11.1982L548.144 11.1962L548.127 11.1955L548.075 11.1933ZM541.769 32.5311C541.769 29.6614 542.912 26.149 544.339 22.8992C545.573 20.0871 546.998 17.5173 548.011 15.8054C549.023 17.5173 550.448 20.0871 551.682 22.8992C553.109 26.149 554.252 29.6614 554.252 32.5311C554.252 33.5358 553.761 34.4914 552.978 35.3125C551.7 36.6471 549.749 37.5181 548.011 37.5181C546.272 37.5181 544.321 36.6471 543.043 35.3125C542.26 34.4914 541.769 33.5358 541.769 32.5311Z" fill="#004F51" stroke="#2D4B4D"/>
<path d="M574.89 67.7763C575.201 67.8539 575.489 67.9318 575.751 68.01C575.489 68.0884 575.202 68.1663 574.89 68.244C569.958 69.4646 559.947 70.301 548.366 70.301C536.786 70.301 526.774 69.4646 521.843 68.244C521.531 68.1663 521.244 68.0884 520.982 68.01C521.244 67.9317 521.531 67.8538 521.843 67.7762C526.774 66.5535 536.786 65.7193 548.366 65.7193C559.947 65.7193 569.959 66.5535 574.89 67.7763ZM548.366 62.52C541.578 62.52 535.297 62.8119 530.199 63.3011C525.121 63.7884 521.167 64.4758 519.065 65.287C518.25 65.5995 517.629 65.9689 517.234 66.3584C516.72 66.8638 516.5 67.4392 516.5 68.0101C516.5 68.5783 516.72 69.1559 517.234 69.6615C517.628 70.0511 518.25 70.4206 519.065 70.7331C521.166 71.5444 525.121 72.2318 530.199 72.7191C535.297 73.2083 541.578 73.5002 548.366 73.5002C555.155 73.5002 561.436 73.2083 566.533 72.7191C571.611 72.2318 575.566 71.5444 577.668 70.7332C578.482 70.4207 579.104 70.0513 579.498 69.6619C580.012 69.1562 580.233 68.5785 580.233 68.0101C580.233 67.4394 580.012 66.8641 579.499 66.3587C579.104 65.9691 578.483 65.5995 577.668 65.287C575.566 64.4758 571.611 63.7884 566.533 63.3011C561.436 62.8119 555.155 62.52 548.366 62.52Z" fill="#004F51" stroke="#2D4B4D"/>
<path d="M740.535 171.775L740.541 171.771L740.548 171.767C740.661 171.691 740.958 171.436 741.313 170.965C742.822 168.983 749.265 159.809 750.749 157.693C761.457 153.249 768.999 142.609 768.999 130.207C768.999 113.815 755.816 100.5 739.568 100.5C723.319 100.5 710.136 113.815 710.136 130.207C710.136 142.61 717.682 153.25 728.39 157.696C729.874 159.787 736.304 168.847 737.801 170.9L737.802 170.9C737.992 171.16 738.16 171.355 738.288 171.49C738.351 171.557 738.405 171.61 738.447 171.649C738.476 171.677 738.525 171.721 738.569 171.751L738.573 171.754C738.726 171.855 738.989 172.008 739.336 172.058C739.697 172.11 740.107 172.044 740.535 171.775ZM744.608 160.127C742.887 162.568 740.906 165.365 739.593 167.186C738.282 165.356 736.288 162.556 734.554 160.116C733.592 158.763 732.71 157.521 732.069 156.618L731.307 155.544L731.099 155.251L731.045 155.175L731.031 155.155L731.027 155.15L731.027 155.149L731.027 155.149L731.026 155.149L731 155.112L730.988 155.094L730.973 155.077L730.968 155.071L730.954 155.053L730.933 155.024L730.908 154.999L730.907 154.998L730.9 154.988L730.884 154.969L730.866 154.951L730.845 154.93L730.822 154.906L730.812 154.896L730.801 154.886L730.788 154.875L730.775 154.862L730.755 154.842L730.734 154.824L730.708 154.803L730.708 154.803L730.702 154.799L730.684 154.785L730.679 154.781L730.658 154.764L730.645 154.754L730.632 154.744L730.606 154.726L730.58 154.707L730.58 154.707L730.554 154.689L730.554 154.689L730.528 154.67L730.505 154.654L730.48 154.641L730.461 154.63L730.443 154.619L730.42 154.605L730.395 154.594L730.378 154.586L730.371 154.582L730.355 154.573L730.338 154.565L730.304 154.549L730.304 154.549L730.297 154.546L730.274 154.535L730.265 154.532L730.256 154.528L730.217 154.512L730.213 154.511C720.582 150.724 713.751 141.267 713.751 130.207C713.751 115.816 725.323 104.14 739.568 104.14C753.812 104.14 765.384 115.816 765.384 130.207C765.384 141.266 758.553 150.723 748.924 154.51C748.592 154.639 748.307 154.865 748.105 155.156L748.104 155.157L748.104 155.158L748.103 155.158L748.1 155.163L748.086 155.182L748.033 155.259L747.827 155.552C747.648 155.807 747.39 156.174 747.072 156.627C746.437 157.531 745.563 158.774 744.608 160.127Z" fill="#C2AD8B" stroke="#C2AD8B"/>
<path d="M739.642 113.57L739.631 113.569H739.62H739.557H739.515H739.505L739.494 113.57L739.431 113.572L739.414 113.573L739.396 113.575L739.373 113.578C739.373 113.578 739.373 113.578 739.373 113.578C739.171 113.6 738.979 113.656 738.795 113.743L738.795 113.743L738.791 113.745L738.741 113.769L738.72 113.779L738.7 113.791L738.644 113.825C738.644 113.825 738.643 113.825 738.643 113.825C738.541 113.886 738.438 113.96 738.343 114.05L738.343 114.05L738.339 114.054L738.294 114.096L738.283 114.107L738.273 114.117L738.229 114.166L738.229 114.165L738.221 114.174C738.158 114.245 738.097 114.325 738.044 114.409C737.89 114.65 735.463 118.452 733.069 123.412C730.677 128.367 728.272 134.568 728.272 139.538C728.272 141.812 729.285 143.902 730.859 145.564L730.859 145.564C733.082 147.908 736.473 149.421 739.568 149.421C742.663 149.421 746.054 147.908 748.276 145.564L748.277 145.564C749.851 143.902 750.863 141.812 750.863 139.538C750.863 134.568 748.459 128.367 746.067 123.412C743.673 118.452 741.246 114.65 741.092 114.409C741.039 114.325 740.978 114.245 740.915 114.174L740.906 114.165L740.897 114.155L740.855 114.112L740.855 114.112L740.808 114.064L740.801 114.057L740.793 114.05C740.698 113.96 740.595 113.886 740.493 113.825C740.492 113.825 740.492 113.825 740.492 113.825L740.435 113.791L740.416 113.779L740.395 113.769L740.345 113.745L740.345 113.745L740.34 113.743C740.156 113.656 739.961 113.6 739.763 113.578L739.763 113.578L739.74 113.575L739.722 113.573L739.705 113.572L739.642 113.57ZM731.901 139.538C731.901 136.006 733.294 131.695 735.023 127.72C736.558 124.192 738.335 120.977 739.568 118.884C740.8 120.977 742.578 124.192 744.113 127.72C745.842 131.695 747.235 136.006 747.235 139.538C747.235 140.805 746.621 142 745.661 143.016C744.093 144.667 741.703 145.745 739.568 145.745C737.432 145.745 735.042 144.667 733.475 143.016C732.514 142 731.901 140.805 731.901 139.538Z" fill="#C2AD8B" stroke="#C2AD8B"/>
<path d="M772.157 182.507C772.675 182.637 773.139 182.769 773.547 182.901C773.139 183.034 772.676 183.165 772.157 183.295C766.171 184.79 754.031 185.812 740 185.812C725.969 185.812 713.83 184.79 707.843 183.295C707.324 183.165 706.861 183.034 706.453 182.901C706.861 182.769 707.325 182.637 707.843 182.507C713.829 181.01 725.969 179.99 740 179.99C754.031 179.99 766.171 181.01 772.157 182.507ZM740 176.302C731.779 176.302 724.172 176.659 718.001 177.256C711.848 177.852 707.07 178.691 704.538 179.677C703.558 180.056 702.82 180.501 702.356 180.963C701.754 181.561 701.5 182.236 701.5 182.901C701.5 183.563 701.753 184.241 702.356 184.839C702.819 185.301 703.558 185.746 704.538 186.125C707.07 187.111 711.848 187.95 718.001 188.546C724.172 189.144 731.779 189.5 740 189.5C748.221 189.5 755.828 189.144 761.999 188.546C768.152 187.95 772.931 187.111 775.462 186.125C776.442 185.746 777.18 185.301 777.644 184.839C778.247 184.241 778.5 183.563 778.5 182.901C778.5 182.236 778.246 181.562 777.644 180.964C777.181 180.502 776.442 180.057 775.462 179.677C772.931 178.692 768.152 177.852 761.999 177.256C755.828 176.659 748.221 176.302 740 176.302Z" fill="#C2AD8B" stroke="#C2AD8B"/>
<path d="M559.749 277.063L559.75 277.064L559.752 277.068L559.762 277.081L559.8 277.135L559.948 277.342L560.49 278.098C560.946 278.735 561.573 279.61 562.256 280.563C563.439 282.212 564.791 284.095 565.721 285.383C566.652 284.101 567.995 282.221 569.169 280.571C569.847 279.618 570.468 278.742 570.92 278.105C571.146 277.786 571.329 277.527 571.456 277.348L571.603 277.141L571.641 277.087L571.651 277.074L571.652 277.071L571.653 277.07L571.654 277.069L571.654 277.069L559.749 277.063ZM559.749 277.063L559.749 277.063L559.749 277.063L559.73 277.037L559.718 277.019L559.703 277.003L559.703 277.002L559.696 276.993L559.674 276.964L559.654 276.944L559.653 276.943L559.637 276.923L559.62 276.906L559.605 276.891L559.588 276.874L559.578 276.864L559.567 276.854L559.561 276.849L559.554 276.842L559.535 276.823L559.513 276.805L559.495 276.791L559.495 276.791L559.489 276.786L559.478 276.778L559.473 276.773L559.459 276.763L559.447 276.753L559.434 276.744L559.415 276.731L559.128 277.14L559.415 276.731L559.397 276.718L559.397 276.717L559.378 276.705L559.378 276.704L559.359 276.691L559.337 276.675L559.312 276.662L559.301 276.656L559.291 276.65L559.268 276.636L559.243 276.625L559.236 276.621L559.236 276.621L559.219 276.612L559.202 276.604L559.178 276.593L559.178 276.593L559.172 276.59L559.155 276.583L559.146 276.579L559.138 276.575L559.11 276.564L559.105 276.563C552.313 273.916 547.498 267.305 547.498 259.578C547.498 249.523 555.655 241.36 565.703 241.36C575.751 241.36 583.909 249.523 583.909 259.578C583.909 267.305 579.094 273.915 572.302 276.562L559.749 277.063ZM566.466 288.991L566.472 288.986L566.479 288.982C566.576 288.917 566.799 288.725 567.057 288.385C568.124 286.996 572.645 280.616 573.743 279.064C581.385 275.902 586.767 268.365 586.767 259.578C586.767 247.944 577.33 238.5 565.703 238.5C554.077 238.5 544.639 247.944 544.639 259.578C544.639 268.365 550.023 275.903 557.666 279.066C558.764 280.6 563.275 286.9 564.332 288.336L564.332 288.337C564.472 288.525 564.595 288.667 564.69 288.767C564.737 288.816 564.777 288.856 564.81 288.885C564.829 288.903 564.872 288.943 564.914 288.971L564.918 288.974C565.035 289.05 565.242 289.17 565.519 289.21C565.808 289.251 566.134 289.198 566.466 288.991Z" fill="#004F51" stroke="#2D4B4D"/>
<path d="M565.762 247.708L565.751 247.708H565.741H565.696H565.666H565.656L565.645 247.708L565.6 247.71L565.583 247.711L565.566 247.713L565.55 247.715C565.55 247.715 565.549 247.715 565.549 247.715C565.39 247.732 565.238 247.776 565.094 247.843L565.094 247.843L565.09 247.846L565.054 247.862L565.034 247.872L565.014 247.884L564.974 247.908C564.974 247.908 564.974 247.908 564.974 247.908C564.894 247.956 564.812 248.014 564.736 248.085L564.736 248.085L564.731 248.089L564.7 248.119L564.689 248.129L564.679 248.14L564.647 248.174L564.647 248.174L564.639 248.183C564.59 248.238 564.542 248.3 564.5 248.366C564.384 248.544 562.658 251.226 560.954 254.724C559.254 258.217 557.53 262.613 557.53 266.152C557.53 267.801 558.271 269.309 559.41 270.5L559.41 270.501C561.016 272.179 563.463 273.262 565.704 273.262C567.944 273.262 570.391 272.179 571.997 270.501L571.997 270.5C573.136 269.309 573.877 267.801 573.877 266.152C573.877 262.613 572.153 258.217 570.453 254.724C568.749 251.226 567.022 248.544 566.907 248.366C566.865 248.3 566.817 248.238 566.768 248.183L566.759 248.173L566.75 248.163L566.72 248.133L566.72 248.133L566.686 248.099L566.679 248.092L566.672 248.085C566.595 248.014 566.513 247.956 566.434 247.908C566.433 247.908 566.433 247.908 566.433 247.908L566.393 247.884L566.373 247.872L566.353 247.862L566.317 247.846L566.317 247.845L566.313 247.843C566.168 247.776 566.014 247.732 565.858 247.715L565.858 247.715L565.841 247.713L565.824 247.711L565.807 247.71L565.762 247.708ZM560.399 266.152C560.399 263.696 561.378 260.682 562.605 257.886C563.642 255.522 564.837 253.358 565.704 251.886C566.57 253.358 567.765 255.522 568.802 257.886C570.029 260.682 571.008 263.696 571.008 266.152C571.008 266.994 570.597 267.8 569.931 268.499C568.842 269.636 567.18 270.377 565.704 270.377C564.227 270.377 562.565 269.636 561.476 268.499C560.81 267.8 560.399 266.994 560.399 266.152Z" fill="#004F51" stroke="#2D4B4D"/>
<path d="M550.359 292.579C554.751 292.157 560.163 291.906 566.01 291.906C571.857 291.906 577.268 292.157 581.66 292.579C586.033 292.998 589.447 293.591 591.267 294.293C591.973 294.564 592.518 294.887 592.867 295.231C592.867 295.231 592.867 295.232 592.868 295.232L592.516 295.587C592.88 295.945 593.02 296.332 593.02 296.703C593.02 297.072 592.88 297.46 592.516 297.818L550.359 292.579ZM550.359 292.579C545.987 292.998 542.573 293.591 540.753 294.293C540.046 294.564 539.501 294.887 539.153 295.231C538.698 295.679 538.5 296.192 538.5 296.703C538.5 297.211 538.698 297.726 539.153 298.174C539.502 298.519 540.047 298.841 540.753 299.112C542.573 299.815 545.987 300.407 550.359 300.827C554.751 301.248 560.163 301.5 566.01 301.5C571.857 301.5 577.268 301.248 581.66 300.827C586.033 300.407 589.447 299.815 591.267 299.112C591.973 298.841 592.518 298.519 592.867 298.174L550.359 292.579ZM588.833 296.569C589.012 296.613 589.181 296.658 589.341 296.703C589.181 296.748 589.012 296.792 588.833 296.837C584.595 297.886 575.981 298.606 566.01 298.606C556.039 298.606 547.425 297.886 543.187 296.837C543.008 296.792 542.838 296.748 542.679 296.703C542.839 296.658 543.008 296.613 543.187 296.569C547.425 295.518 556.039 294.8 566.01 294.8C575.981 294.8 584.595 295.518 588.833 296.569Z" fill="#004F51" stroke="#2D4B4D"/>
<path d="M467.414 442.372C468.26 441.271 471.819 436.249 472.721 434.974C478.827 432.435 483.124 426.407 483.124 419.38C483.124 410.063 475.566 402.5 466.255 402.5C456.944 402.5 449.386 410.063 449.386 419.38C449.386 426.407 453.686 432.436 459.792 434.976C460.694 436.236 464.245 441.195 465.081 442.332L465.082 442.333C465.195 442.486 465.296 442.603 465.375 442.685C465.414 442.726 465.447 442.759 465.475 442.784L465.475 442.784C465.49 442.798 465.53 442.835 465.571 442.862L465.575 442.865C465.672 442.928 465.852 443.034 466.094 443.068C466.349 443.105 466.632 443.057 466.916 442.879L466.923 442.875L466.929 442.871C467.019 442.811 467.204 442.649 467.414 442.372ZM467.414 442.372C467.414 442.373 467.414 442.373 467.414 442.373L467.017 442.069M467.414 442.372C467.415 442.372 467.415 442.371 467.415 442.371L467.017 442.069M467.017 442.069C467.883 440.942 471.656 435.615 472.397 434.566L466.652 442.455C466.683 442.434 466.829 442.316 467.017 442.069ZM461.599 433.239L461.599 433.24L461.601 433.243L461.609 433.254L461.639 433.296L461.757 433.461L462.188 434.063C462.551 434.57 463.05 435.266 463.594 436.025C464.501 437.29 465.533 438.727 466.27 439.747C467.006 438.732 468.031 437.297 468.931 436.032C469.471 435.273 469.965 434.576 470.325 434.069L470.752 433.466L470.868 433.302L470.898 433.259L470.906 433.248L470.907 433.246L470.908 433.245L470.909 433.244L470.909 433.244L461.599 433.239ZM461.599 433.239L461.598 433.239L461.598 433.239L461.584 433.219L461.571 433.201L461.558 433.186L461.555 433.181L461.533 433.153L461.516 433.135L461.502 433.119L461.485 433.101L461.473 433.089L461.473 433.089L461.46 433.076L461.449 433.065L461.438 433.056L461.436 433.054L461.433 433.051L461.413 433.031L461.392 433.014L461.377 433.002L461.377 433.002L461.372 432.998L461.361 432.989L461.349 432.98L461.336 432.97L461.323 432.96L461.308 432.95L461.294 432.94L461.294 432.94L461.279 432.929L461.279 432.929L461.264 432.919L461.241 432.903L461.217 432.89L461.209 432.886L461.203 432.882L461.18 432.868L461.156 432.857L461.153 432.856L461.14 432.848L461.123 432.841L461.104 432.832L461.104 432.832L461.097 432.829L461.084 432.823L461.076 432.819L461.067 432.816L461.045 432.807L461.045 432.807L461.04 432.805C455.671 430.713 451.865 425.488 451.865 419.38C451.865 411.432 458.314 404.981 466.255 404.981C474.197 404.981 480.645 411.432 480.645 419.38C480.645 425.487 476.839 430.712 471.471 432.805L461.599 433.239Z" fill="#C2AD8B" stroke="#C2AD8B"/>
<path d="M466.306 409.83L466.296 409.83L466.122 409.836L466.177 410.333L466.121 409.836L466.121 409.836C465.983 409.851 465.851 409.889 465.728 409.947L465.728 409.947L465.723 409.949L465.695 409.963L465.674 409.972L465.654 409.984L465.623 410.003C465.623 410.003 465.623 410.003 465.622 410.003C465.553 410.044 465.482 410.095 465.416 410.157L465.415 410.157L465.411 410.161L465.386 410.185L465.375 410.195L465.365 410.206L465.34 410.233L465.34 410.232L465.332 410.241C465.29 410.289 465.248 410.343 465.211 410.401C465.116 410.547 463.741 412.685 462.383 415.472C461.029 418.253 459.647 421.771 459.647 424.613C459.647 425.957 460.251 427.182 461.172 428.145L461.172 428.145C462.469 429.5 464.443 430.375 466.255 430.375C468.068 430.375 470.042 429.5 471.339 428.145L471.339 428.145C472.259 427.182 472.863 425.957 472.863 424.613C472.863 421.771 471.481 418.253 470.127 415.472C468.77 412.685 467.395 410.547 467.3 410.401C467.263 410.343 467.221 410.289 467.179 410.241L467.17 410.232L467.161 410.222L467.137 410.198L467.137 410.198L467.11 410.171L467.103 410.164L467.095 410.157C467.028 410.094 466.957 410.044 466.888 410.003L466.857 409.984L466.837 409.972L466.816 409.963L466.788 409.949L466.788 409.949L466.783 409.947C466.658 409.889 466.525 409.851 466.39 409.836L466.39 409.836L466.377 409.834L466.359 409.832L466.342 409.832L466.306 409.83ZM462.135 424.613C462.135 422.68 462.907 420.297 463.883 418.074C464.672 416.276 465.575 414.623 466.255 413.459C466.935 414.623 467.839 416.276 468.628 418.074C469.604 420.297 470.376 422.68 470.376 424.613C470.376 425.249 470.065 425.867 469.546 426.411C468.698 427.297 467.401 427.874 466.255 427.874C465.11 427.874 463.813 427.297 462.964 426.411C462.445 425.867 462.135 425.249 462.135 424.613Z" fill="#C2AD8B" stroke="#C2AD8B"/>
<path d="M454.032 445.547C457.532 445.211 461.843 445.011 466.5 445.011C471.157 445.011 475.468 445.211 478.968 445.547C482.448 445.881 485.178 446.354 486.641 446.918C487.21 447.137 487.658 447.4 487.95 447.687L454.032 445.547ZM454.032 445.547C450.552 445.881 447.822 446.354 446.359 446.918M454.032 445.547L446.359 446.918M446.359 446.918C445.789 447.137 445.341 447.4 445.05 447.688C444.669 448.062 444.5 448.497 444.5 448.932C444.5 449.365 444.669 449.801 445.05 450.176C445.341 450.464 445.789 450.727 446.359 450.945C447.822 451.51 450.552 451.982 454.032 452.316C457.532 452.652 461.843 452.852 466.5 452.852C471.157 452.852 475.468 452.652 478.968 452.316C482.448 451.982 485.178 451.51 486.641 450.945M446.359 446.918L487.95 450.176M486.641 450.945C486.641 450.945 486.641 450.945 486.641 450.945L486.462 450.478L486.642 450.945C486.641 450.945 486.641 450.945 486.641 450.945ZM486.641 450.945C487.21 450.727 487.658 450.464 487.95 450.176M487.95 450.176L487.599 449.82L487.951 450.175C487.95 450.175 487.95 450.175 487.95 450.176C488.331 449.801 488.5 449.365 488.5 448.932C488.5 448.497 488.331 448.063 487.951 447.688L487.95 450.176ZM484.673 448.932C484.663 448.934 484.653 448.937 484.642 448.939C481.281 449.771 474.435 450.345 466.5 450.345C458.565 450.345 451.718 449.771 448.358 448.939L484.673 448.932ZM466.5 447.519C474.436 447.519 481.282 448.091 484.642 448.924L448.358 448.924C451.718 448.091 458.564 447.519 466.5 447.519Z" fill="#C2AD8B" stroke="#C2AD8B"/>
<path d="M229.117 413.579L229.124 413.574L229.13 413.57C229.242 413.496 229.53 413.251 229.872 412.8C231.325 410.908 237.52 402.164 238.956 400.135C249.271 395.89 256.539 385.728 256.539 373.879C256.539 358.216 243.832 345.5 228.178 345.5C212.524 345.5 199.816 358.216 199.816 373.879C199.816 385.729 207.088 395.891 217.404 400.138C218.839 402.143 225.022 410.779 226.463 412.737L226.464 412.738C226.647 412.987 226.81 413.174 226.933 413.303C226.995 413.368 227.047 413.419 227.088 413.456C227.116 413.482 227.164 413.526 227.208 413.555L227.212 413.558C227.36 413.655 227.616 413.802 227.953 413.851C228.303 413.901 228.702 413.837 229.117 413.579ZM219.967 397.674L219.967 397.673L219.967 397.673L219.966 397.673L219.941 397.638L219.929 397.62L219.914 397.603L219.91 397.598L219.897 397.58L219.876 397.552L219.85 397.527L219.844 397.518L219.828 397.499L219.81 397.481L219.79 397.461L219.767 397.439L219.757 397.428L219.746 397.418L219.734 397.408L219.722 397.396L219.702 397.376L219.681 397.359L219.656 397.339L219.656 397.339L219.65 397.334L219.633 397.321L219.628 397.317L219.608 397.301L219.595 397.291L219.582 397.282L219.557 397.264L219.27 397.674L219.557 397.264L219.532 397.246L219.507 397.229L219.507 397.229L219.481 397.211L219.459 397.195L219.434 397.182L219.415 397.172L219.399 397.162L219.376 397.148L219.351 397.137L219.336 397.129L219.329 397.126L219.313 397.117L219.296 397.109L219.263 397.094L219.263 397.094L219.257 397.091L219.234 397.081L219.225 397.077L219.217 397.073L219.179 397.058L219.175 397.057C209.906 393.445 203.335 384.424 203.335 373.879C203.335 360.159 214.467 349.02 228.178 349.02C241.889 349.02 253.021 360.159 253.021 373.879C253.021 384.424 246.45 393.444 237.182 397.056C236.86 397.18 236.582 397.399 236.385 397.68L236.385 397.68L236.384 397.681L236.384 397.682L236.381 397.686L236.368 397.705L236.316 397.778L236.118 398.058C235.946 398.301 235.697 398.652 235.391 399.083C234.779 399.947 233.937 401.133 233.018 402.425C231.366 404.746 229.467 407.405 228.202 409.144C226.939 407.397 225.028 404.735 223.364 402.414C222.437 401.123 221.588 399.937 220.97 399.075L220.237 398.05L220.036 397.77L219.984 397.697L219.971 397.679L219.967 397.674Z" fill="#2D4B4D" stroke="#2D4B4D"/>
<path d="M228.25 357.976L228.239 357.975H228.229H228.168H228.128H228.117L228.107 357.976L228.046 357.978L228.028 357.979L228.011 357.981L227.989 357.983C227.989 357.983 227.989 357.983 227.989 357.983C227.793 358.005 227.606 358.059 227.428 358.142L227.428 358.142L227.423 358.144L227.375 358.167L227.355 358.177L227.335 358.189L227.281 358.221C227.281 358.221 227.28 358.221 227.28 358.221C227.181 358.28 227.081 358.352 226.988 358.438L226.988 358.438L226.983 358.442L226.94 358.483L226.93 358.493L226.92 358.504L226.877 358.55L226.877 358.55L226.869 358.559C226.807 358.627 226.748 358.704 226.697 358.785C226.547 359.017 224.209 362.646 221.904 367.382C219.6 372.112 217.282 378.036 217.282 382.786C217.282 384.965 218.261 386.966 219.78 388.555L219.78 388.555C221.924 390.796 225.194 392.242 228.178 392.242C231.162 392.242 234.432 390.796 236.576 388.555L236.577 388.555C238.096 386.966 239.074 384.965 239.074 382.786C239.074 378.036 236.756 372.112 234.453 367.382C232.147 362.646 229.81 359.017 229.66 358.785C229.609 358.704 229.549 358.627 229.488 358.559L229.479 358.549L229.47 358.54L229.43 358.499L229.429 358.499L229.384 358.453L229.377 358.445L229.369 358.438C229.276 358.352 229.176 358.28 229.077 358.222C229.076 358.221 229.076 358.221 229.076 358.221L229.022 358.189L229.002 358.177L228.981 358.167L228.933 358.144L228.933 358.144L228.929 358.142C228.749 358.058 228.56 358.005 228.368 357.983L228.368 357.983L228.345 357.981L228.328 357.979L228.311 357.978L228.25 357.976ZM220.814 382.786C220.814 379.42 222.153 375.309 223.818 371.516C225.289 368.164 226.992 365.107 228.178 363.11C229.364 365.107 231.067 368.164 232.538 371.516C234.203 375.309 235.543 379.42 235.543 382.786C235.543 383.987 234.957 385.121 234.034 386.089C232.528 387.661 230.231 388.688 228.178 388.688C226.126 388.688 223.829 387.661 222.323 386.089C221.4 385.121 220.814 383.987 220.814 382.786Z" fill="#2D4B4D" stroke="#2D4B4D"/>
<path d="M207.407 418.767C213.351 418.197 220.676 417.856 228.594 417.856C236.512 417.856 243.837 418.197 249.781 418.767C255.705 419.336 260.308 420.137 262.749 421.079C263.694 421.441 264.407 421.867 264.856 422.311C264.857 422.311 264.857 422.311 264.857 422.311L264.506 422.667C264.999 423.152 265.188 423.675 265.188 424.178C265.188 424.679 264.999 425.205 264.506 425.689L207.407 418.767ZM207.407 418.767C201.483 419.336 196.879 420.137 194.439 421.079C193.494 421.441 192.781 421.867 192.332 422.311C191.748 422.885 191.5 423.536 191.5 424.178C191.5 424.818 191.747 425.471 192.331 426.045C192.78 426.489 193.494 426.915 194.439 427.277L207.407 418.767ZM259.558 423.825C260.028 423.941 260.451 424.059 260.826 424.178C260.451 424.297 260.028 424.415 259.558 424.532C253.794 425.959 242.106 426.934 228.594 426.934C215.082 426.934 203.394 425.959 197.63 424.532C197.16 424.415 196.737 424.297 196.362 424.178C196.737 424.059 197.16 423.941 197.63 423.824C203.394 422.395 215.082 421.422 228.594 421.422C242.106 421.422 253.795 422.395 259.558 423.825Z" fill="#2D4B4D" stroke="#2D4B4D"/>
<path d="M384 180C390.167 185.333 414.3 194.4 461.5 188C508.7 181.6 536.167 116.667 544 85" stroke="#2D4B4D" stroke-opacity="0.52" stroke-width="2" stroke-dasharray="6 6"/>
<path d="M573 56.1723C630.167 22.8389 697 -13.9999 759 43.5001C821.146 101.136 791.167 170.839 779.5 178.172" stroke="#2D4B4D" stroke-opacity="0.52" stroke-width="2" stroke-dasharray="6 6"/>
<path d="M716.5 199C704.5 194.833 677.2 192 664 214C647.5 241.5 695.5 253 652.5 291.5C618.157 322.249 606 309 595 306.5" stroke="#2D4B4D" stroke-opacity="0.52" stroke-width="2" stroke-dasharray="6 6"/>
<path d="M539 309C526.5 315.667 509 333.3 539 350.5C576.5 372 614.5 360 623 397.5C631.5 435 624.5 472 560.5 467C509.3 463 503.667 446.5 495 444.5" stroke="#2D4B4D" stroke-opacity="0.52" stroke-width="2" stroke-dasharray="6 6"/>
<path d="M445 441.733C436.988 440.25 418.168 439.953 406.988 450.633C393.012 463.984 391.894 486.234 350.528 472.884C309.161 459.533 282.329 418 265 418" stroke="#2D4B4D" stroke-opacity="0.52" stroke-width="2" stroke-dasharray="6 6"/>
<path d="M182.04 424.07C161.249 425.546 118.597 433.734 114.325 454.683C108.985 480.87 115.171 501.846 78.896 515.643C49.8758 526.68 20.6449 534.053 9.65699 536.36" stroke="#2D4B4D" stroke-opacity="0.52" stroke-dasharray="6 6"/>
</svg>
