<svg width="1895" height="662" viewBox="0 0 1895 662" fill="none" xmlns="http://www.w3.org/2000/svg">
<path d="M1919.91 767.705C1917.5 749.892 1899.46 798.489 1795.93 727.22C1852.2 737.882 1876.59 721.27 1891.03 711.957C1859.88 719.662 1849.95 708.723 1849.95 708.723C1849.95 708.723 1910.89 689.691 1905.93 673.911C1900.96 658.131 1898.69 692.943 1831.88 673.911C1765.07 654.878 1762.37 620.86 1762.37 620.86C1762.37 620.86 1773.21 618.033 1774.09 610.328C1802.77 622.283 1838.89 615.188 1851.54 607.501C1820.16 609.349 1804.15 597.172 1804.15 597.172C1804.15 597.172 1822.2 586.233 1829.43 573.686C1815.65 580.375 1769.68 568.143 1736.35 519.638C1774.28 518.012 1789.03 502.897 1772.78 492.642C1793.23 495.062 1816.04 480.76 1813.98 476.178C1794.12 481.296 1767.62 478.598 1761.01 471.318C1754.4 464.038 1738.35 446.207 1738.35 446.207C1738.35 446.207 1751.6 450.808 1759.57 447.833C1767.54 444.858 1768 440.441 1773.27 442.03C1778.54 443.62 1782.15 440.534 1778.69 435.009C1775.23 429.484 1772.96 426.638 1764.7 423.534C1756.44 420.43 1744.98 412.447 1740.62 395.595C1736.25 378.743 1729.63 378.965 1729.63 378.965C1729.63 378.965 1730.91 296.701 1710.82 294.872C1690.74 293.042 1703.37 339.81 1685.75 358.03C1668.14 376.249 1665.67 380.721 1648.52 381.312C1631.38 381.903 1637.01 398.533 1653.04 401.36C1644.57 405.61 1622.34 402.173 1622.34 402.173C1627.09 406.046 1632.65 409.041 1638.7 410.987C1647.49 413.408 1662.39 412.835 1662.39 412.835C1662.39 412.835 1659.46 426.491 1670.98 430.445C1669.62 437.115 1638.24 448.923 1638.24 448.923C1638.24 448.923 1659.13 435.471 1651.78 429.706C1644.42 423.941 1639.25 429.595 1629.32 431.313C1619.39 433.032 1617.07 432.293 1598.11 429.059C1579.16 425.825 1570.3 422.111 1553.59 412.429C1536.88 402.746 1520.75 384.601 1520.75 384.601L1536.45 384.804L1525.39 374.475C1525.39 374.475 1553.03 375.898 1569.74 373.865C1586.45 371.833 1597.14 365.864 1594.42 358.473C1591.7 351.082 1585.17 351.396 1576.15 349.567C1567.13 347.737 1564.18 342.175 1554.7 338.905C1545.23 335.634 1539.05 339.441 1532.04 332.567C1525.04 325.693 1490.96 310.153 1481.46 294.096C1500.89 298.42 1520.9 288.829 1519.84 282.085C1518.79 275.341 1512.02 280.607 1504.19 279.923C1496.36 279.239 1493.89 270.481 1493.89 270.481C1493.89 270.481 1508.04 274.657 1521.43 271.017C1534.82 267.377 1537.91 254.959 1536.78 252.668C1535.65 250.377 1531.07 251.042 1521.88 251.855C1512.7 252.668 1501.28 248.751 1499.76 240.916C1498.23 233.081 1489.09 222.974 1480.21 220.276C1482.61 219.765 1484.77 218.604 1486.41 216.952C1488.05 215.299 1489.09 213.234 1489.37 211.037C1491.26 213.359 1493.85 215.142 1496.84 216.171C1499.83 217.201 1503.09 217.433 1506.23 216.839C1517.06 214.677 1514.06 202.057 1507.73 197.123C1501.41 192.19 1495.1 187.404 1490.59 172.843C1486.08 158.282 1478.85 152.314 1478.85 142.336C1478.85 132.358 1469.23 92.4454 1459.27 93.203C1449.32 93.9606 1452.66 110.203 1452.35 114.249C1452.04 118.296 1445.14 127.184 1444.54 140.119C1443.95 153.053 1421.37 184.466 1416.24 193.557C1411.11 202.648 1380.74 199.23 1378.93 218.133C1377.11 237.036 1404.21 218.669 1404.21 226.503C1404.21 234.338 1389.78 241.286 1372.6 244.316C1355.42 247.346 1363.87 250.247 1350.33 253.758C1336.8 257.269 1330.78 268.873 1330.47 274.084C1317.08 272.236 1310.01 267.469 1310.01 267.469C1310.81 270.004 1312.21 272.35 1314.13 274.343C1303.83 275.304 1301.77 272.735 1301.77 272.735C1301.77 272.735 1305.38 282.713 1324.81 283.526C1344.23 284.339 1350.37 290.917 1365.72 289.328C1353.69 294.188 1346.91 303.242 1337.74 304.111C1328.58 304.979 1306.74 307.363 1295.9 317.618C1285.06 327.873 1281.32 321.665 1281.48 329.352C1281.64 337.039 1287.21 333.269 1291.78 334.895C1296.35 336.521 1306.68 341.233 1320.62 341.769C1334.57 342.305 1339.89 338.535 1339.89 338.535C1339.89 338.535 1339.43 350.01 1347.26 352.579C1343.51 361.818 1338.24 362.834 1331.91 363.093C1325.59 363.351 1320.34 366.603 1320.62 371.611C1320.91 376.618 1325.9 379.575 1336.59 379.575C1347.28 379.575 1366.98 376.064 1366.98 376.064C1366.98 376.064 1340.42 410.877 1291.88 424.107L1284.96 421.298C1284.96 421.298 1291.49 415.755 1291.27 410.211C1313.62 408.604 1328.06 400.492 1325.82 393.415C1323.57 386.338 1306.61 397.462 1280 373.089C1253.38 348.717 1249.3 339.274 1246.35 333.417C1244.42 329.802 1241.04 326.977 1236.88 325.508C1244.93 324.636 1252.93 323.34 1260.82 321.628C1271.12 319.207 1273.18 312.112 1269.41 307.862C1265.64 303.612 1262.63 304.018 1258.57 304.018C1254.51 304.018 1249.2 298.955 1244.01 298.475C1238.81 297.995 1236.9 295.038 1237 291.084C1237.1 287.129 1233.62 284.709 1232.39 284.801C1231.15 284.894 1236.51 276.8 1231.36 273.567C1226.2 270.333 1225.96 269.871 1226.06 268.3C1226.16 266.73 1233.17 262.24 1231.58 257.38C1230 252.52 1233.4 252.723 1232.39 247.661C1231.38 242.598 1230.33 240.879 1230.7 234.726C1231.07 228.573 1227.3 226.134 1227.52 220.757C1227.75 215.379 1229.44 193.742 1223.57 193.04C1217.7 192.337 1215.45 199.932 1215.12 207.619C1214.79 215.306 1207.21 231.64 1203.83 237.276C1200.45 242.912 1199.2 249.12 1200 252.169C1200.8 255.218 1195.47 259.449 1196.04 263.256C1196.62 267.062 1199.32 267.709 1199.32 271.756C1199.32 275.802 1190.85 282.085 1182.16 283.508C1173.46 284.931 1169.06 281.882 1165.68 285.226C1162.3 288.571 1164.42 295.555 1171.55 298.493C1178.68 301.431 1183.04 304.665 1188.69 303.852C1172.43 315.9 1155.52 320.759 1147.28 317.323C1139.04 313.886 1141.1 318.025 1134.92 316.805C1128.74 315.586 1117.65 313.11 1117.65 313.11C1117.65 313.11 1132.55 328.391 1145.2 331.421C1136.5 336.189 1114.71 336.798 1114.71 336.798C1114.71 336.798 1130.41 340.642 1134.81 343.875C1139.22 347.109 1175.89 343.968 1175.89 343.968C1171.73 348.742 1166.47 352.655 1160.46 355.443C1149.77 360.709 1140.15 365.162 1132.47 368.137C1124.78 371.112 1112.91 373.533 1101.77 376.766C1090.62 380 1087.47 374.068 1083.56 373.533C1079.64 372.997 1078.16 375.38 1074.39 373.126C1070.62 370.872 1056.77 371.518 1049.85 367.86C1054.82 382.31 1081.91 401.213 1103.27 404.705C1124.64 408.197 1137.29 404.576 1137.29 404.576C1137.29 404.576 1146.76 413.075 1157.46 412.54C1130.1 434.233 1115.65 441.624 1090.6 444.119C1098.84 431.775 1102.57 427.322 1101.44 425.493C1100.31 423.663 1060.81 441.495 1044.1 441.679C1027.4 441.864 1007.76 440.885 987.449 433.586C967.135 426.287 933.266 420.43 925.148 408.493C964.642 420.836 986.769 411.523 1003.02 411.523C1019.28 411.523 1038.91 400.437 1038.91 400.437C1027.48 398.927 1015.93 398.308 1004.38 398.589C993.774 381.571 969.154 377.727 943.876 366.603C994.907 385.82 1019.96 371.666 1019.96 371.666C1019.96 371.666 996.699 360.321 991.961 346.536C1017.24 347.146 1050.88 319.004 1050.88 319.004C1050.88 319.004 962.85 307.197 915.898 269.391C954.259 271.017 1001.66 257.657 1001.66 235.391C1001.66 213.125 999.872 232.139 961.037 227.298C922.202 222.457 907.76 215.139 907.76 215.139C907.76 215.139 943.422 214.326 931.247 195.294C974.511 204.533 999.419 199.359 1023.34 179.92C974.14 184.78 947.11 171.808 947.11 171.808C947.11 171.808 976.447 171.42 988.644 156.435C968.783 153.589 956.134 151.981 928.136 149.949C900.138 147.916 898.222 141.043 898.222 141.043C898.222 141.043 927.868 132.265 926.364 121.751C924.86 111.238 905.906 120.643 876.919 93.1106C901.909 106.359 914.847 98.8018 914.847 98.8018C906.343 91.1895 898.304 83.1707 890.764 74.7804C882.647 65.061 873.911 57.5035 870.903 45.345C867.896 33.1865 874.22 27.5322 868.205 21.3236C862.189 15.115 868.637 0 860.211 0C851.785 0 857.203 7.02164 851.785 18.6258C846.367 30.23 841.855 35.9027 842.164 48.0428C842.473 60.1828 808.438 96.3627 797.004 125.244C808.939 121.402 819.461 114.682 827.413 105.823C827.413 105.823 816.72 129.568 812.208 138.068C807.697 146.567 799.559 149.949 794.903 158.042C790.247 166.136 786.023 165.433 777.741 168.575C769.459 171.716 768.12 175.19 767.811 178.701C767.502 182.211 770.078 187.33 781.203 187.94C763.897 195.904 736.517 206.843 727.328 211.425C718.14 216.008 724.485 222.623 732.747 224.655C741.008 226.688 753.823 229.774 769.027 226.503C777.149 224.951 784.996 222.408 792.348 218.946C788.976 222.783 786.286 227.065 784.375 231.64C781.512 238.791 705.676 271.719 674.958 274.823C699.948 284.543 780.605 271.996 801.825 258.489C772.776 303.298 744.346 306.938 721.766 314.643C699.186 322.349 683.838 318.339 678.873 323.882C673.907 329.426 672.568 356.681 742.533 357.143C732.232 371.703 710.476 367.25 704.604 375.362C698.733 383.474 703.265 396.408 723.146 398.441C743.027 400.474 733.983 409.361 733.983 409.361C727.576 418.175 721.045 428.597 715.771 430.593C710.497 432.588 698.053 424.384 690.513 422.555C682.972 420.725 666.697 419.099 658.147 407.403C676.05 407.772 691.934 399.199 689.05 392.436C686.166 385.673 666.656 385.857 655.654 377.099C644.653 368.34 633.878 363.222 627.759 351.525C642.016 355.369 658.312 344.042 653.615 337.464C648.917 330.885 634.29 335.468 616.16 319.392C638.555 323.217 652.399 310.449 649.762 305.146C647.125 299.842 616.799 302.596 601.512 278.131C612.637 281.715 629.86 279.406 630.005 275.876C630.149 272.347 615.48 270.333 605.282 254.202C595.084 238.07 600.4 228.333 592.653 221.089C590.758 216.71 590.078 163.992 587.503 164.122C584.928 164.251 579.365 189.806 579.901 197.714C580.436 205.623 582.62 212.682 578.809 219.149C575.831 224.526 574.576 230.539 575.183 236.518C575.327 241.748 569.002 244.667 567.993 248.566C566.983 252.465 553.571 255.144 553.88 257.953C554.189 260.761 563.11 262.443 565.83 263.903C568.549 265.362 547.288 276.689 533.938 277.669C520.588 278.648 524.42 282.418 520.217 282.177C516.014 281.937 514.922 279.979 514.242 280.958C513.562 281.937 513.295 289.236 521.432 288.866C529.57 288.497 529.859 294.225 536.369 294.835C540.799 295.18 545.257 295.137 549.678 294.705C549.678 294.705 544.383 302.263 539.377 303.483C534.37 304.702 525.8 303.723 524.44 307.363C523.081 311.003 529.467 316.38 537.605 316.602C542.681 316.712 547.739 316.011 552.541 314.532C552.541 314.532 538.429 325.97 527.716 326.839C517.003 327.707 501.098 327.19 498.255 330.239C495.412 333.288 497.575 337.63 510.328 340.956C523.081 344.282 523.493 348.255 523.493 348.255C523.493 348.255 510.204 349.345 509.257 351.673C508.309 354.001 511.317 359.452 523.101 359.693C534.885 359.933 540.201 356.662 540.201 356.662C540.201 356.662 525.779 364.94 517.25 370.65C508.721 376.36 490.921 375.399 486.038 378.928C481.155 382.457 471.617 381.497 467.167 381.848C462.717 382.199 455.898 387.705 465.107 394.025C474.316 400.344 496.195 400.972 496.195 400.972C496.195 400.972 484.246 413.149 498.914 417.603C496.339 426.989 466.611 438.427 462.799 439.037C458.988 439.647 450.871 438.797 446.524 441.217C442.177 443.638 440.343 451.694 453.178 455.353C466.013 459.012 474.748 469.711 492.94 468.121C484.802 474.589 455.609 485.657 455.609 485.657C455.609 485.657 426.56 470.08 412.984 452.397C399.407 434.713 386.201 418.305 378.249 411.486C409.152 418.878 432.267 418.545 447.203 416.605C462.14 414.665 471.349 411.893 471.349 409.491C471.349 407.089 439.869 402.728 435.254 400.788C447.059 394.93 445.164 387.502 445.164 387.502C445.164 387.502 422.358 393.045 398.748 373.385C375.138 353.724 346.831 323.901 337.251 297.237C359.057 319.074 386.002 336.292 416.136 347.645C431.196 353.188 463.397 357.42 483.731 348.181C461.909 341.687 441.466 331.936 423.264 319.337C423.264 319.337 458.473 306.402 452.375 283.73C427.941 283.545 399.036 275.156 381.916 261.999C364.796 248.843 362.385 249.582 362.385 249.582C362.385 249.582 392.505 232.601 383.955 215.065C382.122 211.591 363.951 215.25 350.374 207.452C336.798 199.655 334.222 200.061 328.371 193.575C340.465 196.015 361.644 190.785 358.78 180.308C355.916 169.831 338.961 168.63 330.823 157.543C333.954 153.164 334.078 150.004 332.038 147.325C338.693 144.646 341.948 134.668 340.877 128.699C339.805 122.731 331.503 108.373 323.077 99.3562C314.65 90.3389 311.952 39.3396 308.017 39.5799C304.082 39.8201 308.017 51.8862 303.896 58.4459C299.776 65.0056 298.457 74.2815 297.716 82.689C296.974 91.0965 294.048 100.576 288.754 105.934C283.459 111.293 277.484 115.912 276.681 119.941C275.878 123.969 262.96 125.281 262.836 129.919C263.006 134.67 265.076 139.209 268.667 142.706C271.51 145.126 278.164 145.255 278.164 145.255C272.519 152.077 265.052 157.516 256.45 161.073C242.75 166.431 236.899 172.4 236.363 176.169C235.827 179.939 239.886 184.946 247.9 186.406C255.914 187.866 256.594 191.949 262.692 192.374C268.79 192.799 268.873 186.831 273.426 186.831C277.979 186.831 281.152 187.201 281.296 188.549C281.44 189.898 267.843 194.758 266.092 200.468C264.34 206.177 253.339 207.526 246.417 209.485C239.494 211.444 229.585 209.965 227.669 213.181C225.753 216.396 210.569 224.138 210.157 228.277C209.745 232.416 225.094 232.287 228.699 235.576C232.304 238.865 254.616 244.464 258.428 244.593C262.239 244.723 262.218 245.683 262.218 246.293C262.218 246.903 250.681 244.445 244.851 250.321C239.021 256.197 239.824 261.408 228.369 259.69C216.915 257.971 214.525 268.337 197.281 270.407C180.037 272.476 110.238 266.564 90.6247 243.189C99.7719 260.17 112.813 270.573 115.862 277.521C118.911 284.469 131.829 282.713 140.378 288.848C148.928 294.983 164.194 308.582 171.117 306.735C166.234 311.483 133.044 317.323 116.151 309.654C124.082 319.891 145.261 323.18 150.968 326.82C156.675 330.46 177.75 333.953 188.216 331.033C198.682 328.114 218.975 327.929 218.975 327.929C219.902 328.962 221.154 329.722 222.568 330.11C223.982 330.499 225.493 330.499 226.907 330.109C224.661 334.673 206.758 341.806 196.375 350.934C185.991 360.062 122.455 388.537 102.512 386.541C108.219 395.115 129.995 404.058 146.683 405.352C163.37 406.645 191.08 404.243 191.08 404.243C191.08 404.243 191.677 415.57 170.107 420.134C187.001 429.262 225.073 425.788 225.073 425.788C225.073 425.788 212.444 428.726 196.375 445.153C180.305 461.58 142.13 464.333 133.456 472.353C124.783 480.372 97.8354 489.519 88.1318 489.519C78.4283 489.519 50.6775 493.547 44.5587 490.073C38.4399 486.599 28.0771 493.362 43.7552 509.069C59.4333 524.775 66.7676 526.955 82.0337 526.955C97.2997 526.955 132.714 525.108 132.714 525.108C132.714 525.108 84.0732 550.866 82.6311 554.672C81.189 558.479 86.0923 568.549 106.056 567.274C126.019 565.999 168.356 556.317 182.406 544.084C180.985 554.672 188.587 557.426 194.005 557.61C199.424 557.795 215.596 552.861 232.284 538.8C223.734 551.734 187.763 591.148 153.832 607.168C119.9 623.189 82.4457 626.903 79.6644 634.202C76.8832 641.5 78.3047 652.458 103.81 653.918C129.315 655.377 147.527 656.597 147.527 656.597C147.527 656.597 105.17 698.228 77.7691 712.345C50.3684 726.462 18.8474 729.16 9.08211 726.961C-0.683221 724.762 -4.49459 735.72 7.45455 741.744C19.4037 747.767 27.8093 748.802 31.6207 751.241C35.432 753.68 53.0467 751.001 64.4602 754.161C75.8737 757.32 114.399 746.77 114.399 746.77C113.347 748.472 112.937 750.433 113.23 752.362C113.524 754.29 114.505 756.081 116.027 757.468C93.2411 769.885 90.5217 785.961 80.2001 789.86C69.8785 793.759 25.2753 806.028 15.4275 818.76H1850.03C1850.03 818.76 1922.32 785.518 1919.91 767.705ZM396.296 568.42C390.99 563.736 387.312 557.774 385.707 551.254L413.396 564.392C413.396 564.392 404.042 566.221 396.296 568.42ZM435.79 535.862L458.596 537.322L448.419 547.17L435.79 535.862ZM485.07 637.01C472.995 632.297 462.474 624.877 454.517 615.465C476.932 623.133 510.307 619.16 510.307 619.16L485.07 637.01ZM1013.59 507.424L1008.71 495.728L1020.93 483.68L1036.81 498.296L1013.59 507.424ZM1314.11 521.671L1299.44 508.514H1323.88L1314.11 521.671ZM1335.68 485.971L1314.11 476.104H1349.94L1335.68 485.971ZM1342.21 450.179L1314.11 439.776C1314.11 439.776 1357.38 439.056 1370.3 433.216C1363.37 440.589 1342.21 450.087 1342.21 450.087V450.179ZM1628.05 493.141C1622.63 495.099 1592.22 499.238 1585.44 511.175C1578.66 523.112 1616.12 534.291 1616.12 534.291C1609.94 542.569 1606.6 556.945 1606.6 556.945L1567.46 529.431H1576.03L1539.66 498.758L1560.84 505.318L1533.42 476.104C1533.42 476.104 1566.8 475.624 1576.69 481.943C1586.57 488.262 1578.31 463.465 1571.25 458.328C1591.62 462.966 1617.95 458.328 1617.95 458.328C1617.95 458.328 1602.48 469.784 1592.69 476.584C1582.91 483.384 1586.72 489.26 1611.42 486.341C1636.12 483.421 1640.47 481.943 1640.47 481.943C1640.47 481.943 1633.49 491.108 1628.05 493.048V493.141Z" fill="#2B2726" fill-opacity="0.1"/>
</svg>
