<svg width="1903" height="798" viewBox="0 0 1903 798" fill="none" xmlns="http://www.w3.org/2000/svg">
<path d="M1919.91 747.452C1917.5 730.109 1899.46 777.424 1795.93 708.034C1852.2 718.415 1876.59 702.241 1891.03 693.174C1859.88 700.676 1849.95 690.026 1849.95 690.026C1849.95 690.026 1910.89 671.496 1905.93 656.132C1900.96 640.768 1898.69 674.662 1831.88 656.132C1765.07 637.602 1762.37 604.481 1762.37 604.481C1762.37 604.481 1773.21 601.728 1774.09 594.226C1802.77 605.866 1838.89 598.958 1851.54 591.474C1820.16 593.273 1804.15 581.417 1804.15 581.417C1804.15 581.417 1822.2 570.767 1829.43 558.551C1815.65 565.064 1769.68 553.154 1736.35 505.929C1774.28 504.346 1789.03 489.63 1772.78 479.645C1793.23 482.002 1816.04 468.077 1813.98 463.615C1794.12 468.599 1767.62 465.972 1761.01 458.884C1754.4 451.796 1738.35 434.435 1738.35 434.435C1738.35 434.435 1751.6 438.914 1759.57 436.018C1767.54 433.121 1768 428.822 1773.27 430.369C1778.54 431.916 1782.15 428.912 1778.69 423.532C1775.23 418.153 1772.96 415.383 1764.7 412.36C1756.44 409.338 1744.98 401.566 1740.62 385.159C1736.25 368.751 1729.63 368.967 1729.63 368.967C1729.63 368.967 1730.91 288.874 1710.82 287.092C1690.74 285.311 1703.37 330.845 1685.75 348.584C1668.14 366.323 1665.67 370.676 1648.52 371.252C1631.38 371.828 1637.01 388.019 1653.04 390.772C1644.57 394.91 1622.34 391.563 1622.34 391.563C1627.09 395.334 1632.65 398.25 1638.7 400.145C1647.49 402.502 1662.39 401.944 1662.39 401.944C1662.39 401.944 1659.46 415.239 1670.98 419.089C1669.62 425.583 1638.24 437.079 1638.24 437.079C1638.24 437.079 1659.13 423.982 1651.78 418.369C1644.42 412.756 1639.25 418.261 1629.32 419.934C1619.39 421.608 1617.07 420.888 1598.11 417.74C1579.16 414.591 1570.3 410.975 1553.59 401.548C1536.88 392.121 1520.75 374.454 1520.75 374.454L1536.45 374.652L1525.39 364.596C1525.39 364.596 1553.03 365.981 1569.74 364.002C1586.45 362.023 1597.14 356.212 1594.42 349.016C1591.7 341.82 1585.17 342.125 1576.15 340.344C1567.13 338.563 1564.18 333.148 1554.7 329.964C1545.23 326.78 1539.05 330.486 1532.04 323.793C1525.04 317.101 1490.96 301.971 1481.46 286.337C1500.89 290.547 1520.9 281.21 1519.84 274.643C1518.79 268.077 1512.02 273.204 1504.19 272.538C1496.36 271.873 1493.89 263.345 1493.89 263.345C1493.89 263.345 1508.04 267.411 1521.43 263.867C1534.82 260.323 1537.91 248.233 1536.78 246.002C1535.65 243.771 1531.07 244.419 1521.88 245.211C1512.7 246.002 1501.28 242.188 1499.76 234.56C1498.23 226.932 1489.09 217.091 1480.21 214.465C1482.61 213.967 1484.77 212.837 1486.41 211.228C1488.05 209.619 1489.09 207.609 1489.37 205.47C1491.26 207.73 1493.85 209.466 1496.84 210.468C1499.83 211.471 1503.09 211.697 1506.23 211.119C1517.06 209.014 1514.06 196.726 1507.73 191.923C1501.41 187.119 1495.1 182.46 1490.59 168.283C1486.08 154.107 1478.85 148.296 1478.85 138.581C1478.85 128.866 1469.23 90.0065 1459.27 90.7441C1449.32 91.4817 1452.66 107.295 1452.35 111.235C1452.04 115.175 1445.14 123.829 1444.54 136.422C1443.95 149.015 1421.37 179.599 1416.24 188.451C1411.11 197.302 1380.74 193.974 1378.93 212.378C1377.11 230.782 1404.21 212.9 1404.21 220.528C1404.21 228.156 1389.78 234.92 1372.6 237.87C1355.42 240.821 1363.87 243.645 1350.33 247.064C1336.8 250.482 1330.78 261.78 1330.47 266.853C1317.08 265.054 1310.01 260.413 1310.01 260.413C1310.81 262.88 1312.21 265.165 1314.13 267.105C1303.83 268.041 1301.77 265.54 1301.77 265.54C1301.77 265.54 1305.38 275.255 1324.81 276.046C1344.23 276.838 1350.37 283.243 1365.72 281.695C1353.69 286.427 1346.91 295.242 1337.74 296.088C1328.58 296.933 1306.74 299.254 1295.9 309.239C1285.06 319.224 1281.32 313.179 1281.48 320.663C1281.64 328.147 1287.21 324.477 1291.78 326.06C1296.35 327.643 1306.68 332.231 1320.62 332.752C1334.57 333.274 1339.89 329.604 1339.89 329.604C1339.89 329.604 1339.43 340.776 1347.26 343.277C1343.51 352.272 1338.24 353.262 1331.91 353.513C1325.59 353.765 1320.34 356.932 1320.62 361.807C1320.91 366.682 1325.9 369.561 1336.59 369.561C1347.28 369.561 1366.98 366.143 1366.98 366.143C1366.98 366.143 1340.42 400.037 1291.88 412.918L1284.96 410.184C1284.96 410.184 1291.49 404.786 1291.27 399.389C1313.62 397.824 1328.06 389.926 1325.82 383.036C1323.57 376.146 1306.61 386.976 1280 363.246C1253.38 339.517 1249.3 330.324 1246.35 324.621C1244.42 321.101 1241.04 318.35 1236.88 316.921C1244.93 316.071 1252.93 314.81 1260.82 313.143C1271.12 310.786 1273.18 303.878 1269.41 299.74C1265.64 295.602 1262.63 295.998 1258.57 295.998C1254.51 295.998 1249.2 291.068 1244.01 290.601C1238.81 290.133 1236.9 287.254 1237 283.404C1237.1 279.554 1233.62 277.198 1232.39 277.288C1231.15 277.378 1236.51 269.498 1231.36 266.349C1226.2 263.201 1225.96 262.751 1226.06 261.222C1226.16 259.693 1233.17 255.321 1231.58 250.59C1230 245.858 1233.4 246.056 1232.39 241.127C1231.38 236.197 1230.33 234.524 1230.7 228.533C1231.07 222.543 1227.3 220.168 1227.52 214.933C1227.75 209.697 1229.44 188.63 1223.57 187.947C1217.7 187.263 1215.45 194.657 1215.12 202.141C1214.79 209.625 1207.21 225.529 1203.83 231.016C1200.45 236.503 1199.2 242.548 1200 245.516C1200.8 248.485 1195.47 252.605 1196.04 256.311C1196.62 260.017 1199.32 260.646 1199.32 264.586C1199.32 268.526 1190.85 274.643 1182.16 276.028C1173.46 277.414 1169.05 274.445 1165.68 277.701C1162.3 280.958 1164.42 287.758 1171.55 290.619C1178.68 293.479 1183.04 296.627 1188.69 295.836C1172.43 307.566 1155.52 312.297 1147.28 308.951C1139.04 305.605 1141.1 309.635 1134.92 308.447C1128.74 307.26 1117.65 304.849 1117.65 304.849C1117.65 304.849 1132.55 319.727 1145.2 322.678C1136.5 327.319 1114.71 327.913 1114.71 327.913C1114.71 327.913 1130.41 331.655 1134.81 334.803C1139.22 337.952 1175.89 334.893 1175.89 334.893C1171.73 339.541 1166.47 343.351 1160.46 346.065C1149.77 351.193 1140.15 355.528 1132.47 358.425C1124.78 361.321 1112.91 363.678 1101.77 366.826C1090.62 369.975 1087.47 364.2 1083.56 363.678C1079.64 363.156 1078.16 365.477 1074.39 363.282C1070.62 361.087 1056.77 361.717 1049.85 358.155C1054.82 372.224 1081.91 390.628 1103.27 394.028C1124.64 397.428 1137.29 393.902 1137.29 393.902C1137.29 393.902 1146.76 402.178 1157.46 401.656C1130.1 422.777 1115.65 429.973 1090.6 432.402C1098.84 420.384 1102.57 416.048 1101.44 414.267C1100.31 412.486 1060.81 429.847 1044.1 430.027C1027.4 430.207 1007.76 429.253 987.449 422.147C967.135 415.041 933.266 409.338 925.148 397.716C964.642 409.734 986.769 400.667 1003.02 400.667C1019.28 400.667 1038.91 389.872 1038.91 389.872C1027.48 388.402 1015.93 387.8 1004.38 388.073C993.774 371.504 969.154 367.762 943.876 356.932C994.907 375.642 1019.96 361.861 1019.96 361.861C1019.96 361.861 996.699 350.815 991.961 337.394C1017.24 337.988 1050.88 310.588 1050.88 310.588C1050.88 310.588 962.85 299.092 915.898 262.284C954.259 263.867 1001.66 250.86 1001.66 229.181C1001.66 207.502 999.872 226.015 961.037 221.301C922.202 216.588 907.76 209.463 907.76 209.463C907.76 209.463 943.422 208.672 931.247 190.142C974.511 199.137 999.419 194.1 1023.34 175.174C974.14 179.905 947.11 167.276 947.11 167.276C947.11 167.276 976.447 166.898 988.644 152.308C968.783 149.537 956.134 147.972 928.136 145.993C900.138 144.014 898.222 137.322 898.222 137.322C898.222 137.322 927.868 128.776 926.364 118.539C924.86 108.303 905.906 117.46 876.919 90.6542C901.909 103.553 914.847 96.1952 914.847 96.1952C906.343 88.7838 898.304 80.9765 890.764 72.8076C882.647 63.3446 873.911 55.9865 870.903 44.1487C867.896 32.311 874.22 26.8059 868.205 20.761C862.189 14.7162 868.637 0 860.211 0C851.785 0 857.203 6.83639 851.785 18.1344C846.367 29.4325 841.855 34.9556 842.164 46.7753C842.473 58.5951 808.438 93.8205 797.004 121.94C808.939 118.199 819.461 111.657 827.413 103.032C827.413 103.032 816.72 126.149 812.208 134.425C807.697 142.701 799.559 145.993 794.903 153.873C790.247 161.753 786.023 161.069 777.741 164.127C769.459 167.186 768.12 170.568 767.811 173.986C767.502 177.404 770.078 182.388 781.203 182.981C763.897 190.735 736.517 201.386 727.328 205.847C718.14 210.309 724.485 216.75 732.747 218.729C741.008 220.708 753.823 223.712 769.027 220.528C777.149 219.017 784.996 216.541 792.348 213.169C788.976 216.905 786.286 221.074 784.375 225.529C781.512 232.491 705.676 264.55 674.958 267.573C699.948 277.036 780.605 264.82 801.825 251.669C772.776 295.296 744.346 298.84 721.766 306.342C699.186 313.844 683.838 309.94 678.873 315.338C673.907 320.735 672.568 347.271 742.533 347.72C732.232 361.897 710.476 357.561 704.604 365.459C698.733 373.357 703.265 385.95 723.146 387.929C743.027 389.908 733.983 398.562 733.983 398.562C727.576 407.143 721.045 417.29 715.771 419.233C710.497 421.176 698.053 413.188 690.513 411.407C682.972 409.626 666.697 408.043 658.147 396.655C676.05 397.014 691.934 388.667 689.05 382.082C686.166 375.498 666.656 375.678 655.654 367.15C644.653 358.623 633.878 353.639 627.759 342.251C642.016 345.993 658.312 334.965 653.615 328.561C648.917 322.156 634.29 326.618 616.16 310.966C638.555 314.69 652.399 302.258 649.762 297.095C647.125 291.932 616.799 294.613 601.512 270.793C612.637 274.283 629.86 272.034 630.005 268.598C630.149 265.162 615.48 263.201 605.282 247.495C595.084 231.79 600.4 222.309 592.653 215.256C590.758 210.993 590.078 159.666 587.503 159.792C584.928 159.918 579.365 184.798 579.901 192.498C580.436 200.198 582.62 207.071 578.809 213.367C575.831 218.603 574.576 224.457 575.183 230.278C575.327 235.37 569.002 238.212 567.993 242.008C566.983 245.804 553.571 248.413 553.88 251.147C554.189 253.882 563.11 255.519 565.83 256.94C568.549 258.362 547.288 269.39 533.938 270.343C520.588 271.297 524.42 274.967 520.217 274.733C516.014 274.499 514.922 272.592 514.242 273.546C513.562 274.499 513.295 281.605 521.432 281.246C529.57 280.886 529.859 286.463 536.369 287.057C540.799 287.393 545.257 287.351 549.678 286.931C549.678 286.931 544.383 294.289 539.377 295.476C534.37 296.663 525.8 295.71 524.44 299.254C523.081 302.798 529.467 308.033 537.605 308.249C542.681 308.357 547.739 307.674 552.541 306.234C552.541 306.234 538.429 317.371 527.716 318.216C517.003 319.062 501.098 318.558 498.255 321.526C495.412 324.495 497.575 328.723 510.328 331.961C523.081 335.199 523.493 339.067 523.493 339.067C523.493 339.067 510.204 340.129 509.257 342.395C508.309 344.662 511.317 349.969 523.101 350.203C534.885 350.437 540.201 347.253 540.201 347.253C540.201 347.253 525.779 355.312 517.25 360.872C508.721 366.431 490.921 365.495 486.038 368.931C481.156 372.367 471.617 371.432 467.167 371.774C462.717 372.116 455.898 377.477 465.107 383.63C474.316 389.782 496.195 390.394 496.195 390.394C496.195 390.394 484.246 402.25 498.914 406.585C496.339 415.725 466.611 426.861 462.799 427.454C458.988 428.048 450.871 427.221 446.524 429.577C442.177 431.934 440.343 439.778 453.178 443.34C466.013 446.902 474.748 457.319 492.94 455.771C484.802 462.068 455.609 472.844 455.609 472.844C455.609 472.844 426.56 457.678 412.984 440.462C399.407 423.245 386.201 407.269 378.249 400.631C409.152 407.827 432.267 407.503 447.203 405.614C462.14 403.725 471.349 401.026 471.349 398.688C471.349 396.349 439.869 392.103 435.254 390.214C447.059 384.511 445.164 377.279 445.164 377.279C445.164 377.279 422.358 382.676 398.748 363.534C375.138 344.392 346.831 315.356 337.251 289.395C359.057 310.656 386.002 327.42 416.136 338.473C431.196 343.871 463.397 347.99 483.731 338.995C461.909 332.673 441.466 323.178 423.264 310.912C423.264 310.912 458.473 298.319 452.375 276.244C427.941 276.064 399.036 267.897 381.916 255.087C364.796 242.278 362.385 242.998 362.385 242.998C362.385 242.998 392.505 226.464 383.955 209.391C382.122 206.009 363.951 209.571 350.374 201.979C336.798 194.387 334.222 194.783 328.371 188.469C340.465 190.843 361.644 185.752 358.78 175.551C355.916 165.351 338.961 164.181 330.823 153.387C333.954 149.123 334.078 146.047 332.038 143.438C338.693 140.83 341.948 131.115 340.877 125.304C339.805 119.493 331.503 105.514 323.077 96.7349C314.65 87.9556 311.952 38.3018 308.017 38.5357C304.082 38.7695 308.017 50.5173 303.896 56.904C299.776 63.2906 298.457 72.3218 297.716 80.5075C296.974 88.6932 294.048 97.9223 288.754 103.14C283.459 108.357 277.484 112.854 276.681 116.776C275.878 120.698 262.96 121.976 262.836 126.491C263.006 131.118 265.076 135.536 268.667 138.941C271.51 141.297 278.164 141.423 278.164 141.423C272.519 148.065 265.052 153.36 256.45 156.823C242.75 162.04 236.899 167.851 236.363 171.521C235.827 175.192 239.886 180.067 247.9 181.488C255.914 182.909 256.594 186.885 262.692 187.299C268.79 187.713 268.873 181.902 273.426 181.902C277.979 181.902 281.152 182.262 281.296 183.575C281.44 184.888 267.843 189.62 266.092 195.179C264.34 200.738 253.339 202.051 246.417 203.958C239.494 205.865 229.585 204.426 227.669 207.556C225.753 210.687 210.569 218.225 210.157 222.255C209.745 226.285 225.094 226.159 228.699 229.361C232.304 232.563 254.616 238.014 258.428 238.14C262.239 238.266 262.218 239.202 262.218 239.795C262.218 240.389 250.681 237.996 244.851 243.717C239.021 249.438 239.824 254.512 228.369 252.839C216.915 251.165 214.525 261.258 197.281 263.273C180.037 265.288 110.238 259.531 90.6247 236.773C99.7719 253.306 112.813 263.435 115.862 270.199C118.911 276.964 131.829 275.255 140.378 281.228C148.928 287.2 164.194 300.441 171.117 298.642C166.234 303.266 133.044 308.951 116.151 301.485C124.082 311.452 145.261 314.654 150.968 318.198C156.675 321.742 177.75 325.142 188.216 322.3C198.682 319.457 218.975 319.277 218.975 319.277C219.902 320.283 221.154 321.023 222.568 321.401C223.982 321.78 225.493 321.779 226.907 321.4C224.661 325.844 206.758 332.788 196.375 341.676C185.991 350.563 122.455 378.286 102.512 376.343C108.219 384.691 129.995 393.398 146.683 394.658C163.37 395.917 191.08 393.578 191.08 393.578C191.08 393.578 191.677 404.606 170.107 409.05C187.001 417.937 225.073 414.555 225.073 414.555C225.073 414.555 212.444 417.416 196.375 433.409C180.305 449.403 142.13 452.083 133.456 459.891C124.783 467.699 97.8354 476.604 88.1318 476.604C78.4283 476.604 50.6775 480.526 44.5587 477.144C38.4399 473.762 28.0771 480.346 43.7552 495.638C59.4333 510.93 66.7676 513.053 82.0337 513.053C97.2997 513.053 132.715 511.254 132.715 511.254C132.715 511.254 84.0733 536.333 82.6311 540.039C81.189 543.745 86.0923 553.55 106.056 552.309C126.019 551.067 168.356 541.64 182.406 529.73C180.985 540.039 188.587 542.72 194.005 542.899C199.424 543.079 215.596 538.276 232.284 524.585C223.734 537.179 187.763 575.552 153.832 591.15C119.9 606.748 82.4457 610.364 79.6644 617.47C76.8832 624.576 78.3047 635.245 103.81 636.666C129.315 638.087 147.527 639.275 147.527 639.275C147.527 639.275 105.17 679.807 77.7691 693.552C50.3684 707.297 18.8474 709.923 9.08211 707.782C-0.683221 705.642 -4.49459 716.31 7.45455 722.175C19.4037 728.04 27.8093 729.047 31.6207 731.422C35.432 733.797 53.0467 731.188 64.4602 734.265C75.8737 737.341 114.399 727.068 114.399 727.068C113.347 728.725 112.937 730.635 113.23 732.513C113.524 734.39 114.505 736.134 116.027 737.485C93.2411 749.574 90.5217 765.226 80.2001 769.022C69.8785 772.818 25.2753 784.764 15.4275 797.159H1850.03C1850.03 797.159 1922.32 764.794 1919.91 747.452ZM396.296 553.424C390.99 548.864 387.312 543.059 385.707 536.711L413.396 549.502C413.396 549.502 404.042 551.283 396.296 553.424ZM435.79 521.725L458.596 523.146L448.419 532.735L435.79 521.725ZM485.07 620.205C472.995 615.615 462.474 608.392 454.517 599.228C476.932 606.694 510.307 602.826 510.307 602.826L485.07 620.205ZM1013.59 494.037L1008.71 482.649L1020.93 470.919L1036.81 485.15L1013.59 494.037ZM1314.11 507.908L1299.44 495.099H1323.88L1314.11 507.908ZM1335.68 473.15L1314.11 463.543H1349.94L1335.68 473.15ZM1342.21 438.303L1314.11 428.174C1314.11 428.174 1357.38 427.472 1370.3 421.787C1363.37 428.966 1342.21 438.213 1342.21 438.213V438.303ZM1628.05 480.131C1622.63 482.038 1592.22 486.068 1585.44 497.689C1578.66 509.311 1616.12 520.195 1616.12 520.195C1609.94 528.255 1606.6 542.252 1606.6 542.252L1567.46 515.464H1576.03L1539.66 485.6L1560.84 491.986L1533.42 463.543C1533.42 463.543 1566.8 463.076 1576.69 469.228C1586.57 475.381 1578.31 451.238 1571.25 446.236C1591.62 450.752 1617.95 446.236 1617.95 446.236C1617.95 446.236 1602.48 457.391 1592.69 464.011C1582.91 470.632 1586.72 476.353 1611.42 473.51C1636.12 470.668 1640.47 469.228 1640.47 469.228C1640.47 469.228 1633.49 478.152 1628.05 480.041V480.131Z" fill="#0F623A" fill-opacity="0.1"/>
</svg>
