<svg width="103" height="88" viewBox="0 0 103 88" fill="none" xmlns="http://www.w3.org/2000/svg">
<g id="Layer_1" clip-path="url(#clip0_27_1228)">
<path id="Vector" d="M67.298 26.2946L51.1875 0.217773L35.0769 26.2946H51.1875H67.298Z" fill="white" stroke="white" stroke-miterlimit="10"/>
<path id="Vector_2" d="M32.4089 48.9295C32.4072 47.4761 32.3308 46.0238 32.1799 44.5784C32.0267 43.117 31.7974 41.6647 31.4929 40.2273C30.2733 37.1091 28.7516 34.1178 26.9494 31.296C25.8429 29.5603 24.6323 27.8931 23.3243 26.3037C18.8197 34.351 20.9586 47.3264 20.9586 47.3264L32.4089 48.9295Z" fill="white" stroke="white" stroke-miterlimit="10"/>
<path id="Vector_3" d="M79.0505 26.2944C75.6077 30.4773 72.8505 35.18 70.8818 40.2271C70.5773 41.6646 70.348 43.1169 70.1948 44.5782C70.0428 46.0236 69.9664 47.476 69.9658 48.9294L81.4161 47.3263C81.4161 47.3263 83.555 34.3509 79.0505 26.2944Z" fill="white" stroke="white" stroke-miterlimit="10"/>
<path id="Vector_4" d="M101.569 11.8304C101.569 11.8304 100.653 10.9144 98.1336 15.0365C95.6145 19.1586 87.6841 30.3798 87.6841 30.3798L102.256 28.5478L101.569 11.8304Z" fill="white" stroke="white" stroke-miterlimit="10"/>
<path id="Vector_5" d="M4.24124 15.0365C1.72218 10.9144 0.806158 11.8304 0.806158 11.8304L0.119141 28.5478L14.6908 30.3798C14.6908 30.3798 6.7603 19.1586 4.24124 15.0365Z" fill="white" stroke="white" stroke-miterlimit="10"/>
<path id="Vector_6" d="M100.533 34.044C100.446 33.986 100.343 33.955 100.238 33.9547L86.335 36.334L82.4419 50.9904L65.4955 53.0514L66.8695 30.3799H35.6149L36.9889 53.0514L20.0425 50.9904L16.1494 36.334L2.24415 33.9547C2.13977 33.9549 2.03778 33.9859 1.95102 34.044C1.17698 34.5982 2.45942 37.5363 2.63804 37.9371C4.97161 43.534 9.03417 53.2621 11.3403 58.7766C17.9608 74.6169 22.4287 85.2748 22.9646 85.0458C23.0264 85.0183 36.9889 87.8603 36.9889 87.8603C37.9049 73.4329 51.1872 70.0895 51.1872 70.0895L51.2445 70.0734L51.3017 70.0895C51.3017 70.0895 64.5841 73.4329 65.5001 87.8603C65.5001 87.8603 79.4694 85.0183 79.5244 85.0458C80.058 85.2748 84.5282 74.6169 91.1487 58.7766C93.4525 53.2621 97.5174 43.534 99.8509 37.9371C100.03 37.5363 101.312 34.5982 100.533 34.044ZM25.992 73.6619L21.9592 60.8376H28.7401L32.4042 73.6619H25.992ZM58.5108 53.9675H43.8545C43.8545 53.9675 42.0224 42.879 51.1827 43.2706C60.3475 42.879 58.5154 53.9675 58.5154 53.9675H58.5108ZM76.8313 73.6619H70.055L74.0878 60.8376H80.5L76.8313 73.6619Z" fill="white" stroke="white" stroke-miterlimit="10"/>
</g>
<defs>
<clipPath id="clip0_27_1228">
<rect width="102.375" height="88" fill="white"/>
</clipPath>
</defs>
</svg>
